<svg width="175" height="290" viewBox="0 0 174 290" fill="none" xmlns="http://www.w3.org/2000/svg">
<rect x="0.556642" y="0.556642" width="172.559" height="288.341" rx="29.4285" fill="url(#paint0_linear_57_54)" stroke="url(#paint1_linear_57_54)" stroke-width="1.11328"/>
<rect x="28.103" y="204.338" width="113.531" height="21.0843" rx="2.97342" stroke="#11FF45" stroke-width="0.540622"/>
<rect x="28.103" y="236.43" width="113.531" height="21.0843" rx="2.97342" stroke="#CC1414" stroke-width="0.540622"/>
<path d="M12.2706 184.999H160.401" stroke="#202932" stroke-width="0.540622"/>
<path d="M43.151 137.138H40.3182L39.864 138.479H37.9286L40.675 130.888H42.8158L45.5622 138.479H43.6051L43.151 137.138ZM42.6753 135.711L41.7346 132.932L40.8047 135.711H42.6753ZM51.1231 137.138H48.2902L47.8361 138.479H45.9007L48.647 130.888H50.7879L53.5343 138.479H51.5772L51.1231 137.138ZM50.6473 135.711L49.7067 132.932L48.7768 135.711H50.6473ZM60.1548 133.332C60.1548 133.772 60.0539 134.175 59.852 134.543C59.6502 134.903 59.3402 135.195 58.9222 135.419C58.5041 135.642 57.9851 135.754 57.3652 135.754H56.219V138.479H54.3701V130.888H57.3652C57.9707 130.888 58.4824 130.993 58.9005 131.202C59.3186 131.411 59.6322 131.699 59.8412 132.067C60.0503 132.435 60.1548 132.856 60.1548 133.332ZM57.2246 134.284C57.5778 134.284 57.8409 134.201 58.0139 134.035C58.1869 133.869 58.2734 133.635 58.2734 133.332C58.2734 133.029 58.1869 132.795 58.0139 132.629C57.8409 132.463 57.5778 132.381 57.2246 132.381H56.219V134.284H57.2246ZM62.9663 137.052H65.3882V138.479H61.1173V130.888H62.9663V137.052ZM71.0483 140.739C70.3491 140.068 69.8049 139.203 69.4156 138.144C69.0264 137.084 68.8318 135.941 68.8318 134.716C68.8318 133.476 69.0336 132.319 69.4373 131.245C69.8409 130.164 70.414 129.285 71.1564 128.607H72.9729V128.78C72.2161 129.53 71.6322 130.431 71.2213 131.483C70.8104 132.528 70.605 133.606 70.605 134.716C70.605 135.819 70.8032 136.882 71.1997 137.906C71.5961 138.929 72.1548 139.816 72.8756 140.566V140.739H71.0483ZM80.7306 137.138H77.8977L77.4436 138.479H75.5082L78.2545 130.888H80.3954L83.1418 138.479H81.1847L80.7306 137.138ZM80.2548 135.711L79.3142 132.932L78.3843 135.711H80.2548ZM85.8266 133.3C86.0068 133.018 86.2554 132.791 86.5726 132.618C86.8898 132.445 87.261 132.359 87.6863 132.359C88.1837 132.359 88.6342 132.485 89.0378 132.737C89.4415 132.99 89.7587 133.35 89.9893 133.819C90.2272 134.287 90.3462 134.831 90.3462 135.451C90.3462 136.071 90.2272 136.619 89.9893 137.095C89.7587 137.563 89.4415 137.927 89.0378 138.187C88.6342 138.439 88.1837 138.565 87.6863 138.565C87.2682 138.565 86.897 138.479 86.5726 138.306C86.2554 138.133 86.0068 137.909 85.8266 137.635V141.355H83.9776V132.445H85.8266V133.3ZM88.4648 135.451C88.4648 134.99 88.335 134.63 88.0755 134.37C87.8232 134.103 87.5097 133.97 87.1349 133.97C86.7672 133.97 86.4537 134.103 86.1942 134.37C85.9419 134.637 85.8157 135.001 85.8157 135.462C85.8157 135.923 85.9419 136.287 86.1942 136.554C86.4537 136.821 86.7672 136.954 87.1349 136.954C87.5025 136.954 87.816 136.821 88.0755 136.554C88.335 136.28 88.4648 135.913 88.4648 135.451ZM93.1651 133.3C93.3453 133.018 93.594 132.791 93.9111 132.618C94.2283 132.445 94.5995 132.359 95.0248 132.359C95.5222 132.359 95.9727 132.485 96.3764 132.737C96.78 132.99 97.0972 133.35 97.3279 133.819C97.5657 134.287 97.6847 134.831 97.6847 135.451C97.6847 136.071 97.5657 136.619 97.3279 137.095C97.0972 137.563 96.78 137.927 96.3764 138.187C95.9727 138.439 95.5222 138.565 95.0248 138.565C94.6067 138.565 94.2355 138.479 93.9111 138.306C93.594 138.133 93.3453 137.909 93.1651 137.635V141.355H91.3161V132.445H93.1651V133.3ZM95.8033 135.451C95.8033 134.99 95.6736 134.63 95.4141 134.37C95.1618 134.103 94.8482 133.97 94.4734 133.97C94.1058 133.97 93.7922 134.103 93.5327 134.37C93.2804 134.637 93.1543 135.001 93.1543 135.462C93.1543 135.923 93.2804 136.287 93.5327 136.554C93.7922 136.821 94.1058 136.954 94.4734 136.954C94.841 136.954 95.1546 136.821 95.4141 136.554C95.6736 136.28 95.8033 135.913 95.8033 135.451ZM100.504 130.478V138.479H98.6547V130.478H100.504ZM107.531 135.365C107.531 135.538 107.52 135.718 107.498 135.905H103.314C103.343 136.28 103.462 136.569 103.671 136.77C103.887 136.965 104.15 137.062 104.46 137.062C104.921 137.062 105.242 136.868 105.422 136.478H107.39C107.289 136.875 107.106 137.232 106.839 137.549C106.579 137.866 106.251 138.115 105.855 138.295C105.458 138.475 105.015 138.565 104.525 138.565C103.934 138.565 103.408 138.439 102.946 138.187C102.485 137.935 102.125 137.574 101.865 137.106C101.606 136.637 101.476 136.089 101.476 135.462C101.476 134.835 101.602 134.287 101.854 133.819C102.114 133.35 102.474 132.99 102.936 132.737C103.397 132.485 103.927 132.359 104.525 132.359C105.109 132.359 105.628 132.481 106.082 132.727C106.536 132.972 106.889 133.321 107.142 133.775C107.401 134.229 107.531 134.759 107.531 135.365ZM105.639 134.878C105.639 134.561 105.531 134.309 105.314 134.121C105.098 133.934 104.828 133.84 104.503 133.84C104.193 133.84 103.93 133.93 103.714 134.111C103.505 134.291 103.375 134.547 103.325 134.878H105.639ZM112.646 130.888V138.479H110.798V130.888H112.646ZM117.663 132.381C118.369 132.381 118.931 132.611 119.349 133.073C119.775 133.527 119.987 134.154 119.987 134.954V138.479H118.149V135.203C118.149 134.799 118.045 134.485 117.836 134.262C117.627 134.038 117.345 133.927 116.992 133.927C116.639 133.927 116.358 134.038 116.149 134.262C115.94 134.485 115.835 134.799 115.835 135.203V138.479H113.986V132.445H115.835V133.246C116.023 132.979 116.275 132.77 116.592 132.618C116.909 132.46 117.266 132.381 117.663 132.381ZM120.904 135.462C120.904 134.835 121.031 134.287 121.283 133.819C121.542 133.35 121.899 132.99 122.353 132.737C122.815 132.485 123.341 132.359 123.932 132.359C124.689 132.359 125.32 132.557 125.824 132.954C126.336 133.35 126.671 133.909 126.83 134.63H124.862C124.696 134.168 124.375 133.938 123.9 133.938C123.561 133.938 123.29 134.071 123.089 134.338C122.887 134.597 122.786 134.972 122.786 135.462C122.786 135.952 122.887 136.331 123.089 136.597C123.29 136.857 123.561 136.987 123.9 136.987C124.375 136.987 124.696 136.756 124.862 136.295H126.83C126.671 137.001 126.336 137.556 125.824 137.96C125.312 138.363 124.682 138.565 123.932 138.565C123.341 138.565 122.815 138.439 122.353 138.187C121.899 137.935 121.542 137.574 121.283 137.106C121.031 136.637 120.904 136.089 120.904 135.462ZM128.684 138.565C128.359 138.565 128.093 138.472 127.884 138.284C127.682 138.09 127.581 137.852 127.581 137.571C127.581 137.282 127.682 137.041 127.884 136.846C128.093 136.651 128.359 136.554 128.684 136.554C129.001 136.554 129.26 136.651 129.462 136.846C129.671 137.041 129.776 137.282 129.776 137.571C129.776 137.852 129.671 138.09 129.462 138.284C129.26 138.472 129.001 138.565 128.684 138.565ZM130.373 140.739V140.566C131.094 139.816 131.652 138.929 132.049 137.906C132.445 136.882 132.643 135.819 132.643 134.716C132.643 133.606 132.438 132.528 132.027 131.483C131.616 130.431 131.032 129.53 130.276 128.78V128.607H132.092C132.835 129.285 133.408 130.164 133.811 131.245C134.215 132.319 134.417 133.476 134.417 134.716C134.417 135.941 134.222 137.084 133.833 138.144C133.444 139.203 132.899 140.068 132.2 140.739H130.373Z" fill="#11C6FF"/>
<path d="M77.1928 219.408H79.764C80.3221 219.408 80.7986 219.321 81.1936 219.147C81.5886 218.969 81.8912 218.717 82.1014 218.391C82.3152 218.061 82.4222 217.668 82.4222 217.212V217.201C82.4222 216.856 82.3497 216.55 82.2047 216.282C82.0634 216.01 81.8623 215.789 81.6013 215.619C81.3404 215.449 81.0306 215.342 80.6718 215.298V215.211C80.9255 215.164 81.1538 215.059 81.3567 214.896C81.5597 214.733 81.7209 214.532 81.8405 214.292C81.9637 214.053 82.0253 213.798 82.0253 213.526V213.515C82.0253 213.116 81.9311 212.772 81.7427 212.482C81.5578 212.189 81.2915 211.962 80.9436 211.803C80.5993 211.643 80.1862 211.564 79.7042 211.564H77.1928V212.428H79.4976C79.9832 212.428 80.3601 212.538 80.6283 212.76C80.9001 212.977 81.036 213.285 81.036 213.684V213.695C81.036 214.108 80.8856 214.419 80.5848 214.63C80.2876 214.84 79.8419 214.945 79.2476 214.945H77.1928V215.787H79.5248C79.9415 215.787 80.2894 215.838 80.5685 215.94C80.8512 216.041 81.0632 216.193 81.2045 216.396C81.3458 216.599 81.4165 216.851 81.4165 217.152V217.163C81.4165 217.612 81.2643 217.955 80.9599 218.19C80.6555 218.426 80.2079 218.543 79.6172 218.543H77.1928V219.408ZM76.7035 219.408H77.682V211.564H76.7035V219.408ZM85.9744 219.511C86.4057 219.511 86.7663 219.426 87.0562 219.256C87.3497 219.085 87.569 218.844 87.714 218.533H87.8009V219.408H88.7468V213.548H87.8009V217.016C87.8009 217.357 87.7411 217.652 87.6215 217.902C87.502 218.148 87.3244 218.339 87.0888 218.473C86.8533 218.607 86.5633 218.674 86.2191 218.674C85.7516 218.674 85.4145 218.545 85.208 218.288C85.005 218.031 84.9036 217.639 84.9036 217.114V213.548H83.9577V217.342C83.9577 217.802 84.032 218.195 84.1806 218.522C84.3328 218.844 84.5593 219.091 84.8601 219.261C85.1609 219.428 85.5323 219.511 85.9744 219.511ZM91.1249 221.463C91.4728 221.463 91.7645 221.412 92.0001 221.31C92.2393 221.212 92.4459 221.04 92.6198 220.794C92.7974 220.547 92.9677 220.205 93.1308 219.766L95.4193 213.548H94.4245L92.6252 218.962L93.0003 218.369H92.5546L92.9297 218.962L91.1249 213.548H90.1138L92.2828 219.413L92.1741 219.761C92.069 220.098 91.9294 220.335 91.7555 220.473C91.5852 220.611 91.3659 220.68 91.0977 220.68C91.0325 220.68 90.9655 220.678 90.8966 220.674C90.8277 220.671 90.7643 220.663 90.7063 220.653V221.43C90.7716 221.441 90.8422 221.448 90.9183 221.452C90.9944 221.459 91.0633 221.463 91.1249 221.463Z" fill="white"/>
<path d="M79.2747 251.684C79.8582 251.684 80.3674 251.588 80.8022 251.396C81.2371 251.2 81.5741 250.925 81.8133 250.57C82.0525 250.215 82.1721 249.792 82.1721 249.303V249.298C82.1721 248.732 81.9963 248.278 81.6448 247.933C81.2933 247.589 80.708 247.326 79.889 247.145L79.0192 246.949C78.4865 246.833 78.1042 246.669 77.8723 246.455C77.6403 246.241 77.5244 245.978 77.5244 245.666V245.661C77.5244 245.386 77.6005 245.154 77.7527 244.965C77.9085 244.773 78.1169 244.626 78.3778 244.525C78.6387 244.423 78.9323 244.373 79.2584 244.373C79.5991 244.369 79.8962 244.42 80.1499 244.525C80.4036 244.63 80.6065 244.773 80.7588 244.954C80.911 245.132 81.0052 245.337 81.0414 245.569L81.0523 245.639H82.0308L82.0253 245.563C82 245.172 81.8677 244.818 81.6285 244.503C81.3929 244.188 81.074 243.938 80.6718 243.753C80.2695 243.565 79.8075 243.47 79.2856 243.47C78.7456 243.47 78.2673 243.565 77.8505 243.753C77.4374 243.941 77.113 244.202 76.8775 244.536C76.6455 244.869 76.5278 245.253 76.5241 245.688V245.694C76.5241 246.263 76.7017 246.73 77.0569 247.096C77.4156 247.459 77.9882 247.727 78.7746 247.901L79.6444 248.091C80.1844 248.211 80.5739 248.383 80.8131 248.607C81.0523 248.828 81.1719 249.102 81.1719 249.428V249.434C81.1719 249.698 81.0922 249.932 80.9327 250.135C80.7732 250.338 80.554 250.497 80.275 250.613C79.9995 250.726 79.6842 250.782 79.3291 250.782C78.9522 250.782 78.6152 250.729 78.318 250.624C78.0245 250.519 77.7889 250.372 77.6113 250.184C77.4374 249.992 77.3377 249.765 77.3124 249.504L77.3069 249.444H76.3284L76.3339 249.504C76.3737 249.928 76.5169 250.305 76.7633 250.635C77.0134 250.961 77.3504 251.218 77.7744 251.407C78.202 251.592 78.7021 251.684 79.2747 251.684ZM86.1865 251.603C86.5307 251.603 86.8406 251.559 87.116 251.472C87.395 251.381 87.636 251.262 87.839 251.113C88.0419 250.961 88.2068 250.793 88.3337 250.608C88.4641 250.419 88.5547 250.225 88.6055 250.026L88.6163 249.983H87.6705L87.6487 250.032C87.598 250.148 87.5092 250.262 87.3824 250.374C87.2555 250.486 87.0943 250.579 86.8986 250.651C86.7029 250.724 86.4727 250.76 86.2082 250.76C85.853 250.76 85.545 250.682 85.2841 250.526C85.0232 250.367 84.822 250.14 84.6807 249.847C84.5394 249.55 84.4687 249.193 84.4687 248.776V248.401C84.4687 247.962 84.5412 247.593 84.6861 247.292C84.8311 246.991 85.0268 246.765 85.2732 246.612C85.5233 246.457 85.8059 246.379 86.1212 246.379C86.4365 246.379 86.7156 246.453 86.9584 246.601C87.2012 246.746 87.3914 246.967 87.5291 247.265C87.6668 247.562 87.7357 247.941 87.7357 248.401V248.776L88.2032 248.085H83.9903V248.841H88.687V248.471C88.687 247.888 88.5837 247.377 88.3771 246.938C88.1742 246.496 87.8807 246.152 87.4965 245.906C87.116 245.659 86.6594 245.536 86.1267 245.536C85.5976 245.536 85.1355 245.665 84.7405 245.922C84.3455 246.179 84.0392 246.536 83.8218 246.993C83.608 247.449 83.5011 247.98 83.5011 248.586V248.591C83.5011 249.203 83.608 249.736 83.8218 250.189C84.0392 250.639 84.3473 250.986 84.7459 251.233C85.1482 251.479 85.6284 251.603 86.1865 251.603ZM90.3204 251.499H91.2662V243.313H90.3204V251.499ZM93.2475 251.499H94.1934V243.313H93.2475V251.499Z" fill="white"/>
<g clip-path="url(#clip0_57_54)">
<path d="M73.3294 100.737C72.064 99.8949 70.9425 98.8546 70.008 97.656C68.98 96.4188 68.0276 95.1207 67.1558 93.7689C65.1101 90.7719 63.5059 87.4965 62.3922 84.0431C61.0544 80.0316 60.4065 76.1866 60.4065 72.4259C60.4065 68.2259 61.3151 64.5594 63.0922 61.4786C64.4095 59.0707 66.3463 57.0584 68.7022 55.65C70.9854 54.2319 73.6087 53.4558 76.2959 53.4036C77.2366 53.4036 78.2495 53.54 79.3246 53.8007C80.0968 54.0193 81.0375 54.3643 82.1867 54.7936C83.6489 55.3572 84.4532 55.7021 84.726 55.7864C85.5824 56.0993 86.3025 56.2357 86.8681 56.2357C87.2973 56.2357 87.9031 56.0993 88.591 55.8907C88.9781 55.7543 89.7082 55.5136 90.7532 55.0663C91.7882 54.6893 92.6025 54.3663 93.2503 54.1256C94.2432 53.8328 95.2039 53.562 96.0604 53.4256C97.0757 53.2656 98.1061 53.2232 99.1311 53.2993C100.907 53.4154 102.657 53.7918 104.324 54.4165C107.05 55.5136 109.254 57.2265 110.895 59.6615C110.201 60.0889 109.55 60.5819 108.951 61.1337C107.647 62.2901 106.536 63.6478 105.66 65.1551C104.515 67.2151 103.922 69.5358 103.937 71.8924C103.979 74.7867 104.721 77.3359 106.183 79.5402C107.258 81.1739 108.655 82.571 110.289 83.646C111.125 84.2096 111.845 84.5967 112.535 84.8574C112.212 85.8603 111.868 86.831 111.46 87.7938C110.537 89.9528 109.418 92.0226 108.117 93.9775C106.957 95.6603 106.049 96.9138 105.359 97.7482C104.284 99.0219 103.249 99.9946 102.204 100.673C101.055 101.435 99.6967 101.842 98.3168 101.842C97.3822 101.878 96.4479 101.765 95.5489 101.507C94.7767 101.246 94.0125 100.963 93.2604 100.64C92.4784 100.281 91.6721 99.9777 90.8475 99.7319C88.8091 99.2083 86.6718 99.2049 84.6317 99.7219C83.7953 99.9625 82.991 100.243 82.1968 100.588C81.0796 101.058 80.3375 101.373 79.9082 101.507C79.0518 101.758 78.1632 101.914 77.2647 101.966C75.8747 101.966 74.579 101.569 73.2953 100.765L73.3294 100.737ZM91.6618 51.3658C89.8446 52.2744 88.1097 52.6615 86.3867 52.5351C86.116 50.8001 86.3867 49.0251 87.1068 47.0815C87.7198 45.435 88.6256 43.9128 89.7804 42.5887C90.9999 41.1948 92.4797 40.0522 94.1369 39.2251C95.9019 38.3165 97.5847 37.8251 99.1933 37.7529C99.4019 39.5701 99.1933 41.3572 98.5254 43.2887C97.9073 44.9961 97.0032 46.586 95.8518 47.9901C94.6765 49.386 93.2343 50.533 91.6096 51.3638L91.6618 51.3658Z" fill="white"/>
</g>
<path d="M18.8789 181.044L20.5534 178.279C20.9255 177.665 21.7887 177.592 22.2587 178.135V178.135C22.7756 178.732 23.7411 178.573 24.0391 177.842L24.931 175.651C25.2818 174.79 26.543 174.931 26.6943 175.849L26.9008 177.101C27.0282 177.875 28.136 177.886 28.2789 177.115V177.115C28.3931 176.499 29.1974 176.332 29.5472 176.852L29.8305 177.273C30.2767 177.936 31.3003 177.74 31.4692 176.959L32.1856 173.647C32.4102 172.609 33.8836 172.587 34.1385 173.618V173.618C34.3877 174.627 35.8173 174.637 36.0812 173.633L36.3949 172.438C36.7348 171.145 38.5637 171.123 38.9344 172.408L39.0436 172.787C39.4376 174.153 41.3691 174.164 41.7788 172.803L44.519 163.697C44.966 162.212 47.0513 162.164 47.5669 163.626L48.3309 165.794C48.8232 167.19 50.7834 167.231 51.3325 165.856L54.2036 158.666C54.7756 157.233 56.8427 157.356 57.2418 158.846L59.4079 166.934C59.7163 168.086 61.3447 168.101 61.6751 166.956L61.7503 166.695C62.0309 165.722 63.3758 165.637 63.7778 166.566V166.566C64.1842 167.505 65.548 167.404 65.8113 166.415L66.1948 164.974C66.6191 163.38 68.8872 163.398 69.2872 164.998L71.6315 174.377C71.8142 175.108 72.8464 175.126 73.0552 174.402V174.402C73.2765 173.635 74.3891 173.718 74.4945 174.509L75.4177 181.445" stroke="url(#paint2_linear_57_54)" stroke-width="0.801782"/>
<path d="M106.472 159.088H107.246V163.323C107.246 163.76 107.143 164.151 106.937 164.494C106.733 164.836 106.445 165.105 106.072 165.303C105.699 165.499 105.262 165.597 104.76 165.597C104.259 165.597 103.821 165.499 103.449 165.303C103.076 165.105 102.787 164.836 102.58 164.494C102.376 164.151 102.274 163.76 102.274 163.323V159.088H103.049V163.261C103.049 163.573 103.118 163.851 103.255 164.094C103.392 164.336 103.588 164.526 103.842 164.666C104.098 164.803 104.404 164.872 104.76 164.872C105.116 164.872 105.423 164.803 105.679 164.666C105.935 164.526 106.13 164.336 106.266 164.094C106.403 163.851 106.472 163.573 106.472 163.261V159.088ZM112.439 160.687C112.401 160.371 112.249 160.125 111.983 159.95C111.716 159.775 111.39 159.688 111.002 159.688C110.719 159.688 110.471 159.733 110.259 159.825C110.049 159.917 109.884 160.043 109.765 160.203C109.649 160.363 109.591 160.545 109.591 160.749C109.591 160.92 109.631 161.067 109.712 161.19C109.796 161.311 109.902 161.412 110.031 161.493C110.16 161.572 110.295 161.638 110.437 161.69C110.579 161.74 110.709 161.78 110.827 161.811L111.477 161.986C111.644 162.03 111.829 162.09 112.033 162.167C112.239 162.244 112.436 162.35 112.623 162.483C112.813 162.614 112.969 162.783 113.092 162.989C113.215 163.195 113.276 163.448 113.276 163.748C113.276 164.093 113.185 164.406 113.004 164.685C112.825 164.964 112.563 165.185 112.217 165.35C111.874 165.514 111.456 165.597 110.965 165.597C110.507 165.597 110.11 165.523 109.775 165.375C109.442 165.227 109.179 165.021 108.988 164.757C108.798 164.492 108.691 164.185 108.666 163.835H109.466C109.486 164.077 109.568 164.277 109.709 164.435C109.853 164.591 110.034 164.708 110.253 164.785C110.473 164.86 110.711 164.897 110.965 164.897C111.26 164.897 111.526 164.849 111.761 164.753C111.996 164.656 112.183 164.52 112.32 164.347C112.458 164.172 112.526 163.968 112.526 163.735C112.526 163.523 112.467 163.35 112.348 163.217C112.23 163.084 112.074 162.975 111.88 162.892C111.686 162.809 111.477 162.736 111.252 162.673L110.465 162.448C109.965 162.305 109.57 162.1 109.278 161.833C108.987 161.567 108.841 161.218 108.841 160.787C108.841 160.429 108.938 160.117 109.131 159.85C109.327 159.581 109.59 159.373 109.919 159.225C110.25 159.075 110.619 159 111.027 159C111.44 159 111.806 159.074 112.127 159.222C112.447 159.368 112.701 159.568 112.889 159.822C113.078 160.076 113.178 160.364 113.189 160.687H112.439ZM116.671 165.484H114.697V159.088H116.759C117.379 159.088 117.91 159.216 118.351 159.472C118.793 159.726 119.131 160.092 119.366 160.568C119.602 161.043 119.719 161.611 119.719 162.274C119.719 162.94 119.601 163.514 119.363 163.994C119.126 164.473 118.78 164.842 118.326 165.1C117.872 165.356 117.321 165.484 116.671 165.484ZM115.472 164.797H116.621C117.15 164.797 117.588 164.695 117.936 164.491C118.284 164.287 118.543 163.997 118.714 163.62C118.884 163.243 118.97 162.794 118.97 162.274C118.97 161.757 118.885 161.313 118.717 160.94C118.548 160.565 118.296 160.278 117.961 160.078C117.626 159.876 117.208 159.775 116.709 159.775H115.472V164.797ZM126.723 159.088V165.484H125.949V159.9H125.911L124.35 160.937V160.15L125.949 159.088H126.723ZM129.367 164.172V163.535L132.178 159.088H132.641V160.075H132.328L130.204 163.435V163.485H133.99V164.172H129.367ZM132.378 165.484V163.979V163.682V159.088H133.115V165.484H132.378ZM137.496 159C137.758 159.003 138.02 159.053 138.283 159.15C138.545 159.248 138.785 159.411 139.001 159.638C139.218 159.862 139.391 160.17 139.523 160.559C139.654 160.948 139.719 161.437 139.719 162.024C139.719 162.592 139.665 163.097 139.557 163.538C139.451 163.978 139.297 164.348 139.095 164.65C138.895 164.952 138.651 165.181 138.364 165.337C138.079 165.494 137.756 165.572 137.396 165.572C137.038 165.572 136.718 165.501 136.437 165.359C136.158 165.216 135.929 165.017 135.75 164.763C135.573 164.507 135.459 164.21 135.409 163.873H136.171C136.24 164.166 136.377 164.409 136.581 164.6C136.787 164.79 137.058 164.885 137.396 164.885C137.889 164.885 138.279 164.669 138.564 164.238C138.851 163.807 138.995 163.198 138.995 162.411H138.945C138.828 162.586 138.69 162.737 138.529 162.864C138.369 162.991 138.191 163.089 137.995 163.157C137.8 163.226 137.591 163.261 137.371 163.261C137.004 163.261 136.668 163.17 136.362 162.989C136.058 162.806 135.814 162.555 135.631 162.236C135.45 161.915 135.359 161.549 135.359 161.137C135.359 160.745 135.447 160.387 135.622 160.062C135.799 159.735 136.047 159.475 136.365 159.282C136.686 159.088 137.063 158.994 137.496 159ZM137.496 159.688C137.233 159.688 136.997 159.753 136.787 159.884C136.579 160.013 136.413 160.188 136.29 160.409C136.169 160.628 136.109 160.87 136.109 161.137C136.109 161.403 136.167 161.646 136.284 161.864C136.403 162.081 136.564 162.254 136.768 162.383C136.974 162.51 137.208 162.573 137.471 162.573C137.669 162.573 137.853 162.535 138.024 162.458C138.194 162.379 138.343 162.272 138.47 162.136C138.599 161.999 138.7 161.844 138.773 161.671C138.846 161.496 138.882 161.314 138.882 161.124C138.882 160.874 138.822 160.64 138.701 160.422C138.583 160.203 138.418 160.026 138.208 159.891C138 159.755 137.762 159.688 137.496 159.688ZM142.276 164.61L142.226 164.947C142.191 165.184 142.136 165.438 142.064 165.709C141.993 165.98 141.919 166.235 141.842 166.474C141.765 166.714 141.701 166.904 141.651 167.046H141.089C141.116 166.913 141.152 166.737 141.195 166.518C141.239 166.299 141.283 166.055 141.326 165.784C141.372 165.515 141.41 165.241 141.439 164.96L141.476 164.61H142.276ZM145.983 165.572C145.57 165.572 145.203 165.501 144.88 165.359C144.559 165.218 144.304 165.021 144.115 164.769C143.928 164.515 143.825 164.22 143.809 163.885H144.596C144.613 164.091 144.683 164.269 144.808 164.419C144.933 164.567 145.097 164.682 145.299 164.763C145.501 164.844 145.724 164.885 145.97 164.885C146.245 164.885 146.489 164.837 146.701 164.741C146.913 164.645 147.08 164.512 147.201 164.341C147.321 164.17 147.382 163.973 147.382 163.748C147.382 163.512 147.323 163.305 147.207 163.126C147.09 162.945 146.92 162.803 146.695 162.701C146.47 162.599 146.195 162.548 145.87 162.548H145.358V161.861H145.87C146.124 161.861 146.347 161.816 146.538 161.724C146.732 161.632 146.883 161.503 146.991 161.337C147.102 161.17 147.157 160.974 147.157 160.749C147.157 160.533 147.109 160.344 147.013 160.184C146.917 160.024 146.782 159.899 146.607 159.809C146.434 159.72 146.23 159.675 145.995 159.675C145.774 159.675 145.566 159.716 145.37 159.797C145.177 159.876 145.019 159.992 144.896 160.144C144.773 160.293 144.706 160.475 144.696 160.687H143.946C143.959 160.352 144.06 160.058 144.249 159.806C144.439 159.552 144.686 159.354 144.993 159.213C145.301 159.071 145.639 159 146.008 159C146.403 159 146.743 159.081 147.026 159.241C147.309 159.399 147.526 159.608 147.678 159.869C147.83 160.129 147.906 160.41 147.906 160.712C147.906 161.072 147.812 161.379 147.622 161.633C147.435 161.887 147.18 162.063 146.857 162.161V162.211C147.261 162.278 147.576 162.45 147.803 162.726C148.03 163.001 148.144 163.342 148.144 163.748C148.144 164.095 148.049 164.408 147.86 164.685C147.672 164.96 147.416 165.176 147.091 165.334C146.766 165.493 146.397 165.572 145.983 165.572ZM151.775 165.572C151.408 165.572 151.078 165.499 150.785 165.353C150.491 165.207 150.256 165.007 150.079 164.753C149.902 164.499 149.805 164.21 149.788 163.885H150.538C150.567 164.175 150.698 164.414 150.931 164.603C151.167 164.791 151.448 164.885 151.775 164.885C152.037 164.885 152.27 164.823 152.474 164.7C152.68 164.577 152.842 164.409 152.958 164.194C153.077 163.978 153.136 163.733 153.136 163.46C153.136 163.181 153.075 162.933 152.952 162.714C152.831 162.493 152.665 162.319 152.452 162.192C152.24 162.065 151.998 162.001 151.725 161.999C151.529 161.997 151.328 162.027 151.122 162.089C150.916 162.15 150.746 162.228 150.613 162.324L149.888 162.236L150.276 159.088H153.599V159.775H150.925L150.7 161.661H150.738C150.869 161.557 151.033 161.471 151.231 161.402C151.429 161.334 151.635 161.299 151.85 161.299C152.241 161.299 152.59 161.393 152.896 161.58C153.204 161.766 153.446 162.02 153.621 162.342C153.798 162.665 153.886 163.034 153.886 163.448C153.886 163.856 153.794 164.22 153.611 164.541C153.43 164.86 153.18 165.112 152.862 165.297C152.543 165.48 152.181 165.572 151.775 165.572Z" fill="white"/>
<path d="M128.655 175.52V171.987H129.254V175.52H128.655ZM127.188 174.053V173.454H130.721V174.053H127.188ZM134.021 176.559C133.618 176.559 133.274 176.449 132.991 176.23C132.707 176.009 132.49 175.688 132.34 175.269C132.19 174.848 132.115 174.339 132.115 173.743C132.115 173.15 132.19 172.644 132.34 172.225C132.492 171.804 132.71 171.483 132.993 171.261C133.279 171.038 133.622 170.927 134.021 170.927C134.421 170.927 134.763 171.038 135.047 171.261C135.332 171.483 135.55 171.804 135.7 172.225C135.852 172.644 135.927 173.15 135.927 173.743C135.927 174.339 135.852 174.848 135.703 175.269C135.553 175.688 135.336 176.009 135.052 176.23C134.768 176.449 134.425 176.559 134.021 176.559ZM134.021 175.97C134.421 175.97 134.732 175.777 134.953 175.392C135.174 175.007 135.285 174.457 135.285 173.743C135.285 173.268 135.234 172.864 135.132 172.53C135.032 172.197 134.888 171.942 134.699 171.767C134.511 171.592 134.286 171.505 134.021 171.505C133.625 171.505 133.316 171.7 133.092 172.091C132.869 172.48 132.758 173.031 132.758 173.743C132.758 174.218 132.808 174.621 132.908 174.953C133.008 175.285 133.151 175.537 133.339 175.711C133.528 175.884 133.755 175.97 134.021 175.97ZM137.451 176.527C137.319 176.527 137.205 176.48 137.111 176.385C137.016 176.291 136.969 176.177 136.969 176.045C136.969 175.913 137.016 175.8 137.111 175.705C137.205 175.611 137.319 175.563 137.451 175.563C137.583 175.563 137.696 175.611 137.791 175.705C137.885 175.8 137.932 175.913 137.932 176.045C137.932 176.133 137.91 176.213 137.866 176.286C137.823 176.359 137.765 176.418 137.692 176.463C137.62 176.506 137.54 176.527 137.451 176.527ZM140.868 176.559C140.501 176.559 140.176 176.494 139.894 176.364C139.614 176.232 139.395 176.051 139.238 175.82C139.081 175.588 139.003 175.324 139.005 175.028C139.003 174.796 139.049 174.582 139.142 174.385C139.235 174.187 139.361 174.022 139.522 173.89C139.684 173.756 139.865 173.672 140.065 173.636V173.604C139.803 173.536 139.594 173.389 139.439 173.162C139.284 172.934 139.207 172.674 139.209 172.383C139.207 172.105 139.277 171.856 139.42 171.636C139.563 171.417 139.759 171.243 140.009 171.117C140.261 170.99 140.547 170.927 140.868 170.927C141.186 170.927 141.47 170.99 141.72 171.117C141.97 171.243 142.166 171.417 142.309 171.636C142.453 171.856 142.526 172.105 142.528 172.383C142.526 172.674 142.447 172.934 142.29 173.162C142.135 173.389 141.929 173.536 141.672 173.604V173.636C141.87 173.672 142.048 173.756 142.207 173.89C142.366 174.022 142.492 174.187 142.587 174.385C142.682 174.582 142.73 174.796 142.732 175.028C142.73 175.324 142.65 175.588 142.491 175.82C142.334 176.051 142.115 176.232 141.835 176.364C141.556 176.494 141.234 176.559 140.868 176.559ZM140.868 175.97C141.116 175.97 141.331 175.93 141.511 175.85C141.691 175.769 141.83 175.656 141.929 175.51C142.027 175.363 142.077 175.192 142.078 174.996C142.077 174.789 142.023 174.606 141.918 174.447C141.813 174.288 141.669 174.163 141.487 174.072C141.307 173.981 141.1 173.936 140.868 173.936C140.635 173.936 140.426 173.981 140.242 174.072C140.06 174.163 139.916 174.288 139.811 174.447C139.707 174.606 139.657 174.789 139.658 174.996C139.657 175.192 139.704 175.363 139.8 175.51C139.898 175.656 140.039 175.769 140.221 175.85C140.403 175.93 140.619 175.97 140.868 175.97ZM140.868 173.368C141.065 173.368 141.239 173.329 141.39 173.25C141.544 173.172 141.664 173.062 141.752 172.921C141.839 172.78 141.884 172.615 141.886 172.426C141.884 172.24 141.84 172.079 141.755 171.941C141.669 171.802 141.55 171.695 141.398 171.62C141.247 171.543 141.07 171.505 140.868 171.505C140.663 171.505 140.484 171.543 140.33 171.62C140.177 171.695 140.058 171.802 139.974 171.941C139.89 172.079 139.849 172.24 139.851 172.426C139.849 172.615 139.891 172.78 139.977 172.921C140.064 173.062 140.185 173.172 140.338 173.25C140.492 173.329 140.669 173.368 140.868 173.368ZM145.836 176.559C145.483 176.559 145.168 176.498 144.891 176.377C144.616 176.256 144.398 176.087 144.235 175.871C144.075 175.653 143.987 175.401 143.973 175.114H144.648C144.662 175.29 144.723 175.443 144.83 175.571C144.937 175.698 145.077 175.796 145.25 175.866C145.423 175.935 145.615 175.97 145.826 175.97C146.061 175.97 146.27 175.929 146.452 175.847C146.634 175.765 146.777 175.651 146.88 175.504C146.984 175.358 147.036 175.189 147.036 174.996C147.036 174.794 146.986 174.617 146.886 174.463C146.786 174.308 146.639 174.186 146.447 174.099C146.254 174.012 146.018 173.968 145.74 173.968H145.301V173.379H145.74C145.958 173.379 146.149 173.34 146.313 173.261C146.479 173.183 146.608 173.072 146.701 172.929C146.796 172.786 146.843 172.619 146.843 172.426C146.843 172.24 146.802 172.079 146.72 171.941C146.638 171.804 146.522 171.697 146.372 171.62C146.224 171.543 146.049 171.505 145.847 171.505C145.658 171.505 145.479 171.54 145.312 171.609C145.146 171.677 145.01 171.776 144.905 171.907C144.799 172.035 144.742 172.19 144.733 172.372H144.091C144.102 172.085 144.188 171.833 144.351 171.617C144.513 171.4 144.725 171.23 144.988 171.109C145.252 170.987 145.542 170.927 145.858 170.927C146.197 170.927 146.488 170.995 146.73 171.133C146.973 171.268 147.16 171.448 147.29 171.671C147.42 171.894 147.485 172.135 147.485 172.394C147.485 172.702 147.404 172.966 147.242 173.183C147.081 173.401 146.862 173.552 146.586 173.636V173.679C146.932 173.736 147.202 173.883 147.397 174.12C147.591 174.356 147.689 174.648 147.689 174.996C147.689 175.294 147.608 175.562 147.445 175.799C147.285 176.034 147.065 176.22 146.787 176.356C146.508 176.491 146.191 176.559 145.836 176.559ZM151.805 175.456V175.167C151.805 174.967 151.846 174.784 151.928 174.618C152.012 174.451 152.133 174.317 152.292 174.217C152.452 174.115 152.647 174.064 152.875 174.064C153.107 174.064 153.302 174.115 153.459 174.217C153.616 174.317 153.735 174.451 153.815 174.618C153.895 174.784 153.936 174.967 153.936 175.167V175.456C153.936 175.656 153.894 175.84 153.812 176.008C153.732 176.174 153.613 176.308 153.454 176.409C153.297 176.509 153.104 176.559 152.875 176.559C152.643 176.559 152.448 176.509 152.289 176.409C152.13 176.308 152.01 176.174 151.928 176.008C151.846 175.84 151.805 175.656 151.805 175.456ZM152.351 175.167V175.456C152.351 175.622 152.39 175.771 152.469 175.903C152.547 176.034 152.683 176.099 152.875 176.099C153.063 176.099 153.195 176.034 153.272 175.903C153.35 175.771 153.389 175.622 153.389 175.456V175.167C153.389 175.001 153.352 174.853 153.277 174.723C153.202 174.591 153.068 174.525 152.875 174.525C152.688 174.525 152.553 174.591 152.471 174.723C152.391 174.853 152.351 175.001 152.351 175.167ZM149.074 172.319V172.03C149.074 171.83 149.115 171.647 149.197 171.481C149.281 171.313 149.402 171.179 149.561 171.079C149.722 170.978 149.916 170.927 150.145 170.927C150.377 170.927 150.571 170.978 150.728 171.079C150.886 171.179 151.004 171.313 151.085 171.481C151.165 171.647 151.205 171.83 151.205 172.03V172.319C151.205 172.519 151.164 172.702 151.082 172.87C151.002 173.036 150.882 173.17 150.723 173.272C150.566 173.372 150.373 173.422 150.145 173.422C149.913 173.422 149.717 173.372 149.559 173.272C149.4 173.17 149.279 173.036 149.197 172.87C149.115 172.702 149.074 172.519 149.074 172.319ZM149.62 172.03V172.319C149.62 172.485 149.659 172.634 149.738 172.766C149.816 172.896 149.952 172.961 150.145 172.961C150.332 172.961 150.464 172.896 150.541 172.766C150.62 172.634 150.659 172.485 150.659 172.319V172.03C150.659 171.864 150.621 171.716 150.546 171.585C150.471 171.453 150.338 171.387 150.145 171.387C149.957 171.387 149.823 171.453 149.741 171.585C149.66 171.716 149.62 171.864 149.62 172.03ZM149.278 176.484L153.047 171.002H153.657L149.888 176.484H149.278Z" fill="#00B670"/>
<defs>
<linearGradient id="paint0_linear_57_54" x1="21.1524" y1="-4.0835e-07" x2="132.481" y2="289.454" gradientUnits="userSpaceOnUse">
<stop offset="0.0442509" stop-color="#1F1F1F"/>
<stop offset="1"/>
</linearGradient>
<linearGradient id="paint1_linear_57_54" x1="0" y1="144.727" x2="173.672" y2="144.727" gradientUnits="userSpaceOnUse">
<stop stop-color="#FF3BFF"/>
<stop offset="0.380208" stop-color="#ECBFBF"/>
<stop offset="0.758263" stop-color="#5C24FF"/>
<stop offset="1" stop-color="#D94FD5"/>
</linearGradient>
<linearGradient id="paint2_linear_57_54" x1="96.1724" y1="135.647" x2="8.44871" y2="161.323" gradientUnits="userSpaceOnUse">
<stop stop-color="#45B68D"/>
<stop offset="1" stop-color="#45B68D" stop-opacity="0"/>
</linearGradient>
<clipPath id="clip0_57_54">
<rect width="64.1833" height="64.1833" fill="white" transform="translate(54.7443 37.7549)"/>
</clipPath>
</defs>
</svg>
