<svg width="21" height="21" viewBox="0 0 21 21" fill="none" xmlns="http://www.w3.org/2000/svg">
<path d="M14 7.33325C15.326 7.33325 16.5978 7.86004 17.5355 8.79772C18.4732 9.7354 19 11.0072 19 12.3333V18.1666H15.6666V12.3333C15.6666 11.8912 15.491 11.4673 15.1785 11.1547C14.8659 10.8422 14.442 10.6666 14 10.6666C13.5579 10.6666 13.134 10.8422 12.8214 11.1547C12.5089 11.4673 12.3333 11.8912 12.3333 12.3333V18.1666H8.99995V12.3333C8.99995 11.0072 9.52674 9.7354 10.4644 8.79772C11.4021 7.86004 12.6739 7.33325 14 7.33325Z" fill="#202932"/>
<path d="M5.6663 8.1665H2.33296V18.1665H5.6663V8.1665Z" fill="#202932"/>
<path d="M3.99963 5.66659C4.9201 5.66659 5.6663 4.92039 5.6663 3.99992C5.6663 3.07944 4.9201 2.33325 3.99963 2.33325C3.07915 2.33325 2.33296 3.07944 2.33296 3.99992C2.33296 4.92039 3.07915 5.66659 3.99963 5.66659Z" fill="#202932"/>
</svg>
