<svg width="22" height="21" viewBox="0 0 22 21" fill="none" xmlns="http://www.w3.org/2000/svg">
<g clip-path="url(#clip0_1_297)">
<path d="M12.2512 10.3721C12.2512 13.5194 9.62056 16.0708 6.37568 16.0708C3.1308 16.0708 0.499954 13.5188 0.499954 10.3721C0.499954 7.22536 3.1306 4.67322 6.37568 4.67322C9.62076 4.67322 12.2512 7.22479 12.2512 10.3721Z" fill="#202932"/>
<path d="M18.6968 10.372C18.6968 13.3345 17.3815 15.737 15.759 15.737C14.1364 15.737 12.8211 13.3345 12.8211 10.372C12.8211 7.4095 14.1362 5.00696 15.7588 5.00696C17.3813 5.00696 18.6966 7.40873 18.6966 10.372" fill="#202932"/>
<path d="M21.3333 10.3722C21.3333 13.0258 20.8707 15.1784 20.3 15.1784C19.7293 15.1784 19.267 13.0264 19.267 10.3722C19.267 7.7179 19.7295 5.56592 20.3 5.56592C20.8705 5.56592 21.3333 7.7177 21.3333 10.3722Z" fill="#202932"/>
</g>
<defs>
<clipPath id="clip0_1_297">
<rect width="20.8333" height="20.0321" fill="white" transform="translate(0.499954 0.499878)"/>
</clipPath>
</defs>
</svg>
