<svg width="21" height="19" viewBox="0 0 21 19" fill="none" xmlns="http://www.w3.org/2000/svg">
<path d="M20.8331 8.84661C20.8331 7.40169 19.6618 6.2304 18.2168 6.2304C17.4932 6.2304 16.8395 6.52542 16.366 7.00035C14.9029 6.05674 13.0338 5.45541 10.9809 5.3616C10.9822 4.48998 11.3726 3.67746 12.0526 3.13194C12.7338 2.58549 13.6136 2.38085 14.4658 2.57013L14.5828 2.59611C14.5817 2.62544 14.5784 2.65419 14.5784 2.68382C14.5784 3.88996 15.5562 4.86776 16.7624 4.86776C17.9685 4.86776 18.9463 3.88996 18.9463 2.68382C18.9463 1.47762 17.9685 0.499878 16.7624 0.499878C15.9868 0.499878 15.3074 0.905288 14.9199 1.51457L14.7106 1.46807C13.5223 1.20404 12.2959 1.4895 11.3462 2.25135C10.3977 3.01229 9.85334 4.14576 9.85208 5.3616C7.79972 5.45536 5.93092 6.0564 4.46801 6.99958C3.99448 6.52455 3.33977 6.23035 2.61598 6.23035C1.17111 6.2304 -0.000228882 7.40169 -0.000228882 8.84661C-0.000228882 9.85335 0.56944 10.7255 1.40314 11.1629C1.33983 11.4868 1.30652 11.8179 1.30652 12.155C1.30652 15.9142 5.38515 18.9616 10.4164 18.9616C15.4477 18.9616 19.5263 15.9142 19.5263 12.155C19.5263 11.8181 19.493 11.4871 19.4298 11.1634C20.2635 10.7259 20.8331 9.85345 20.8331 8.84661ZM16.7624 1.62879C17.3442 1.62879 17.8174 2.10208 17.8174 2.68387C17.8174 3.26561 17.3442 3.73889 16.7624 3.73889C16.1806 3.73889 15.7073 3.26561 15.7073 2.68387C15.7073 2.10208 16.1806 1.62879 16.7624 1.62879ZM1.12864 8.84661C1.12864 8.02648 1.79585 7.35927 2.61598 7.35927C2.96723 7.35927 3.28964 7.48232 3.54403 7.68691C2.74834 8.36954 2.13232 9.17198 1.74984 10.053C1.3742 9.78324 1.12864 9.34356 1.12864 8.84661ZM16.1824 16.0637C14.6556 17.2044 12.6079 17.8327 10.4165 17.8327C8.22506 17.8327 6.1773 17.2044 4.6505 16.0637C3.22211 14.9964 2.43543 13.6083 2.43543 12.155C2.43543 10.7016 3.22211 9.31345 4.6505 8.24621C6.1773 7.10541 8.22506 6.47713 10.4165 6.47713C12.6079 6.47713 14.6556 7.10541 16.1824 8.24621C17.6108 9.31345 18.3975 10.7016 18.3975 12.155C18.3974 13.6083 17.6108 14.9964 16.1824 16.0637ZM19.0827 10.0524C18.7001 9.17144 18.0842 8.36925 17.2886 7.68672C17.543 7.48212 17.8656 7.35927 18.2169 7.35927C19.037 7.35927 19.7042 8.02648 19.7042 8.84661C19.7042 9.34351 19.4583 9.78266 19.0827 10.0524Z" fill="#202932"/>
<path d="M7.08867 11.7568C7.74656 11.7568 8.27989 11.2235 8.27989 10.5656C8.27989 9.90771 7.74656 9.37439 7.08867 9.37439C6.43079 9.37439 5.89746 9.90771 5.89746 10.5656C5.89746 11.2235 6.43079 11.7568 7.08867 11.7568Z" fill="#202932"/>
<path d="M13.7439 11.7568C14.4018 11.7568 14.9351 11.2235 14.9351 10.5656C14.9351 9.90771 14.4018 9.37439 13.7439 9.37439C13.086 9.37439 12.5527 9.90771 12.5527 10.5656C12.5527 11.2235 13.086 11.7568 13.7439 11.7568Z" fill="#202932"/>
<path d="M13.2392 13.4598C12.3995 14.2249 11.3109 14.6462 10.1739 14.6462C8.89728 14.6462 7.71445 14.1317 6.84337 13.1975C6.63082 12.9694 6.27365 12.957 6.04564 13.1696C5.81763 13.3821 5.80517 13.7394 6.01776 13.9673C7.08898 15.1161 8.60386 15.775 10.174 15.775C11.5929 15.775 12.9514 15.2491 13.9995 14.2942C14.2299 14.0843 14.2465 13.7272 14.0366 13.4969C13.8267 13.2666 13.4699 13.2497 13.2392 13.4598Z" fill="#202932"/>
</svg>
