<svg width="13" height="24" viewBox="0 0 13 24" fill="none" xmlns="http://www.w3.org/2000/svg">
<path d="M2.04517 23.9912C1.65419 23.992 1.2753 23.8558 0.974248 23.6063C0.804811 23.4659 0.664752 23.2933 0.562091 23.0987C0.45943 22.904 0.396186 22.6909 0.375979 22.4718C0.355772 22.2526 0.379001 22.0316 0.444335 21.8214C0.509668 21.6113 0.615821 21.416 0.756717 21.247L8.25315 12.278L1.02445 3.29235C0.885453 3.12119 0.781655 2.92425 0.71902 2.71284C0.656385 2.50144 0.636148 2.27974 0.659473 2.06049C0.682798 1.84124 0.749223 1.62876 0.854932 1.43526C0.960641 1.24176 1.10355 1.07107 1.27544 0.932981C1.44857 0.780649 1.65132 0.665747 1.87096 0.595487C2.09061 0.525226 2.3224 0.501124 2.5518 0.524692C2.7812 0.548261 3.00325 0.618991 3.20402 0.732445C3.40479 0.845898 3.57994 0.999625 3.71848 1.18398L11.8006 11.2238C12.0467 11.5232 12.1812 11.8988 12.1812 12.2864C12.1812 12.674 12.0467 13.0495 11.8006 13.3489L3.43401 23.3888C3.26615 23.5913 3.05292 23.7514 2.81161 23.856C2.5703 23.9607 2.30772 24.007 2.04517 23.9912Z" fill="#2ADACC"/>
</svg>
