<svg width="143" height="167" viewBox="0 0 143 167" fill="none" xmlns="http://www.w3.org/2000/svg">
<g filter="url(#filter0_b_1_205)">
<rect x="0.900391" y="0.212646" width="141.381" height="166.331" rx="12.4748" fill="url(#paint0_linear_1_205)" fill-opacity="0.58"/>
<rect x="1.1083" y="0.42056" width="140.965" height="165.915" rx="12.2669" stroke="url(#paint1_linear_1_205)" stroke-width="0.415826"/>
</g>
<g filter="url(#filter1_b_1_205)">
<rect x="7.55371" y="14.3508" width="128.075" height="23.2863" rx="3.32661" fill="url(#paint2_linear_1_205)" fill-opacity="0.58"/>
<rect x="7.76162" y="14.5587" width="127.659" height="22.8705" rx="3.1187" stroke="url(#paint3_linear_1_205)" stroke-width="0.415826"/>
</g>
<g filter="url(#filter2_b_1_205)">
<rect x="7.55371" y="43.0428" width="128.075" height="23.2863" rx="3.32661" fill="url(#paint4_linear_1_205)" fill-opacity="0.58"/>
<rect x="7.76162" y="43.2508" width="127.659" height="22.8705" rx="3.1187" stroke="url(#paint5_linear_1_205)" stroke-width="0.415826"/>
</g>
<g filter="url(#filter3_b_1_205)">
<rect x="7.55371" y="71.7349" width="128.075" height="23.2863" rx="3.32661" fill="url(#paint6_linear_1_205)" fill-opacity="0.58"/>
<rect x="7.76162" y="71.9428" width="127.659" height="22.8705" rx="3.1187" stroke="url(#paint7_linear_1_205)" stroke-width="0.415826"/>
</g>
<g filter="url(#filter4_b_1_205)">
<rect x="7.55371" y="100.427" width="128.075" height="23.2863" rx="3.32661" fill="url(#paint8_linear_1_205)" fill-opacity="0.58"/>
<rect x="7.76162" y="100.635" width="127.659" height="22.8705" rx="3.1187" stroke="url(#paint9_linear_1_205)" stroke-width="0.415826"/>
</g>
<g filter="url(#filter5_b_1_205)">
<rect x="7.55371" y="129.119" width="128.075" height="23.2863" rx="3.32661" fill="url(#paint10_linear_1_205)" fill-opacity="0.58"/>
<rect x="7.76162" y="129.327" width="127.659" height="22.8705" rx="3.1187" stroke="url(#paint11_linear_1_205)" stroke-width="0.415826"/>
</g>
<path d="M29.7744 20.8878V29.7566H27.6425L24.5055 24.238V29.7566H22.3675V20.8878H24.5055L27.6425 26.4064V20.8878H29.7744ZM34.9946 22.7517L32.8322 29.7566H30.5358L33.7946 20.8878H35.2504L34.9946 22.7517ZM36.7854 29.7566L34.617 22.7517L34.3368 20.8878H35.8108L39.0879 29.7566H36.7854ZM36.7001 26.4491V28.0998H32.15V26.4491H36.7001ZM44.3081 27.3993C44.3081 27.2612 44.2878 27.1374 44.2472 27.0277C44.2065 26.914 44.1314 26.8084 44.0218 26.711C43.9121 26.6135 43.7538 26.5161 43.5467 26.4186C43.3436 26.3171 43.0756 26.2115 42.7426 26.1019C42.3528 25.9719 41.9772 25.8257 41.6158 25.6633C41.2543 25.4968 40.9315 25.3039 40.6472 25.0846C40.363 24.8613 40.1376 24.6014 39.9711 24.305C39.8046 24.0045 39.7214 23.6552 39.7214 23.2573C39.7214 22.8756 39.8067 22.5324 39.9772 22.2279C40.1478 21.9192 40.3853 21.6573 40.6899 21.4421C40.9985 21.2228 41.3599 21.0563 41.7741 20.9426C42.1883 20.8248 42.6411 20.766 43.1325 20.766C43.7822 20.766 44.3548 20.8797 44.8502 21.1071C45.3497 21.3304 45.7395 21.6492 46.0197 22.0634C46.304 22.4735 46.4461 22.9588 46.4461 23.5192H44.3202C44.3202 23.2958 44.2735 23.0989 44.1801 22.9283C44.0908 22.7578 43.9548 22.6238 43.772 22.5263C43.5893 22.4289 43.3599 22.3801 43.0837 22.3801C42.8157 22.3801 42.5903 22.4207 42.4076 22.502C42.2249 22.5832 42.0868 22.6928 41.9934 22.8309C41.9 22.9649 41.8533 23.1131 41.8533 23.2755C41.8533 23.4096 41.8899 23.5314 41.9629 23.641C42.0401 23.7466 42.1477 23.8461 42.2858 23.9395C42.4279 24.0329 42.5985 24.1222 42.7974 24.2075C43.0005 24.2928 43.2279 24.376 43.4797 24.4572C43.9507 24.6075 44.369 24.776 44.7344 24.9628C45.104 25.1455 45.4146 25.3547 45.6664 25.5902C45.9222 25.8217 46.1151 26.0856 46.2451 26.3821C46.3791 26.6785 46.4461 27.0135 46.4461 27.3871C46.4461 27.7851 46.3689 28.1384 46.2146 28.447C46.0603 28.7556 45.839 29.0175 45.5507 29.2327C45.2624 29.4439 44.9172 29.6043 44.5152 29.714C44.1131 29.8236 43.6644 29.8784 43.169 29.8784C42.7142 29.8784 42.2655 29.8216 41.8229 29.7079C41.3843 29.5901 40.9863 29.4114 40.629 29.1718C40.2716 28.9282 39.9853 28.6175 39.7701 28.2399C39.559 27.8582 39.4534 27.4054 39.4534 26.8815H41.5975C41.5975 27.1414 41.632 27.3607 41.701 27.5394C41.7701 27.7181 41.8716 27.8622 42.0056 27.9719C42.1396 28.0774 42.3041 28.1546 42.499 28.2033C42.6939 28.248 42.9172 28.2703 43.169 28.2703C43.4411 28.2703 43.6604 28.2318 43.8269 28.1546C43.9934 28.0734 44.1152 27.9678 44.1923 27.8379C44.2695 27.7039 44.3081 27.5577 44.3081 27.3993ZM50.4297 29.7566H48.4623L48.4745 28.112H50.4297C50.8358 28.112 51.1789 28.0145 51.4591 27.8196C51.7434 27.6247 51.9586 27.3343 52.1048 26.9485C52.2551 26.5587 52.3302 26.0795 52.3302 25.511V25.1273C52.3302 24.7009 52.2875 24.3273 52.2023 24.0065C52.1211 23.6816 51.9992 23.4116 51.8368 23.1964C51.6744 22.9771 51.4713 22.8126 51.2277 22.703C50.9881 22.5933 50.712 22.5385 50.3993 22.5385H48.4257V20.8878H50.3993C51.0003 20.8878 51.5505 20.9913 52.05 21.1984C52.5535 21.4015 52.988 21.6939 53.3535 22.0756C53.723 22.4532 54.0073 22.902 54.2063 23.4217C54.4093 23.9375 54.5108 24.51 54.5108 25.1395V25.511C54.5108 26.1364 54.4093 26.709 54.2063 27.2287C54.0073 27.7485 53.7251 28.1972 53.3596 28.5749C52.9941 28.9526 52.5617 29.2449 52.0622 29.452C51.5668 29.6551 51.0226 29.7566 50.4297 29.7566ZM49.6866 20.8878V29.7566H47.5486V20.8878H49.6866ZM59.2498 22.7517L57.0874 29.7566H54.791L58.0498 20.8878H59.5056L59.2498 22.7517ZM61.0406 29.7566L58.8721 22.7517L58.5919 20.8878H60.066L63.3431 29.7566H61.0406ZM60.9553 26.4491V28.0998H56.4052V26.4491H60.9553ZM68.8069 28.2947L71.2799 30.2561L69.9521 31.3769L67.5217 29.4155L68.8069 28.2947ZM71.3835 25.1455V25.5049C71.3835 26.1831 71.2881 26.7922 71.0972 27.3323C70.9104 27.8683 70.6424 28.3272 70.2932 28.7089C69.948 29.0866 69.5399 29.3769 69.0688 29.5799C68.5978 29.7789 68.078 29.8784 67.5095 29.8784C66.9369 29.8784 66.4131 29.7789 65.9379 29.5799C65.4669 29.3769 65.0568 29.0866 64.7075 28.7089C64.3624 28.3272 64.0943 27.8683 63.9035 27.3323C63.7167 26.7922 63.6233 26.1831 63.6233 25.5049V25.1455C63.6233 24.4674 63.7167 23.8583 63.9035 23.3182C64.0943 22.7781 64.3603 22.3192 64.7014 21.9416C65.0466 21.5599 65.4547 21.2695 65.9258 21.0705C66.4009 20.8675 66.9247 20.766 67.4973 20.766C68.0658 20.766 68.5856 20.8675 69.0566 21.0705C69.5318 21.2695 69.9419 21.5599 70.2871 21.9416C70.6363 22.3192 70.9063 22.7781 71.0972 23.3182C71.2881 23.8583 71.3835 24.4674 71.3835 25.1455ZM69.2089 25.5049V25.1334C69.2089 24.6948 69.1703 24.309 69.0932 23.976C69.0201 23.639 68.9105 23.3568 68.7643 23.1294C68.6181 22.902 68.4374 22.7314 68.2221 22.6177C68.011 22.4999 67.7694 22.4411 67.4973 22.4411C67.213 22.4411 66.9653 22.4999 66.7542 22.6177C66.543 22.7314 66.3664 22.902 66.2242 23.1294C66.0821 23.3568 65.9745 23.639 65.9014 23.976C65.8324 24.309 65.7978 24.6948 65.7978 25.1334V25.5049C65.7978 25.9394 65.8324 26.3252 65.9014 26.6623C65.9745 26.9952 66.0821 27.2775 66.2242 27.5089C66.3704 27.7404 66.5491 27.915 66.7603 28.0328C66.9755 28.1505 67.2252 28.2094 67.5095 28.2094C67.7816 28.2094 68.0232 28.1505 68.2343 28.0328C68.4455 27.915 68.6221 27.7404 68.7643 27.5089C68.9105 27.2775 69.0201 26.9952 69.0932 26.6623C69.1703 26.3252 69.2089 25.9394 69.2089 25.5049Z" fill="white"/>
<path d="M26.9359 56.0913C26.9359 55.9532 26.9156 55.8294 26.875 55.7197C26.8344 55.606 26.7593 55.5005 26.6497 55.403C26.54 55.3055 26.3816 55.2081 26.1745 55.1106C25.9715 55.0091 25.7035 54.9035 25.3705 54.7939C24.9807 54.6639 24.605 54.5177 24.2436 54.3553C23.8822 54.1888 23.5594 53.9959 23.2751 53.7767C22.9909 53.5533 22.7655 53.2934 22.599 52.997C22.4325 52.6965 22.3493 52.3472 22.3493 51.9493C22.3493 51.5676 22.4345 51.2244 22.6051 50.9199C22.7756 50.6113 23.0132 50.3493 23.3178 50.1341C23.6264 49.9148 23.9878 49.7483 24.402 49.6346C24.8162 49.5169 25.269 49.458 25.7603 49.458C26.4101 49.458 26.9826 49.5717 27.4781 49.7991C27.9775 50.0224 28.3674 50.3412 28.6476 50.7554C28.9318 51.1656 29.074 51.6508 29.074 52.2112H26.9481C26.9481 51.9879 26.9014 51.7909 26.808 51.6204C26.7187 51.4498 26.5826 51.3158 26.3999 51.2183C26.2172 51.1209 25.9877 51.0722 25.7116 51.0722C25.4436 51.0722 25.2182 51.1128 25.0355 51.194C24.8527 51.2752 24.7147 51.3848 24.6213 51.5229C24.5279 51.6569 24.4812 51.8051 24.4812 51.9676C24.4812 52.1016 24.5177 52.2234 24.5908 52.333C24.668 52.4386 24.7756 52.5381 24.9137 52.6315C25.0558 52.7249 25.2263 52.8142 25.4253 52.8995C25.6284 52.9848 25.8558 53.068 26.1075 53.1493C26.5786 53.2995 26.9968 53.468 27.3623 53.6548C27.7319 53.8376 28.0425 54.0467 28.2943 54.2822C28.5501 54.5137 28.743 54.7776 28.8729 55.0741C29.0069 55.3705 29.074 55.7055 29.074 56.0791C29.074 56.4771 28.9968 56.8304 28.8425 57.139C28.6882 57.4476 28.4669 57.7095 28.1785 57.9248C27.8902 58.1359 27.5451 58.2963 27.143 58.406C26.741 58.5156 26.2923 58.5704 25.7969 58.5704C25.3421 58.5704 24.8934 58.5136 24.4507 58.3999C24.0122 58.2821 23.6142 58.1034 23.2568 57.8639C22.8995 57.6202 22.6132 57.3096 22.398 56.9319C22.1868 56.5502 22.0812 56.0974 22.0812 55.5736H24.2253C24.2253 55.8334 24.2599 56.0527 24.3289 56.2314C24.3979 56.4101 24.4995 56.5542 24.6335 56.6639C24.7675 56.7695 24.9319 56.8466 25.1268 56.8954C25.3218 56.94 25.5451 56.9624 25.7969 56.9624C26.069 56.9624 26.2882 56.9238 26.4547 56.8466C26.6212 56.7654 26.743 56.6598 26.8202 56.5299C26.8974 56.3959 26.9359 56.2497 26.9359 56.0913ZM31.3764 53.7888L33.2586 52.6132C33.5104 52.4508 33.6647 52.2985 33.7215 52.1564C33.7825 52.0102 33.8129 51.8681 33.8129 51.73C33.8129 51.5635 33.752 51.4072 33.6302 51.261C33.5124 51.1107 33.3459 51.0356 33.1307 51.0356C32.9723 51.0356 32.8383 51.0722 32.7287 51.1452C32.6231 51.2143 32.5419 51.3077 32.485 51.4254C32.4322 51.5432 32.4058 51.6752 32.4058 51.8214C32.4058 52.0041 32.4566 52.1889 32.5581 52.3757C32.6596 52.5625 32.7936 52.7594 32.9601 52.9665C33.1307 53.1736 33.3195 53.401 33.5266 53.6487L37.6991 58.4486H35.4088L32.0099 54.5868C31.7297 54.2294 31.4861 53.9005 31.279 53.6C31.0759 53.2995 30.9176 53.0071 30.8039 52.7229C30.6902 52.4386 30.6333 52.1462 30.6333 51.8457C30.6333 51.3787 30.7348 50.9666 30.9379 50.6092C31.145 50.2478 31.4353 49.9656 31.8089 49.7625C32.1866 49.5554 32.6292 49.4519 33.1368 49.4519C33.6078 49.4519 34.016 49.5494 34.3611 49.7443C34.7103 49.9392 34.9804 50.1991 35.1713 50.5239C35.3621 50.8447 35.4575 51.198 35.4575 51.5838C35.4575 51.8518 35.4068 52.1056 35.3053 52.3452C35.2037 52.5848 35.0636 52.8041 34.885 53.0031C34.7103 53.202 34.5093 53.3828 34.2819 53.5452L32.2475 54.9644C32.1663 55.066 32.0993 55.1695 32.0465 55.2751C31.9977 55.3766 31.9612 55.4802 31.9368 55.5857C31.9165 55.6913 31.9064 55.805 31.9064 55.9268C31.9064 56.138 31.951 56.3248 32.0404 56.4872C32.1297 56.6456 32.2475 56.7695 32.3937 56.8588C32.5439 56.9481 32.7063 56.9928 32.881 56.9928C33.2099 56.9928 33.5266 56.9217 33.8312 56.7796C34.1398 56.6334 34.4159 56.4284 34.6596 56.1644C34.9032 55.9005 35.0961 55.5857 35.2383 55.2203C35.3804 54.8548 35.4514 54.4528 35.4514 54.0142H37.1692C37.1692 54.4934 37.1204 54.9502 37.023 55.3847C36.9296 55.8152 36.7732 56.2131 36.554 56.5786C36.3387 56.9441 36.0484 57.2649 35.6829 57.541C35.6626 57.5532 35.624 57.5776 35.5672 57.6141C35.5144 57.6466 35.4758 57.6689 35.4514 57.6811C35.0251 57.9857 34.6048 58.2111 34.1906 58.3572C33.7764 58.5034 33.2931 58.5765 32.7409 58.5765C32.1439 58.5765 31.6282 58.4689 31.1937 58.2537C30.7632 58.0385 30.4303 57.742 30.1947 57.3644C29.9592 56.9867 29.8414 56.5542 29.8414 56.0669C29.8414 55.7218 29.9064 55.4213 30.0364 55.1654C30.1663 54.9056 30.347 54.666 30.5785 54.4467C30.8099 54.2274 31.0759 54.0081 31.3764 53.7888ZM42.1335 55.4396H39.9285V53.7888H42.1335C42.434 53.7888 42.6777 53.7381 42.8644 53.6366C43.0512 53.535 43.1873 53.3949 43.2726 53.2163C43.3619 53.0335 43.4066 52.8285 43.4066 52.601C43.4066 52.3574 43.3619 52.132 43.2726 51.9249C43.1873 51.7178 43.0512 51.5513 42.8644 51.4254C42.6777 51.2955 42.434 51.2305 42.1335 51.2305H40.7325V58.4486H38.5945V49.5798H42.1335C42.8441 49.5798 43.4553 49.7098 43.967 49.9696C44.4827 50.2295 44.8786 50.5869 45.1547 51.0417C45.4309 51.4924 45.5689 52.0082 45.5689 52.5889C45.5689 53.1614 45.4309 53.6609 45.1547 54.0873C44.8786 54.5137 44.4827 54.8467 43.967 55.0863C43.4553 55.3218 42.8441 55.4396 42.1335 55.4396ZM51.4531 54.4954L49.8206 54.1117L50.3566 49.5798H55.5403V51.1757H52.0317L51.8307 52.9361C51.9282 52.8792 52.0926 52.8122 52.3241 52.7351C52.5596 52.6538 52.8195 52.6132 53.1038 52.6132C53.5423 52.6132 53.9301 52.6802 54.2672 52.8142C54.6083 52.9442 54.8966 53.1371 55.1321 53.3929C55.3677 53.6447 55.5443 53.9553 55.6621 54.3249C55.7839 54.6944 55.8448 55.1167 55.8448 55.5918C55.8448 55.9735 55.7819 56.3431 55.656 56.7004C55.5342 57.0537 55.3453 57.3725 55.0895 57.6568C54.8377 57.9369 54.519 58.1603 54.1332 58.3268C53.7474 58.4892 53.2906 58.5704 52.7627 58.5704C52.3688 58.5704 51.985 58.5095 51.6114 58.3877C51.2378 58.2659 50.9008 58.0913 50.6003 57.8639C50.3038 57.6324 50.0683 57.3542 49.8937 57.0294C49.7231 56.7004 49.6399 56.3329 49.644 55.9268H51.7089C51.7211 56.1421 51.7718 56.3289 51.8612 56.4872C51.9505 56.6456 52.0703 56.7695 52.2205 56.8588C52.3749 56.9441 52.5515 56.9867 52.7505 56.9867C52.9535 56.9867 53.122 56.9461 53.2561 56.8649C53.3901 56.7837 53.4956 56.672 53.5728 56.5299C53.6499 56.3877 53.7048 56.2253 53.7373 56.0426C53.7697 55.8558 53.786 55.6588 53.786 55.4517C53.786 55.2325 53.7616 55.0355 53.7129 54.8609C53.6682 54.6863 53.5951 54.5381 53.4936 54.4162C53.3921 54.2903 53.2601 54.1949 53.0977 54.1299C52.9393 54.065 52.7484 54.0325 52.5251 54.0325C52.2287 54.0325 51.9952 54.0832 51.8246 54.1848C51.6541 54.2863 51.5302 54.3898 51.4531 54.4954ZM63.0934 53.2041V54.8243C63.0934 55.4619 63.0182 56.0162 62.868 56.4872C62.7218 56.9583 62.5106 57.3481 62.2345 57.6568C61.9624 57.9654 61.6376 58.1948 61.2599 58.3451C60.8822 58.4953 60.466 58.5704 60.0112 58.5704C59.6457 58.5704 59.3046 58.5237 58.9879 58.4303C58.6711 58.3329 58.3848 58.1867 58.129 57.9918C57.8772 57.7928 57.66 57.5451 57.4773 57.2486C57.2945 56.9522 57.1544 56.603 57.057 56.201C56.9595 55.7949 56.9108 55.336 56.9108 54.8243V53.2041C56.9108 52.5625 56.9839 52.0082 57.1301 51.5412C57.2803 51.0701 57.4935 50.6803 57.7696 50.3717C58.0458 50.063 58.3727 49.8336 58.7503 49.6834C59.128 49.5331 59.5442 49.458 59.999 49.458C60.3645 49.458 60.7036 49.5067 61.0163 49.6042C61.333 49.6976 61.6193 49.8438 61.8751 50.0427C62.1309 50.2377 62.3482 50.4833 62.5269 50.7798C62.7096 51.0762 62.8497 51.4275 62.9472 51.8336C63.0446 52.2356 63.0934 52.6924 63.0934 53.2041ZM61.0406 55.0741V52.9422C61.0406 52.6579 61.0244 52.4102 60.9919 52.199C60.9635 51.9879 60.9188 51.8092 60.8579 51.663C60.801 51.5168 60.73 51.399 60.6447 51.3097C60.5594 51.2163 60.462 51.1493 60.3523 51.1087C60.2467 51.064 60.129 51.0417 59.999 51.0417C59.8366 51.0417 59.6904 51.0762 59.5605 51.1452C59.4346 51.2102 59.327 51.3158 59.2376 51.462C59.1483 51.6082 59.0792 51.8031 59.0305 52.0467C58.9858 52.2904 58.9635 52.5889 58.9635 52.9422V55.0741C58.9635 55.3624 58.9777 55.6142 59.0062 55.8294C59.0386 56.0406 59.0833 56.2213 59.1402 56.3715C59.2011 56.5177 59.2742 56.6375 59.3594 56.7309C59.4447 56.8202 59.5422 56.8852 59.6518 56.9258C59.7615 56.9664 59.8813 56.9867 60.0112 56.9867C60.1696 56.9867 60.3117 56.9542 60.4376 56.8893C60.5635 56.8243 60.6711 56.7187 60.7604 56.5725C60.8538 56.4223 60.9229 56.2253 60.9675 55.9817C61.0163 55.734 61.0406 55.4314 61.0406 55.0741ZM70.3297 53.2041V54.8243C70.3297 55.4619 70.2546 56.0162 70.1043 56.4872C69.9581 56.9583 69.747 57.3481 69.4708 57.6568C69.1988 57.9654 68.8739 58.1948 68.4963 58.3451C68.1186 58.4953 67.7024 58.5704 67.2476 58.5704C66.8821 58.5704 66.541 58.5237 66.2242 58.4303C65.9075 58.3329 65.6212 58.1867 65.3654 57.9918C65.1136 57.7928 64.8963 57.5451 64.7136 57.2486C64.5309 56.9522 64.3908 56.603 64.2933 56.201C64.1959 55.7949 64.1471 55.336 64.1471 54.8243V53.2041C64.1471 52.5625 64.2202 52.0082 64.3664 51.5412C64.5167 51.0701 64.7299 50.6803 65.006 50.3717C65.2821 50.063 65.609 49.8336 65.9867 49.6834C66.3643 49.5331 66.7806 49.458 67.2354 49.458C67.6008 49.458 67.9399 49.5067 68.2526 49.6042C68.5693 49.6976 68.8556 49.8438 69.1115 50.0427C69.3673 50.2377 69.5846 50.4833 69.7632 50.7798C69.946 51.0762 70.0861 51.4275 70.1835 51.8336C70.281 52.2356 70.3297 52.6924 70.3297 53.2041ZM68.277 55.0741V52.9422C68.277 52.6579 68.2607 52.4102 68.2282 52.199C68.1998 51.9879 68.1551 51.8092 68.0942 51.663C68.0374 51.5168 67.9663 51.399 67.881 51.3097C67.7958 51.2163 67.6983 51.1493 67.5887 51.1087C67.4831 51.064 67.3653 51.0417 67.2354 51.0417C67.0729 51.0417 66.9268 51.0762 66.7968 51.1452C66.6709 51.2102 66.5633 51.3158 66.474 51.462C66.3846 51.6082 66.3156 51.8031 66.2669 52.0467C66.2222 52.2904 66.1999 52.5889 66.1999 52.9422V55.0741C66.1999 55.3624 66.2141 55.6142 66.2425 55.8294C66.275 56.0406 66.3197 56.2213 66.3765 56.3715C66.4374 56.5177 66.5105 56.6375 66.5958 56.7309C66.6811 56.8202 66.7785 56.8852 66.8882 56.9258C66.9978 56.9664 67.1176 56.9867 67.2476 56.9867C67.4059 56.9867 67.5481 56.9542 67.6739 56.8893C67.7998 56.8243 67.9074 56.7187 67.9968 56.5725C68.0902 56.4223 68.1592 56.2253 68.2039 55.9817C68.2526 55.734 68.277 55.4314 68.277 55.0741Z" fill="white"/>
<path d="M27.4111 84.1375H29.543C29.5145 84.7548 29.3481 85.2989 29.0435 85.77C28.7389 86.241 28.3166 86.6085 27.7765 86.8725C27.2405 87.1324 26.607 87.2623 25.8761 87.2623C25.2832 87.2623 24.7533 87.1628 24.2863 86.9639C23.8233 86.7649 23.4294 86.4786 23.1046 86.105C22.7838 85.7314 22.5381 85.2786 22.3675 84.7467C22.201 84.2147 22.1178 83.6157 22.1178 82.9498V82.4685C22.1178 81.8026 22.2051 81.2036 22.3797 80.6716C22.5584 80.1356 22.8102 79.6808 23.135 79.3072C23.4639 78.9296 23.8578 78.6412 24.3167 78.4423C24.7756 78.2433 25.2852 78.1438 25.8456 78.1438C26.6172 78.1438 27.2689 78.2819 27.8009 78.558C28.3329 78.8341 28.745 79.2138 29.0374 79.697C29.3298 80.1762 29.5024 80.7224 29.5552 81.3356H27.4232C27.4151 81.0026 27.3583 80.7244 27.2527 80.5011C27.1471 80.2737 26.9806 80.1031 26.7532 79.9894C26.5258 79.8757 26.2233 79.8189 25.8456 79.8189C25.5817 79.8189 25.3522 79.8676 25.1573 79.9651C24.9624 80.0625 24.8 80.2168 24.67 80.428C24.5401 80.6392 24.4426 80.9133 24.3776 81.2503C24.3167 81.5833 24.2863 81.9853 24.2863 82.4564V82.9498C24.2863 83.4208 24.3147 83.8228 24.3715 84.1558C24.4284 84.4888 24.5198 84.7609 24.6456 84.972C24.7715 85.1832 24.934 85.3395 25.1329 85.4411C25.336 85.5385 25.5837 85.5872 25.8761 85.5872C26.2009 85.5872 26.475 85.5365 26.6984 85.435C26.9217 85.3294 27.0943 85.171 27.2161 84.9599C27.338 84.7446 27.4029 84.4705 27.4111 84.1375ZM34.1723 83.37H31.8881L31.8759 81.9691H33.7276C34.0606 81.9691 34.3266 81.9325 34.5256 81.8594C34.7246 81.7823 34.8687 81.6706 34.9581 81.5244C35.0515 81.3782 35.0982 81.1955 35.0982 80.9762C35.0982 80.7244 35.0515 80.5214 34.9581 80.3671C34.8647 80.2128 34.7164 80.1011 34.5134 80.0321C34.3144 79.959 34.0566 79.9224 33.7398 79.9224H32.6921V87.1405H30.5541V78.2717H33.7398C34.288 78.2717 34.7774 78.3225 35.2078 78.424C35.6382 78.5214 36.0037 78.6717 36.3042 78.8747C36.6088 79.0778 36.8402 79.3336 36.9986 79.6422C37.157 79.9468 37.2362 80.3062 37.2362 80.7204C37.2362 81.0818 37.159 81.4209 37.0047 81.7376C36.8504 82.0543 36.5925 82.3122 36.2311 82.5112C35.8738 82.7061 35.3844 82.8076 34.7631 82.8157L34.1723 83.37ZM34.087 87.1405H31.3703L32.1013 85.4959H34.087C34.3794 85.4959 34.6129 85.4512 34.7875 85.3619C34.9662 85.2685 35.0941 85.1466 35.1713 84.9964C35.2525 84.8421 35.2931 84.6715 35.2931 84.4847C35.2931 84.2573 35.2545 84.0604 35.1773 83.8939C35.1042 83.7274 34.9865 83.5995 34.8241 83.5101C34.6616 83.4167 34.4444 83.37 34.1723 83.37H32.3754L32.3876 81.9691H34.5378L35.0372 82.5295C35.6301 82.5051 36.0991 82.5883 36.4443 82.7792C36.7935 82.9701 37.0433 83.2218 37.1935 83.5345C37.3438 83.8472 37.4189 84.1741 37.4189 84.5152C37.4189 85.0959 37.293 85.5812 37.0413 85.971C36.7935 86.3608 36.422 86.6532 35.9266 86.8481C35.4311 87.043 34.818 87.1405 34.087 87.1405ZM46.1111 82.5295V82.8888C46.1111 83.567 46.0156 84.1761 45.8248 84.7162C45.638 85.2522 45.372 85.7111 45.0268 86.0928C44.6817 86.4705 44.2735 86.7608 43.8025 86.9639C43.3314 87.1628 42.8117 87.2623 42.2431 87.2623C41.6706 87.2623 41.1467 87.1628 40.6716 86.9639C40.2006 86.7608 39.7904 86.4705 39.4412 86.0928C39.096 85.7111 38.828 85.2522 38.6371 84.7162C38.4504 84.1761 38.357 83.567 38.357 82.8888V82.5295C38.357 81.8513 38.4504 81.2422 38.6371 80.7021C38.828 80.162 39.094 79.7031 39.4351 79.3255C39.7803 78.9438 40.1884 78.6534 40.6594 78.4544C41.1345 78.2514 41.6584 78.1499 42.231 78.1499C42.7995 78.1499 43.3193 78.2514 43.7903 78.4544C44.2654 78.6534 44.6756 78.9438 45.0207 79.3255C45.3659 79.7031 45.6339 80.162 45.8248 80.7021C46.0156 81.2422 46.1111 81.8513 46.1111 82.5295ZM43.9426 82.8888V82.5173C43.9426 82.0787 43.904 81.6929 43.8269 81.3599C43.7538 81.0229 43.6441 80.7407 43.4979 80.5133C43.3517 80.2859 43.171 80.1153 42.9558 80.0016C42.7447 79.8838 42.503 79.825 42.231 79.825C41.9467 79.825 41.699 79.8838 41.4878 80.0016C41.2767 80.1153 41.1 80.2859 40.9579 80.5133C40.8158 80.7407 40.7082 81.0229 40.6351 81.3599C40.566 81.6929 40.5315 82.0787 40.5315 82.5173V82.8888C40.5315 83.3233 40.566 83.7091 40.6351 84.0462C40.7082 84.3792 40.8158 84.6614 40.9579 84.8928C41.1041 85.1243 41.2828 85.2989 41.4939 85.4167C41.7091 85.5345 41.9589 85.5933 42.2431 85.5933C42.5152 85.5933 42.7568 85.5345 42.968 85.4167C43.1792 85.2989 43.3558 85.1243 43.4979 84.8928C43.6441 84.6614 43.7538 84.3792 43.8269 84.0462C43.904 83.7091 43.9426 83.3233 43.9426 82.8888ZM53.3231 85.4959V87.1405H48.5963V85.4959H53.3231ZM49.3577 78.2717V87.1405H47.2197V78.2717H49.3577ZM52.7139 81.7924V83.3822H48.5963V81.7924H52.7139ZM53.3413 78.2717V79.9224H48.5963V78.2717H53.3413Z" fill="white"/>
<path d="M25.9857 112.062H23.7015L23.6893 110.661H25.5411C25.874 110.661 26.14 110.625 26.339 110.552C26.538 110.474 26.6821 110.363 26.7715 110.217C26.8649 110.07 26.9116 109.888 26.9116 109.668C26.9116 109.417 26.8649 109.214 26.7715 109.059C26.6781 108.905 26.5299 108.793 26.3268 108.724C26.1278 108.651 25.87 108.615 25.5532 108.615H24.5055V115.833H22.3675V106.964H25.5532C26.1014 106.964 26.5908 107.015 27.0212 107.116C27.4517 107.214 27.8171 107.364 28.1176 107.567C28.4222 107.77 28.6537 108.026 28.812 108.334C28.9704 108.639 29.0496 108.998 29.0496 109.413C29.0496 109.774 28.9724 110.113 28.8181 110.43C28.6638 110.746 28.4059 111.004 28.0445 111.203C27.6872 111.398 27.1979 111.5 26.5766 111.508L25.9857 112.062ZM25.9004 115.833H23.1838L23.9147 114.188H25.9004C26.1928 114.188 26.4263 114.143 26.6009 114.054C26.7796 113.961 26.9075 113.839 26.9847 113.689C27.0659 113.534 27.1065 113.364 27.1065 113.177C27.1065 112.949 27.0679 112.753 26.9908 112.586C26.9177 112.42 26.7999 112.292 26.6375 112.202C26.475 112.109 26.2578 112.062 25.9857 112.062H24.1888L24.201 110.661H26.3512L26.8507 111.222C27.4435 111.197 27.9126 111.28 28.2577 111.471C28.607 111.662 28.8567 111.914 29.0069 112.227C29.1572 112.539 29.2323 112.866 29.2323 113.207C29.2323 113.788 29.1064 114.273 28.8547 114.663C28.607 115.053 28.2354 115.345 27.74 115.54C27.2446 115.735 26.6314 115.833 25.9004 115.833ZM32.6921 106.964V115.833H30.5602V106.964H32.6921ZM41.6036 106.964V115.833H39.4716L36.3347 110.314V115.833H34.1967V106.964H36.3347L39.4716 112.482V106.964H41.6036ZM46.8237 108.828L44.6614 115.833H42.365L45.6238 106.964H47.0796L46.8237 108.828ZM48.6145 115.833L46.4461 108.828L46.1659 106.964H47.64L50.917 115.833H48.6145ZM48.5293 112.525V114.176H43.9791V112.525H48.5293ZM58.9757 106.964V115.833H56.8438L53.7068 110.314V115.833H51.5688V106.964H53.7068L56.8438 112.482V106.964H58.9757ZM65.3715 112.83H67.5034C67.475 113.447 67.3085 113.991 67.0039 114.462C66.6993 114.933 66.277 115.301 65.7369 115.565C65.2009 115.825 64.5674 115.954 63.8365 115.954C63.2436 115.954 62.7137 115.855 62.2467 115.656C61.7837 115.457 61.3898 115.171 61.065 114.797C60.7442 114.424 60.4985 113.971 60.3279 113.439C60.1614 112.907 60.0782 112.308 60.0782 111.642V111.161C60.0782 110.495 60.1655 109.896 60.3401 109.364C60.5188 108.828 60.7706 108.373 61.0954 107.999C61.4244 107.622 61.8183 107.333 62.2771 107.134C62.736 106.935 63.2456 106.836 63.806 106.836C64.5776 106.836 65.2293 106.974 65.7613 107.25C66.2933 107.526 66.7054 107.906 66.9978 108.389C67.2902 108.868 67.4628 109.415 67.5156 110.028H65.3836C65.3755 109.695 65.3187 109.417 65.2131 109.193C65.1075 108.966 64.941 108.795 64.7136 108.682C64.4862 108.568 64.1837 108.511 63.806 108.511C63.5421 108.511 63.3126 108.56 63.1177 108.657C62.9228 108.755 62.7604 108.909 62.6304 109.12C62.5005 109.331 62.403 109.605 62.338 109.942C62.2771 110.275 62.2467 110.677 62.2467 111.149V111.642C62.2467 112.113 62.2751 112.515 62.3319 112.848C62.3888 113.181 62.4802 113.453 62.6061 113.664C62.7319 113.875 62.8944 114.032 63.0934 114.133C63.2964 114.231 63.5441 114.279 63.8365 114.279C64.1613 114.279 64.4354 114.229 64.6588 114.127C64.8821 114.022 65.0547 113.863 65.1765 113.652C65.2984 113.437 65.3633 113.163 65.3715 112.83ZM74.6179 114.188V115.833H69.8911V114.188H74.6179ZM70.6525 106.964V115.833H68.5145V106.964H70.6525ZM74.0088 110.485V112.074H69.8911V110.485H74.0088ZM74.6362 106.964V108.615H69.8911V106.964H74.6362Z" fill="white"/>
<path d="M24.5055 135.656V144.525H22.3675V135.656H24.5055ZM27.9532 139.347V140.992H23.8964V139.347H27.9532ZM28.3004 135.656V137.307H23.8964V135.656H28.3004ZM36.6941 139.914V140.273C36.6941 140.951 36.5986 141.56 36.4078 142.1C36.221 142.636 35.955 143.095 35.6098 143.477C35.2646 143.855 34.8565 144.145 34.3855 144.348C33.9144 144.547 33.3946 144.646 32.8261 144.646C32.2536 144.646 31.7297 144.547 31.2546 144.348C30.7836 144.145 30.3734 143.855 30.0242 143.477C29.679 143.095 29.411 142.636 29.2201 142.1C29.0333 141.56 28.9399 140.951 28.9399 140.273V139.914C28.9399 139.235 29.0333 138.626 29.2201 138.086C29.411 137.546 29.677 137.087 30.0181 136.71C30.3633 136.328 30.7714 136.038 31.2424 135.839C31.7175 135.636 32.2414 135.534 32.814 135.534C33.3825 135.534 33.9022 135.636 34.3733 135.839C34.8484 136.038 35.2586 136.328 35.6037 136.71C35.9489 137.087 36.2169 137.546 36.4078 138.086C36.5986 138.626 36.6941 139.235 36.6941 139.914ZM34.5256 140.273V139.901C34.5256 139.463 34.487 139.077 34.4098 138.744C34.3368 138.407 34.2271 138.125 34.0809 137.897C33.9347 137.67 33.754 137.499 33.5388 137.386C33.3276 137.268 33.086 137.209 32.814 137.209C32.5297 137.209 32.282 137.268 32.0708 137.386C31.8597 137.499 31.683 137.67 31.5409 137.897C31.3988 138.125 31.2912 138.407 31.2181 138.744C31.149 139.077 31.1145 139.463 31.1145 139.901V140.273C31.1145 140.708 31.149 141.093 31.2181 141.43C31.2912 141.763 31.3988 142.046 31.5409 142.277C31.6871 142.508 31.8658 142.683 32.0769 142.801C32.2921 142.919 32.5419 142.977 32.8261 142.977C33.0982 142.977 33.3398 142.919 33.551 142.801C33.7622 142.683 33.9388 142.508 34.0809 142.277C34.2271 142.046 34.3368 141.763 34.4098 141.43C34.487 141.093 34.5256 140.708 34.5256 140.273ZM37.8027 135.656H41.2929C41.9751 135.656 42.568 135.757 43.0715 135.96C43.5751 136.163 43.9629 136.464 44.235 136.862C44.5111 137.26 44.6492 137.751 44.6492 138.336C44.6492 138.844 44.57 139.268 44.4116 139.609C44.2532 139.95 44.0319 140.232 43.7477 140.456C43.4675 140.675 43.1406 140.856 42.767 140.998L42.0665 141.394H39.1366L39.1244 139.743H41.2929C41.565 139.743 41.7904 139.694 41.969 139.597C42.1477 139.499 42.2817 139.361 42.3711 139.183C42.4645 139 42.5112 138.783 42.5112 138.531C42.5112 138.275 42.4645 138.056 42.3711 137.873C42.2777 137.69 42.1396 137.55 41.9569 137.453C41.7782 137.355 41.5569 137.307 41.2929 137.307H39.9407V144.525H37.8027V135.656ZM42.6573 144.525L40.696 140.602L42.9619 140.59L44.9476 144.433V144.525H42.6573ZM52.0439 142.88V144.525H47.3171V142.88H52.0439ZM48.0785 135.656V144.525H45.9405V135.656H48.0785ZM51.4348 139.177V140.766H47.3171V139.177H51.4348ZM52.0622 135.656V137.307H47.3171V135.656H52.0622ZM54.7789 135.656L56.2286 138.604L57.6783 135.656H60.1148L57.6417 140.054L60.1818 144.525H57.7209L56.2286 141.522L54.7362 144.525H52.2693L54.8154 140.054L52.3363 135.656H54.7789Z" fill="white"/>
<defs>
<filter id="filter0_b_1_205" x="-2.01039" y="-2.69814" width="147.203" height="172.152" filterUnits="userSpaceOnUse" color-interpolation-filters="sRGB">
<feFlood flood-opacity="0" result="BackgroundImageFix"/>
<feGaussianBlur in="BackgroundImageFix" stdDeviation="1.45539"/>
<feComposite in2="SourceAlpha" operator="in" result="effect1_backgroundBlur_1_205"/>
<feBlend mode="normal" in="SourceGraphic" in2="effect1_backgroundBlur_1_205" result="shape"/>
</filter>
<filter id="filter1_b_1_205" x="4.64293" y="11.44" width="133.896" height="29.1079" filterUnits="userSpaceOnUse" color-interpolation-filters="sRGB">
<feFlood flood-opacity="0" result="BackgroundImageFix"/>
<feGaussianBlur in="BackgroundImageFix" stdDeviation="1.45539"/>
<feComposite in2="SourceAlpha" operator="in" result="effect1_backgroundBlur_1_205"/>
<feBlend mode="normal" in="SourceGraphic" in2="effect1_backgroundBlur_1_205" result="shape"/>
</filter>
<filter id="filter2_b_1_205" x="4.64293" y="40.1321" width="133.896" height="29.1078" filterUnits="userSpaceOnUse" color-interpolation-filters="sRGB">
<feFlood flood-opacity="0" result="BackgroundImageFix"/>
<feGaussianBlur in="BackgroundImageFix" stdDeviation="1.45539"/>
<feComposite in2="SourceAlpha" operator="in" result="effect1_backgroundBlur_1_205"/>
<feBlend mode="normal" in="SourceGraphic" in2="effect1_backgroundBlur_1_205" result="shape"/>
</filter>
<filter id="filter3_b_1_205" x="4.64293" y="68.8241" width="133.896" height="29.1078" filterUnits="userSpaceOnUse" color-interpolation-filters="sRGB">
<feFlood flood-opacity="0" result="BackgroundImageFix"/>
<feGaussianBlur in="BackgroundImageFix" stdDeviation="1.45539"/>
<feComposite in2="SourceAlpha" operator="in" result="effect1_backgroundBlur_1_205"/>
<feBlend mode="normal" in="SourceGraphic" in2="effect1_backgroundBlur_1_205" result="shape"/>
</filter>
<filter id="filter4_b_1_205" x="4.64293" y="97.5161" width="133.896" height="29.1078" filterUnits="userSpaceOnUse" color-interpolation-filters="sRGB">
<feFlood flood-opacity="0" result="BackgroundImageFix"/>
<feGaussianBlur in="BackgroundImageFix" stdDeviation="1.45539"/>
<feComposite in2="SourceAlpha" operator="in" result="effect1_backgroundBlur_1_205"/>
<feBlend mode="normal" in="SourceGraphic" in2="effect1_backgroundBlur_1_205" result="shape"/>
</filter>
<filter id="filter5_b_1_205" x="4.64293" y="126.208" width="133.896" height="29.1078" filterUnits="userSpaceOnUse" color-interpolation-filters="sRGB">
<feFlood flood-opacity="0" result="BackgroundImageFix"/>
<feGaussianBlur in="BackgroundImageFix" stdDeviation="1.45539"/>
<feComposite in2="SourceAlpha" operator="in" result="effect1_backgroundBlur_1_205"/>
<feBlend mode="normal" in="SourceGraphic" in2="effect1_backgroundBlur_1_205" result="shape"/>
</filter>
<linearGradient id="paint0_linear_1_205" x1="0.90039" y1="7.2971" x2="175.347" y2="63.0093" gradientUnits="userSpaceOnUse">
<stop stop-color="#857AFE"/>
<stop offset="1" stop-color="#FFFCFC" stop-opacity="0"/>
</linearGradient>
<linearGradient id="paint1_linear_1_205" x1="6.64092" y1="0.212652" x2="176.168" y2="60.9174" gradientUnits="userSpaceOnUse">
<stop stop-color="white"/>
<stop offset="1" stop-color="white" stop-opacity="0"/>
</linearGradient>
<linearGradient id="paint2_linear_1_205" x1="7.55371" y1="15.3426" x2="40.5962" y2="83.6244" gradientUnits="userSpaceOnUse">
<stop stop-color="#2243AB"/>
<stop offset="1" stop-color="#6774C3"/>
</linearGradient>
<linearGradient id="paint3_linear_1_205" x1="12.754" y1="14.3508" x2="39.9601" y2="77.3876" gradientUnits="userSpaceOnUse">
<stop stop-color="white"/>
<stop offset="1" stop-color="white" stop-opacity="0"/>
</linearGradient>
<linearGradient id="paint4_linear_1_205" x1="7.55371" y1="44.0347" x2="40.5962" y2="112.316" gradientUnits="userSpaceOnUse">
<stop stop-color="#2243AB"/>
<stop offset="1" stop-color="#6774C3"/>
</linearGradient>
<linearGradient id="paint5_linear_1_205" x1="12.754" y1="43.0428" x2="39.9601" y2="106.08" gradientUnits="userSpaceOnUse">
<stop stop-color="white"/>
<stop offset="1" stop-color="white" stop-opacity="0"/>
</linearGradient>
<linearGradient id="paint6_linear_1_205" x1="7.55371" y1="72.7267" x2="40.5962" y2="141.008" gradientUnits="userSpaceOnUse">
<stop stop-color="#2243AB"/>
<stop offset="1" stop-color="#6774C3"/>
</linearGradient>
<linearGradient id="paint7_linear_1_205" x1="12.754" y1="71.7349" x2="39.9601" y2="134.772" gradientUnits="userSpaceOnUse">
<stop stop-color="white"/>
<stop offset="1" stop-color="white" stop-opacity="0"/>
</linearGradient>
<linearGradient id="paint8_linear_1_205" x1="7.55371" y1="101.419" x2="40.5962" y2="169.7" gradientUnits="userSpaceOnUse">
<stop stop-color="#2243AB"/>
<stop offset="1" stop-color="#6774C3"/>
</linearGradient>
<linearGradient id="paint9_linear_1_205" x1="12.754" y1="100.427" x2="39.9601" y2="163.464" gradientUnits="userSpaceOnUse">
<stop stop-color="white"/>
<stop offset="1" stop-color="white" stop-opacity="0"/>
</linearGradient>
<linearGradient id="paint10_linear_1_205" x1="7.55371" y1="130.111" x2="40.5962" y2="198.392" gradientUnits="userSpaceOnUse">
<stop stop-color="#2243AB"/>
<stop offset="1" stop-color="#6774C3"/>
</linearGradient>
<linearGradient id="paint11_linear_1_205" x1="12.754" y1="129.119" x2="39.9601" y2="192.156" gradientUnits="userSpaceOnUse">
<stop stop-color="white"/>
<stop offset="1" stop-color="white" stop-opacity="0"/>
</linearGradient>
</defs>
</svg>
