<svg width="32" height="32" viewBox="0 0 32 32" fill="none" xmlns="http://www.w3.org/2000/svg">
<path d="M0 16C0.0133333 7.16933 7.16933 0.0133333 16 0C24.8307 0.0133333 31.9867 7.16933 32 16C31.9867 24.8307 24.8307 31.9867 16 32C7.16933 31.9867 0.0133333 24.8307 0 16ZM16 30.672C19.2962 30.6753 22.4965 29.563 25.08 27.516L24.676 26.6413C24.4435 26.7193 24.1905 26.7087 23.9654 26.6115C23.7403 26.5143 23.559 26.3374 23.4564 26.1148C23.3537 25.8921 23.3369 25.6394 23.4092 25.4051C23.4815 25.1708 23.6377 24.9715 23.848 24.8453L22.8853 22.7613C22.4823 22.8918 22.0446 22.8631 21.6621 22.6811C21.2795 22.4991 20.9811 22.1777 20.828 21.7827L17.5293 22.6267V22.6427C17.5273 22.7823 17.4959 22.9199 17.4372 23.0466C17.3785 23.1733 17.2939 23.2863 17.1887 23.3782C17.0835 23.47 16.9602 23.5388 16.8268 23.5799C16.6933 23.621 16.5527 23.6336 16.4141 23.6169C16.2755 23.6002 16.1419 23.5545 16.0221 23.4828C15.9022 23.4111 15.7988 23.315 15.7185 23.2008C15.6383 23.0865 15.5829 22.9567 15.556 22.8196C15.5292 22.6826 15.5314 22.5414 15.5627 22.4053L10.9333 20.4133C10.7652 20.7054 10.512 20.9392 10.2076 21.0838C9.90318 21.2284 9.56195 21.2768 9.22933 21.2227L8.232 24.676C8.41154 24.7698 8.5582 24.9162 8.65241 25.0955C8.74662 25.2749 8.7839 25.4787 8.75927 25.6798C8.73464 25.8809 8.64928 26.0697 8.51457 26.221C8.37986 26.3723 8.20222 26.4789 8.00533 26.5267L8.07467 28.34C10.4365 29.8647 13.1888 30.6741 16 30.6707V30.672ZM7.66667 28.0667L7.608 26.544C7.35375 26.5031 7.12522 26.3654 6.97034 26.1596C6.81547 25.9539 6.7463 25.6962 6.77735 25.4405C6.8084 25.1849 6.93725 24.9512 7.13687 24.7885C7.33649 24.6259 7.59136 24.5468 7.848 24.568L8.84667 21.1147C8.5464 20.9874 8.29029 20.7744 8.11032 20.5024C7.93034 20.2304 7.83446 19.9115 7.83467 19.5853L1.60267 18.8307C2.34741 22.5802 4.52225 25.8927 7.66667 28.0667ZM25.4 27.256C26.9093 25.9939 28.1513 24.4432 29.0533 22.6947L23.952 21.6933C23.8304 22.0657 23.581 22.3831 23.248 22.5893L24.224 24.7067C24.4361 24.6769 24.6522 24.7162 24.8401 24.8189C25.0281 24.9216 25.1779 25.0822 25.2674 25.2767C25.3569 25.4713 25.3813 25.6896 25.337 25.8991C25.2927 26.1087 25.182 26.2983 25.0213 26.44L25.4013 27.256H25.4ZM29.2373 22.3253C30.1845 20.3514 30.6748 18.1894 30.672 16C30.6753 12.6127 29.5006 9.32973 27.3493 6.71333L25.3333 7.40133C25.3681 7.54772 25.3693 7.70006 25.3369 7.84699C25.3045 7.99392 25.2394 8.13163 25.1463 8.24983C25.0532 8.36804 24.9346 8.46369 24.7994 8.52963C24.6642 8.59558 24.5158 8.63012 24.3653 8.63067C24.173 8.63069 23.9849 8.57506 23.8235 8.47048C23.6621 8.36591 23.5345 8.21686 23.456 8.04133L19.2653 9.46667C19.4521 10.14 19.4219 10.8551 19.1789 11.5102C18.936 12.1654 18.4927 12.7273 17.912 13.116L21.7213 19.6507C21.9833 19.5384 22.2698 19.4955 22.5532 19.5261C22.8367 19.5566 23.1074 19.6597 23.3394 19.8253C23.5715 19.9908 23.7569 20.2134 23.878 20.4714C23.9991 20.7295 24.0517 21.0144 24.0307 21.2987L29.236 22.3253H29.2373ZM17.4427 22.2347L20.7293 21.3947C20.6906 21.1032 20.7303 20.8066 20.8442 20.5355C20.958 20.2643 21.1421 20.0284 21.3773 19.852L17.5693 13.3187C17.0599 13.5783 16.4918 13.7012 15.9206 13.6755C15.3495 13.6498 14.7947 13.4763 14.3107 13.172L10.6173 18.3613C10.8453 18.57 11.0104 18.8383 11.0938 19.1359C11.1772 19.4335 11.1756 19.7486 11.0893 20.0453L15.7333 22.0413C15.837 21.9014 15.9755 21.7912 16.1351 21.7216C16.2947 21.652 16.4698 21.6256 16.6429 21.6449C16.8159 21.6642 16.9808 21.7286 17.1212 21.8316C17.2616 21.9346 17.3724 22.0727 17.4427 22.232V22.2347ZM7.88267 19.1893C7.94358 18.942 8.06055 18.712 8.22454 18.5171C8.38853 18.3221 8.59514 18.1675 8.82841 18.0652C9.06168 17.9629 9.31536 17.9156 9.56984 17.9269C9.82431 17.9383 10.0728 18.008 10.296 18.1307L13.9893 12.944C13.602 12.6334 13.2894 12.2396 13.0748 11.7919C12.8601 11.3441 12.7489 10.8539 12.7493 10.3573C12.7493 9.55333 13.0413 8.776 13.572 8.17067L8.63467 3.316C6.05666 4.8143 3.99589 7.06193 2.72641 9.75997C1.45694 12.458 1.03894 15.4786 1.528 18.42L7.88133 19.1907L7.88267 19.1893ZM19.136 9.09333L23.368 7.64933V7.636C23.3679 7.42684 23.4337 7.22296 23.5559 7.05327C23.6782 6.88358 23.8508 6.75669 24.0492 6.6906C24.2477 6.6245 24.4619 6.62255 24.6615 6.68503C24.8611 6.7475 25.036 6.87123 25.1613 7.03867L27.072 6.38667C24.8849 3.85934 21.8991 2.15628 18.6104 1.56034C15.3217 0.964404 11.9281 1.51147 8.99333 3.11067L13.8467 7.88533C14.2421 7.52995 14.717 7.27472 15.2316 7.14111C15.7462 7.0075 16.2853 6.99941 16.8036 7.11753C17.322 7.23565 17.8044 7.47653 18.2103 7.81989C18.6161 8.16325 18.9336 8.59906 19.136 9.09067L19.1333 9.09467L19.136 9.09333Z" fill="white"/>
</svg>
