<svg width="372" height="1218" viewBox="0 0 372 1218" fill="none" xmlns="http://www.w3.org/2000/svg">
<path d="M-590.439 1079.69C-588.848 1080.17 -587.63 1079.35 -587.265 1078.15L-503.928 1114.09C-503.928 1114.09 -504.008 1114.24 -503.815 1114.38C-503.761 1116.28 -501.876 1118.19 -499.819 1118.78C-498.421 1119.12 -497.363 1118.6 -496.691 1117.82L-410.988 1170.28C-411.147 1170.59 -411.034 1170.87 -410.921 1171.16C-410.866 1173.06 -408.981 1174.97 -406.924 1175.56C-404.867 1176.14 -403.41 1174.87 -403.465 1172.97C-403.498 1172.53 -403.725 1171.96 -403.952 1171.39L-352.379 1152.21C-351.573 1153.18 -350.608 1153.84 -349.483 1154.2C-347.426 1154.78 -345.969 1153.51 -346.023 1151.61C-346.057 1151.17 -346.17 1150.89 -346.204 1150.45L-308.503 1141.18C-307.777 1142.3 -306.618 1143.1 -305.22 1143.44C-304.288 1143.67 -303.47 1143.61 -302.957 1143.13L-253.279 1192.15C-253.518 1192.61 -253.837 1193.22 -253.69 1193.94C-253.636 1195.84 -251.751 1197.75 -249.694 1198.34C-248.023 1198.66 -246.612 1197.97 -246.44 1196.64L-200.064 1213.4C-200.009 1215.3 -198.124 1217.21 -196.067 1217.8C-194.01 1218.38 -192.553 1217.11 -192.608 1215.21C-192.595 1214.19 -193.321 1213.07 -194.014 1212.38L-166.135 1175.27C-165.556 1175.67 -165.09 1175.78 -164.431 1176.03C-162.374 1176.61 -160.917 1175.34 -160.971 1173.44C-161.026 1171.54 -162.911 1169.62 -164.968 1169.04C-164.968 1169.04 -165.161 1168.9 -165.241 1169.06L-196.489 1056.37L-196.216 1056.35L-196.716 1055.8L-197.316 1053.94L-197.601 1054.98L-252.662 1000.2C-252.422 999.741 -252.103 999.133 -252.25 998.411C-252.271 996.949 -253.383 995.564 -254.735 994.635L-245.865 948.186C-245.672 948.319 -245.672 948.319 -245.399 948.3C-243.342 948.885 -241.885 947.611 -241.94 945.711C-242.074 943.964 -243.573 942.314 -245.277 941.557L-177.209 841.86C-176.823 842.125 -176.164 842.371 -175.698 842.484C-173.641 843.07 -172.184 841.795 -172.238 839.896C-172.293 837.997 -174.178 836.082 -176.235 835.496C-176.974 835.402 -177.712 835.308 -178.145 835.632L-267.568 731.177C-267.056 730.702 -266.737 730.093 -266.804 729.22C-266.871 728.346 -267.291 727.644 -267.711 726.942L-233.821 701.404C-233.128 702.086 -232.276 702.465 -231.537 702.559C-229.48 703.144 -228.023 701.87 -228.078 699.971C-228.179 698.66 -229.018 697.256 -230.37 696.327L-217.634 658.533C-217.441 658.666 -217.168 658.646 -216.782 658.912C-214.725 659.497 -213.268 658.222 -213.322 656.323C-213.377 654.424 -215.262 652.509 -217.319 651.923C-217.512 651.791 -217.592 651.943 -217.785 651.81L-245.593 569.616C-244.228 569.519 -243.397 568.435 -243.611 566.84C-243.665 564.941 -245.55 563.026 -247.607 562.44C-249.005 562.1 -249.983 562.463 -250.655 563.242L-296.527 534.007C-296.368 533.703 -296.401 533.266 -296.435 532.829C-296.569 531.082 -297.988 529.28 -299.965 528.542L-299.783 501.155C-299.191 500.528 -299.098 499.35 -299.552 498.211L-245.478 487.779C-245.172 488.196 -245.058 488.481 -244.672 488.746C-243.094 490.244 -240.684 490.658 -239.58 489.555C-238.635 488.756 -238.656 487.294 -239.495 485.89L-231.77 481.681L-189.493 458.181C-187.914 459.679 -185.698 459.96 -184.4 458.99C-183.296 457.886 -183.657 455.57 -185.236 454.072C-185.735 453.522 -186.121 453.257 -186.78 453.011L-184.417 400.437C-183.486 400.663 -182.394 400.586 -181.722 399.806L-151.828 423.444L-113.81 369.506C-112.265 370.567 -110.434 370.584 -109.603 369.5C-109.091 369.024 -108.965 368.283 -108.839 367.542L-63.5279 372.811C-63.381 373.532 -62.9613 374.234 -62.1888 374.765C-60.6104 376.263 -58.2006 376.677 -57.0964 375.574C-56.5842 375.098 -56.3784 374.205 -56.5253 373.484L16.9012 379.242C17.1279 379.811 17.5477 380.513 18.2403 381.196C19.8187 382.694 22.2285 383.108 23.3327 382.005C24.4369 380.902 24.076 378.585 22.4976 377.087C21.8049 376.405 21.1458 376.159 20.2936 375.78L13.5208 328.101C14.2597 328.195 14.965 327.852 15.4772 327.376C16.5017 326.425 16.3674 324.678 15.1417 323.009L91.3015 261.967L90.995 261.55C92.0739 262.498 93.3124 263.142 94.4039 263.064L116.79 308.023C116.437 308.194 116.164 308.213 116.005 308.518C114.901 309.621 115.262 311.937 116.84 313.435C118.418 314.933 120.828 315.347 121.932 314.244C122.604 313.465 122.81 312.572 122.357 311.433L214.722 300.62C215.029 301.037 215.335 301.454 215.722 301.72C216.914 302.952 218.505 303.425 219.756 303.043L245.753 342.621C245.673 342.774 245.673 342.774 245.4 342.793C244.296 343.896 244.657 346.213 246.235 347.711C247.814 349.209 250.223 349.623 251.328 348.52C251.92 347.892 252.125 346.999 251.865 345.993L364.513 336.08C364.819 336.497 365.046 337.067 365.625 337.465C367.203 338.963 369.613 339.377 370.717 338.274C371.822 337.17 371.461 334.854 369.882 333.356C368.69 332.123 366.826 331.67 365.575 332.052L308.765 258.068L308.845 257.916C309.949 256.813 309.588 254.497 308.01 252.999C306.931 252.051 305.42 251.426 304.328 251.504L256.764 166.909C257.037 166.889 257.196 166.585 257.469 166.566C258.573 165.463 258.213 163.146 256.634 161.648C255.056 160.15 252.646 159.736 251.542 160.839C251.109 161.163 250.95 161.467 250.903 162.056L186.958 139.229C186.97 138.203 186.437 137.216 185.358 136.268C183.78 134.77 181.37 134.356 180.266 135.459C180.106 135.763 179.754 135.935 179.787 136.372L136.404 116.913C136.417 115.888 135.77 114.616 134.964 113.649C134.272 112.966 133.226 112.455 132.488 112.361L118.033 52.7856C118.579 52.7468 119.204 52.5559 119.716 52.0803C120.821 50.9771 120.46 48.6606 118.881 47.1626C117.496 45.7973 115.632 45.3443 114.494 46.0107L80.7431 6.69097C81.8473 5.58777 81.4066 3.42333 79.7149 1.64063C78.1364 0.142628 75.7267 -0.271569 74.6224 0.831638C74.0305 1.45927 73.8247 2.35221 74.0849 3.3584L20.3518 5.1298C20.1251 4.56038 19.6256 4.01036 19.3191 3.59299C17.7407 2.09499 15.3309 1.68081 14.2267 2.78402C13.1225 3.88723 13.4834 6.20373 15.0619 7.70172L15.2549 7.83436L-32.6564 90.1425L-33.0426 89.8772L-32.816 90.4467L-33.5339 91.8152L-32.5557 91.4528L-16.6992 157.37C-17.245 157.408 -17.8706 157.599 -18.3828 158.075C-19.3274 158.874 -19.3065 160.336 -18.467 161.74L-59.6487 181.649C-59.8418 181.517 -59.8418 181.517 -59.9551 181.232C-61.5335 179.734 -63.9433 179.32 -65.0475 180.423C-66.1517 181.526 -65.8244 183.406 -64.5188 184.923L-200.781 195.784C-201.088 195.366 -201.314 194.797 -201.894 194.399C-203.472 192.901 -205.882 192.487 -206.986 193.59C-208.09 194.693 -207.729 197.01 -206.151 198.508C-205.458 199.19 -204.799 199.436 -204.14 199.682L-189.676 315.322C-190.415 315.228 -191.314 315.439 -191.826 315.914C-192.338 316.39 -192.464 317.131 -192.51 317.719L-243.514 309.782C-243.661 309.06 -244.274 308.226 -244.966 307.543C-246.545 306.045 -248.955 305.631 -250.059 306.734C-250.81 307.666 -250.903 308.843 -250.256 310.115L-289.087 322.537C-289.2 322.253 -289.393 322.12 -289.779 321.855C-291.358 320.357 -293.767 319.942 -294.872 321.046C-295.976 322.149 -295.615 324.465 -294.037 325.963C-293.843 326.096 -293.843 326.096 -293.65 326.229L-323.722 389.556C-325.154 388.779 -326.711 388.744 -327.463 389.675C-328.567 390.779 -328.206 393.095 -326.628 394.593C-325.549 395.541 -324.231 396.033 -323.139 395.955L-298.389 441.917C-298.742 442.088 -299.015 442.108 -299.254 442.564C-300.358 443.667 -300.031 445.547 -298.726 447.064L-331.717 472.392L-331.91 472.26C-333.488 470.762 -335.898 470.348 -337.002 471.451C-337.674 472.231 -337.767 473.408 -337.313 474.547C-336.973 475.401 -336.36 476.236 -335.668 476.919L-357.703 523.425C-358.089 523.16 -358.555 523.047 -358.828 523.066C-360.885 522.481 -362.342 523.755 -362.288 525.654C-362.187 526.965 -361.154 528.502 -359.803 529.43L-361.201 538.605L-368.178 589.458C-370.122 589.157 -371.692 590.147 -371.364 592.027C-371.31 593.926 -369.425 595.841 -367.368 596.427C-366.709 596.673 -366.163 596.634 -365.81 596.462L-330.326 650.005C-331.112 650.5 -331.51 651.26 -331.33 652.418L-364.546 648.632L-347.83 726.93C-349.387 726.895 -350.492 727.998 -350.277 729.593C-350.21 730.466 -349.87 731.32 -349.178 732.003L-378.03 756.451C-378.722 755.769 -379.381 755.523 -380.313 755.296C-382.37 754.711 -383.827 755.985 -383.773 757.885C-383.706 758.758 -383.366 759.612 -382.673 760.295L-427.521 802.715C-428.101 802.317 -428.873 801.786 -429.612 801.693C-431.669 801.107 -433.126 802.382 -433.071 804.281C-433.017 806.18 -431.132 808.095 -429.075 808.681C-428.336 808.775 -427.597 808.868 -426.892 808.526L-389.871 851.126C-390.383 851.602 -390.509 852.342 -390.635 853.083C-390.501 854.83 -389.195 856.348 -387.491 857.105L-386.788 967.429L-386.322 967.542C-387.527 967.335 -388.699 967.565 -389.177 968.477L-433.173 938.669C-433.013 938.365 -433.047 937.928 -433.08 937.491C-433.135 935.592 -435.02 933.677 -437.077 933.091C-439.134 932.506 -440.591 933.78 -440.536 935.679C-440.356 936.838 -439.823 937.824 -438.744 938.772L-482.389 1009.94C-482.775 1009.68 -483.241 1009.57 -483.707 1009.45C-485.105 1009.11 -486.436 1009.65 -486.994 1010.71L-529.214 988.535C-529.135 988.383 -529.328 988.251 -529.248 988.099C-529.302 986.199 -531.187 984.284 -533.244 983.698C-535.301 983.113 -536.758 984.387 -536.704 986.287C-536.717 987.312 -536.183 988.299 -535.298 989.114L-590.816 1072.4C-591.202 1072.14 -591.862 1071.89 -592.328 1071.78C-594.385 1071.19 -595.842 1072.47 -595.787 1074.37C-594.188 1077.33 -592.576 1079.26 -590.439 1079.69ZM-410.27 1168.91C-410.622 1169.09 -410.782 1169.39 -410.862 1169.54L-496.565 1117.08C-496.405 1116.78 -496.519 1116.49 -496.632 1116.21C-496.666 1115.77 -496.892 1115.2 -497.119 1114.63L-458.058 1099.27L-410.27 1168.91ZM-306.576 1136.51C-307.042 1136.4 -307.781 1136.3 -308.133 1136.47L-330.625 1103.23L-300.018 1138.53L-303.18 1139.05C-303.826 1137.78 -305.178 1136.85 -306.576 1136.51ZM-378.564 1099.47C-378.485 1099.32 -378.598 1099.03 -378.711 1098.75L-337.85 1098.48C-337.51 1099.33 -336.624 1100.15 -335.852 1100.68L-341.584 1120.11L-378.531 1099.91C-378.531 1099.91 -378.644 1099.62 -378.564 1099.47ZM-385.941 1097.5L-423.896 1092.74L-384.744 1095.22C-385.449 1095.57 -385.928 1096.48 -385.941 1097.5ZM-381.436 1095.43L-347.149 1097.67L-378.972 1097.74C-379.584 1096.91 -380.39 1095.94 -381.436 1095.43ZM-334.886 1101.34C-334.693 1101.47 -334.42 1101.45 -334.227 1101.59C-333.568 1101.83 -333.022 1101.79 -332.67 1101.62L-308.839 1136.82C-309.191 1136.99 -309.351 1137.29 -309.59 1137.75L-340.618 1120.78L-334.886 1101.34ZM-331.532 1100.96C-331.099 1100.63 -330.78 1100.02 -330.927 1099.3L-215.801 1125.22L-215.415 1125.49L-215.302 1125.77L-299.04 1138.17L-331.532 1100.96ZM-330.994 1098.43C-331.108 1098.14 -331.221 1097.86 -331.334 1097.57L-268.049 1076.09L-215.39 1123.44C-215.549 1123.74 -215.788 1124.2 -215.755 1124.63L-330.994 1098.43ZM-310.73 1040.78C-310.31 1041.48 -309.811 1042.03 -309.231 1042.43L-333.719 1095.11C-334.105 1094.84 -334.378 1094.86 -334.844 1094.75C-334.844 1094.75 -335.037 1094.62 -335.117 1094.77L-349.186 1044.97L-310.73 1040.78ZM-382.012 1047.45C-382.318 1047.04 -382.625 1046.62 -382.931 1046.2L-359.554 1017.17C-358.974 1017.56 -358.315 1017.81 -357.849 1017.92C-357.849 1017.92 -357.656 1018.06 -357.576 1017.9L-350.185 1043.87L-382.012 1047.45ZM-255.982 1001.02L-250.55 1065.77C-251.289 1065.68 -251.914 1065.87 -252.347 1066.19L-291.203 1027.09L-257.8 999.977C-257.221 1000.37 -256.641 1000.77 -255.982 1001.02ZM-252.859 1066.67C-252.939 1066.82 -253.019 1066.97 -253.098 1067.13L-303.727 1041.45C-303.647 1041.3 -303.761 1041.01 -303.681 1040.86C-303.748 1039.99 -304.088 1039.13 -304.781 1038.45L-291.522 1027.7L-252.859 1066.67ZM-253.497 1067.89C-253.577 1068.04 -253.464 1068.32 -253.544 1068.48C-253.51 1068.91 -253.283 1069.48 -253.25 1069.92L-268.229 1074.94L-304.479 1042.38C-304.399 1042.23 -304.399 1042.23 -304.319 1042.08L-253.497 1067.89ZM-268.855 1075.13L-331.867 1096.59C-332.174 1096.17 -332.56 1095.9 -332.867 1095.49L-308.379 1042.8C-307.993 1043.07 -307.72 1043.05 -307.254 1043.16C-306.322 1043.39 -305.423 1043.18 -304.718 1042.84L-268.855 1075.13ZM-267.071 1075.73L-252.364 1070.73C-251.558 1071.7 -250.592 1072.36 -249.467 1072.72C-249.001 1072.84 -248.456 1072.8 -247.91 1072.76L-238.616 1086.59L-214.638 1122.51L-214.718 1122.66L-267.071 1075.73ZM-247.204 1072.42C-246.419 1071.92 -246.021 1071.16 -246.201 1070C-246.415 1068.41 -247.641 1066.74 -249.345 1065.98L-233.925 1063.13L-213.66 1122.14C-213.66 1122.14 -213.66 1122.14 -213.933 1122.16L-247.204 1072.42ZM-249.685 1065.13L-255.05 1001.25L-234.072 1062.41L-249.685 1065.13ZM-258.413 999.142L-292.009 1026.12L-337.985 980.061C-337.746 979.605 -337.586 979.301 -337.54 978.712L-259.479 997.169C-259.139 998.023 -258.913 998.592 -258.413 999.142ZM-292.601 1026.75L-305.86 1037.5C-306.439 1037.1 -307.211 1036.57 -307.95 1036.48C-308.416 1036.37 -308.689 1036.39 -309.155 1036.27L-338.93 980.86C-338.85 980.708 -338.657 980.841 -338.577 980.689L-292.601 1026.75ZM-309.94 1036.77C-310.02 1036.92 -310.293 1036.94 -310.373 1037.09L-351.37 1001.07L-341.772 980.77C-341.385 981.035 -341.113 981.015 -340.647 981.129C-340.181 981.242 -339.908 981.223 -339.442 981.336L-309.94 1036.77ZM-352.575 1000.86L-357.534 1011.31C-357.727 1011.18 -358 1011.2 -358.193 1011.07C-358.659 1010.95 -359.205 1010.99 -359.751 1011.03L-382.557 974.887C-382.477 974.735 -382.284 974.867 -382.204 974.715L-352.575 1000.86ZM-356.761 1011.84L-351.882 1001.54L-310.885 1037.57C-310.965 1037.72 -311.045 1037.87 -311.204 1038.17L-354.436 1015.92C-354.356 1015.77 -354.356 1015.77 -354.469 1015.49C-354.49 1014.03 -355.41 1012.77 -356.761 1011.84ZM-311.33 1038.92C-311.297 1039.35 -311.183 1039.64 -311.263 1039.79L-349.446 1043.97L-356.644 1018.13C-355.553 1018.05 -354.961 1017.43 -354.562 1016.67L-311.33 1038.92ZM-360.246 1016.48L-383.624 1045.52C-384.203 1045.12 -384.862 1044.88 -385.328 1044.76C-385.601 1044.78 -385.794 1044.65 -386.26 1044.54L-399.991 1014.63L-361.279 1014.95C-361.052 1015.52 -360.826 1016.09 -360.246 1016.48ZM-349.925 1044.88L-335.969 1094.39C-336.515 1094.43 -336.867 1094.6 -337.22 1094.77L-381.857 1050.66C-381.617 1050.21 -381.298 1049.6 -381.445 1048.88C-381.559 1048.59 -381.479 1048.44 -381.592 1048.16L-349.925 1044.88ZM-337.812 1095.4C-338.051 1095.86 -338.37 1096.46 -338.224 1097.19L-338.303 1097.34L-435.286 1090.91C-435.513 1090.34 -435.626 1090.06 -435.932 1089.64L-387.268 1050.46C-386.576 1051.15 -385.917 1051.39 -384.985 1051.62C-384.053 1051.84 -383.234 1051.79 -382.722 1051.31L-337.812 1095.4ZM-387.881 1049.63L-436.545 1088.81C-437.238 1088.12 -438.09 1087.75 -438.829 1087.65C-439.295 1087.54 -439.761 1087.43 -440.114 1087.6L-455.326 1061.01L-388.188 1049.21C-388.074 1049.5 -387.881 1049.63 -387.881 1049.63ZM-481.666 1068.15C-481.473 1068.29 -481.007 1068.4 -480.814 1068.53C-480.155 1068.78 -479.609 1068.74 -479.257 1068.57L-458.671 1098.43L-497.732 1113.8C-498.038 1113.38 -498.425 1113.12 -498.811 1112.85L-481.666 1068.15ZM-498.739 1110.21L-482.923 1018.47L-481.624 1061.56C-483.568 1061.26 -484.945 1062.39 -484.811 1064.13C-484.71 1065.44 -483.791 1066.7 -482.712 1067.64L-498.739 1110.21ZM-478.551 1068.23C-478.199 1068.05 -478.039 1067.75 -477.959 1067.6L-442.435 1089.52C-442.515 1089.67 -442.482 1090.11 -442.562 1090.26C-442.528 1090.7 -442.301 1091.27 -442.075 1091.83L-458.238 1098.11L-478.551 1068.23ZM-477.561 1066.84C-477.401 1066.53 -477.514 1066.25 -477.548 1065.81C-477.581 1065.38 -477.695 1065.09 -477.808 1064.81L-456.145 1061.07L-440.932 1087.66C-441.285 1087.83 -441.718 1088.15 -441.957 1088.61L-477.561 1066.84ZM-456.565 1060.37L-478.035 1064.24C-478.568 1063.25 -479.533 1062.59 -480.579 1062.08L-481.898 1017.52C-481.625 1017.5 -481.159 1017.62 -480.886 1017.6L-456.565 1060.37ZM-483.716 1016.48L-500.163 1111.92C-500.356 1111.79 -500.356 1111.79 -500.629 1111.81C-500.629 1111.81 -500.629 1111.81 -500.822 1111.68L-519.746 1035.58L-484.988 1015.4C-484.488 1015.95 -484.102 1016.21 -483.716 1016.48ZM-409.292 1168.55C-409.371 1168.7 -409.371 1168.7 -409.292 1168.55L-457.352 1098.92L-441.189 1092.65C-440.383 1093.62 -439.417 1094.28 -438.212 1094.49C-438.019 1094.62 -437.746 1094.6 -437.474 1094.58L-409.292 1168.55ZM-408.473 1168.49L-436.848 1094.39C-436.222 1094.2 -435.79 1093.88 -435.358 1093.55L-391.282 1123.21L-406.995 1168.68C-407.188 1168.55 -407.654 1168.44 -407.847 1168.3C-408.007 1168.61 -408.28 1168.63 -408.473 1168.49ZM-353.945 1149.68C-353.912 1150.12 -353.685 1150.69 -353.458 1151.26L-404.837 1170.58C-405.144 1170.16 -405.53 1169.89 -406.109 1169.5L-390.397 1124.02L-353.739 1148.79C-353.819 1148.94 -353.786 1149.38 -353.945 1149.68ZM-435.038 1092.94C-434.879 1092.64 -434.992 1092.36 -434.833 1092.05L-385.794 1098.23C-385.533 1099.23 -384.807 1100.35 -383.649 1101.15L-390.963 1122.6L-435.038 1092.94ZM-352.749 1147.4C-353.101 1147.58 -353.261 1147.88 -353.534 1147.9L-390.384 1123L-382.989 1101.39C-382.796 1101.53 -382.33 1101.64 -382.137 1101.77C-381.671 1101.89 -381.126 1101.85 -380.853 1101.83L-352.749 1147.4ZM-351.85 1147.19L-379.761 1101.75C-379.329 1101.43 -378.976 1101.25 -378.737 1100.8L-341.789 1121.01L-349.633 1147.48C-349.827 1147.34 -350.099 1147.36 -350.293 1147.23C-351.031 1147.14 -351.497 1147.02 -351.85 1147.19ZM-309.762 1139.08C-309.729 1139.51 -309.615 1139.8 -309.389 1140.37L-347.089 1149.64C-347.589 1149.09 -348.089 1148.54 -348.668 1148.14L-340.824 1121.67L-309.796 1138.64C-309.796 1138.64 -309.876 1138.79 -309.762 1139.08ZM-302.911 1142.54C-302.672 1142.09 -302.353 1141.48 -302.5 1140.76C-302.613 1140.47 -302.646 1140.04 -302.76 1139.75L-299.326 1139.21L-257.582 1187.33L-302.911 1142.54ZM-298.314 1139.29L-215.041 1126.78C-214.735 1127.2 -214.235 1127.75 -213.929 1128.16L-249.731 1191.9C-250.118 1191.63 -250.584 1191.52 -251.05 1191.41C-251.788 1191.31 -252.527 1191.22 -253.233 1191.56L-298.314 1139.29ZM-211.838 1129.19L-203.025 1181.99L-247.767 1193.66C-248.073 1193.24 -248.38 1192.83 -248.766 1192.56L-212.963 1128.83C-212.497 1128.94 -212.304 1129.07 -211.838 1129.19ZM-200.676 1212.56L-247.053 1195.81C-247.087 1195.37 -247.2 1195.09 -247.427 1194.52L-202.958 1182.86L-198.275 1210.49C-199.446 1210.72 -200.311 1211.37 -200.676 1212.56ZM-167.101 1174.61L-195.718 1211.63C-196.105 1211.36 -196.764 1211.12 -197.23 1211L-201.947 1182.94L-167.6 1174.06C-167.407 1174.19 -167.294 1174.47 -167.101 1174.61ZM-168.507 1171.78C-168.473 1172.21 -168.36 1172.5 -168.133 1173.07L-202.127 1181.78L-210.759 1130.13L-167.982 1170.28C-168.415 1170.6 -168.461 1171.19 -168.507 1171.78ZM-166.332 1169.13C-166.878 1169.17 -167.231 1169.34 -167.583 1169.52L-210.36 1129.37C-208.996 1129.28 -208.165 1128.19 -208.186 1126.73C-208.207 1125.27 -209.319 1123.88 -210.671 1122.96L-196.821 1058L-166.332 1169.13ZM-211.796 1122.6C-211.989 1122.46 -212.069 1122.62 -212.262 1122.48C-212.455 1122.35 -212.535 1122.5 -212.728 1122.37L-232.913 1063.2L-197.74 1056.75L-211.796 1122.6ZM-198 1055.74L-233.253 1062.35L-254.118 1001.47C-253.766 1001.3 -253.493 1001.28 -253.14 1001.11L-198 1055.74ZM-258.476 994.755C-258.988 995.231 -259.307 995.839 -259.433 996.58L-337.494 978.123C-337.607 977.838 -337.64 977.402 -337.754 977.117L-284.364 958.975L-258.476 994.755ZM-340.138 974.652L-333.528 934.511L-331.512 922.657L-328.017 901.476C-327.278 901.57 -326.54 901.663 -326.107 901.34L-284.977 958.14L-338.174 976.415C-338.786 975.58 -339.479 974.898 -340.138 974.652ZM-246.797 947.96L-255.667 994.409C-255.86 994.276 -255.86 994.276 -256.133 994.296C-256.792 994.05 -257.338 994.089 -257.964 994.279L-283.852 958.499L-248.569 946.329C-248.069 946.879 -247.377 947.562 -246.797 947.96ZM-249.476 944.052C-249.442 944.488 -249.215 945.058 -249.182 945.494L-284.464 957.665L-325.595 900.864C-325.435 900.56 -325.162 900.541 -325.003 900.237L-311.233 908.041L-249.429 943.463C-249.509 943.615 -249.396 943.899 -249.476 944.052ZM-249.224 942.57L-310.448 907.546L-324.99 899.211C-324.91 899.059 -325.024 898.774 -324.944 898.622C-325.091 897.901 -325.318 897.331 -325.737 896.629L-303.549 881.877L-248.984 942.114C-249.064 942.266 -249.144 942.418 -249.224 942.57ZM-247.406 817.428C-247.486 817.58 -247.565 817.732 -247.645 817.884L-284.018 801.587L-309.118 790.343C-309.038 790.191 -309.038 790.191 -309.152 789.907C-309.139 788.881 -309.865 787.762 -310.751 786.946L-300.044 771.546L-247.406 817.428ZM-299.452 770.919L-271.695 731.031C-271.309 731.297 -270.65 731.543 -270.184 731.656C-270.184 731.656 -269.991 731.789 -269.911 731.637L-245.483 816.267C-246.029 816.305 -246.461 816.629 -246.814 816.8L-299.452 770.919ZM-283.757 802.593L-247.964 818.492C-248.044 818.644 -248.044 818.644 -247.931 818.929C-247.897 819.366 -247.671 819.935 -247.444 820.505L-293.294 836.793L-310.86 792.663C-309.962 792.453 -309.45 791.977 -309.051 791.217L-283.757 802.593ZM-280.31 864.122C-280.89 863.724 -281.356 863.611 -282.015 863.365C-282.288 863.385 -282.481 863.252 -282.754 863.271L-292.954 837.647L-246.831 821.339C-246.638 821.472 -246.525 821.757 -246.331 821.889L-280.31 864.122ZM-244.787 822.951L-245.204 856.795L-278.732 865.62C-278.845 865.336 -279.232 865.07 -279.345 864.785L-245.559 822.42C-245.446 822.705 -244.98 822.818 -244.787 822.951ZM-283.572 863.329C-284.471 863.54 -285.143 864.319 -285.348 865.212L-328.022 851.413C-328.136 851.128 -328.442 850.71 -328.828 850.445L-293.932 838.01L-283.572 863.329ZM-294.192 837.003L-329.714 849.63C-329.907 849.497 -330.1 849.365 -330.293 849.232L-313.35 792.401C-313.157 792.533 -312.884 792.514 -312.691 792.647C-312.418 792.627 -312.225 792.76 -311.952 792.741L-294.192 837.003ZM-314.122 791.87L-325.494 829.568L-331.339 848.721C-331.339 848.721 -331.339 848.721 -331.532 848.588C-331.998 848.475 -332.271 848.494 -332.544 848.514L-359.98 796.156L-316.2 789.822C-315.394 790.79 -314.895 791.34 -314.122 791.87ZM-285.281 866.086C-285.134 866.807 -284.908 867.377 -284.488 868.079L-303.456 880.699L-327.435 854.298C-327.275 853.994 -327.309 853.558 -327.342 853.121C-327.456 852.836 -327.376 852.684 -327.489 852.399L-285.281 866.086ZM-304.241 881.194L-326.157 895.927C-326.657 895.377 -327.236 894.979 -327.895 894.733L-330.336 855.822C-329.324 855.897 -328.426 855.686 -327.834 855.059L-304.241 881.194ZM-331.461 855.463L-328.94 894.222C-329.872 893.996 -330.771 894.206 -331.283 894.681L-375.072 854.465L-334.311 852.884C-333.585 854.004 -332.586 855.104 -331.461 855.463ZM-247.847 941.447C-247.926 941.599 -248.119 941.466 -248.199 941.619L-302.764 881.382L-283.795 868.762C-283.103 869.444 -282.33 869.975 -281.398 870.201C-281.125 870.182 -280.932 870.315 -280.659 870.295L-247.847 941.447ZM-246.562 941.502C-246.755 941.37 -246.835 941.522 -247.028 941.389L-279.648 870.37C-278.476 870.14 -277.918 869.076 -278.018 867.765C-278.052 867.328 -278.086 866.892 -278.392 866.474L-245.297 857.973L-246.562 941.502ZM-178.254 841.349L-245.605 939.678L-244.239 857.459L-178.867 840.514C-178.754 840.799 -178.447 841.216 -178.254 841.349ZM-179.48 839.679L-244.306 856.585L-243.661 823.31C-241.991 823.63 -240.5 822.792 -240.521 821.33L-179.74 838.673C-179.707 839.11 -179.593 839.394 -179.48 839.679ZM-179.089 836.431C-179.522 836.754 -179.761 837.211 -179.807 837.799L-240.588 820.456C-240.916 818.577 -242.607 816.794 -244.471 816.341C-244.471 816.341 -244.664 816.208 -244.744 816.36L-269.172 731.73C-268.899 731.711 -268.626 731.692 -268.274 731.52L-179.089 836.431ZM-270.801 724.82C-271.46 724.574 -272.085 724.765 -272.631 724.803L-287.466 705.511L-251.361 689.769C-251.167 689.902 -250.861 690.319 -250.668 690.452L-269.482 725.312C-269.869 725.046 -270.335 724.933 -270.801 724.82ZM-235.534 698.159C-235.467 699.032 -235.047 699.734 -234.627 700.436L-268.517 725.975L-268.71 725.842L-249.895 690.982C-249.509 691.248 -249.043 691.361 -248.577 691.474C-247.179 691.814 -246.201 691.451 -245.529 690.672L-235.521 697.133C-235.488 697.57 -235.647 697.874 -235.534 698.159ZM-233.712 695.687C-234.337 695.878 -234.77 696.201 -235.202 696.525L-245.21 690.064C-245.051 689.759 -245.164 689.475 -245.197 689.038C-245.265 688.164 -245.798 687.178 -246.411 686.343L-240.138 679.895L-233.712 695.687ZM-249.001 684.77C-249.194 684.638 -249.194 684.638 -249.001 684.77L-273.084 597.481L-240.398 678.889L-247.103 685.66C-247.683 685.262 -248.262 684.864 -249.001 684.77ZM-266.457 625.408L-250.206 684.563C-250.751 684.602 -251.377 684.793 -251.809 685.117L-312.71 636.456L-277.194 592.796C-276.615 593.194 -275.956 593.44 -275.49 593.553C-275.49 593.553 -275.297 593.686 -275.217 593.534L-266.457 625.408ZM-218.679 658.022L-231.415 695.816C-231.608 695.684 -231.881 695.703 -232.267 695.438C-232.54 695.457 -232.733 695.325 -233.006 695.344L-239.659 678.983L-219.066 657.756C-218.679 658.022 -218.679 658.022 -218.679 658.022ZM-220.287 652.573C-220.799 653.049 -220.925 653.79 -220.858 654.663C-220.791 655.537 -220.258 656.524 -219.645 657.358L-239.806 678.261L-273.819 593.874C-273.546 593.854 -273.466 593.702 -273.193 593.683L-220.287 652.573ZM-272.601 593.055C-272.089 592.58 -271.963 591.839 -272.03 590.965C-272.097 590.092 -272.437 589.237 -273.13 588.555L-266.79 582.981L-220.887 650.713L-272.601 593.055ZM-299.861 535.854C-299.668 535.987 -299.588 535.835 -299.395 535.967L-277.471 586.814C-277.824 586.985 -278.176 587.157 -278.609 587.481L-323.019 553.457L-302.065 534.547C-301.565 535.097 -300.793 535.627 -299.861 535.854ZM-275.913 586.85C-276.186 586.869 -276.379 586.736 -276.652 586.756L-298.383 536.042L-267.017 582.411L-273.63 588.005C-274.402 587.474 -275.174 586.944 -275.913 586.85ZM-218.876 651.888L-219.149 651.907L-266.085 582.638L-249.434 568.425C-248.934 568.975 -248.082 569.354 -247.15 569.58C-246.957 569.713 -246.877 569.561 -246.684 569.694L-218.876 651.888ZM-250.941 564.287C-251.1 564.591 -250.987 564.876 -250.953 565.313C-250.886 566.186 -250.546 567.041 -249.854 567.723L-266.425 581.783L-297.678 535.699C-297.325 535.527 -296.972 535.356 -296.813 535.052L-250.941 564.287ZM-300.398 528.866C-300.864 528.752 -301.33 528.639 -301.682 528.811L-320.413 496.913L-313.527 491.3L-306.315 497.082C-306.953 498.298 -306.353 500.159 -304.888 501.372C-303.503 502.737 -301.832 503.058 -300.581 502.676L-300.75 529.037L-300.398 528.866ZM-312.935 490.672L-301.406 481.216C-301.213 481.349 -301.02 481.481 -300.827 481.614L-302.755 495.804C-303.88 495.445 -305.051 495.675 -305.643 496.302L-312.935 490.672ZM-300.824 497.131C-301.21 496.865 -301.516 496.448 -301.982 496.335L-300.479 484.956L-300.824 497.131C-300.631 497.263 -300.824 497.131 -300.824 497.131ZM-302.825 479.414C-302.712 479.699 -302.405 480.116 -302.292 480.401L-313.821 489.857L-329.983 477.1C-329.824 476.796 -329.937 476.511 -329.971 476.074L-311.885 478.155L-302.825 479.414ZM-330.382 477.86L-314.606 490.352L-321.139 495.794L-331.247 478.507C-330.701 478.468 -330.542 478.164 -330.382 477.86ZM-246.011 486.792L-299.745 498.078L-299.668 482.41L-299.475 482.543C-297.611 482.996 -296.314 482.025 -296.062 480.543L-246.011 486.792C-245.931 486.64 -246.011 486.792 -246.011 486.792ZM-190.185 457.498L-201.949 463.897L-240.029 484.903C-240.222 484.77 -240.335 484.485 -240.528 484.353C-241.607 483.405 -242.652 482.894 -243.937 482.839L-257.596 450.288L-190.605 456.796C-190.412 456.929 -190.299 457.213 -190.185 457.498ZM-191.059 455.657L-257.936 449.434L-277.988 401.528C-277.635 401.356 -277.282 401.185 -276.85 400.861C-276.77 400.709 -276.69 400.557 -276.61 400.405L-191.159 454.347C-191.012 455.068 -191.172 455.372 -191.059 455.657ZM-264.354 373.038L-239.048 329.812C-238.469 330.21 -237.73 330.304 -237.071 330.549L-211.21 396.926L-276.539 397.765C-276.766 397.196 -277.265 396.646 -277.765 396.096L-277.958 395.963L-264.354 373.038ZM-277.101 392.828L-252.449 326.812L-241.16 327.327C-240.933 327.896 -240.514 328.598 -240.014 329.148L-239.821 329.281L-277.101 392.828ZM-282.664 395.419C-283.176 395.895 -283.302 396.636 -283.235 397.509L-293.386 396.328L-291.119 329.415L-280.594 394.979C-281.526 394.753 -282.152 394.944 -282.664 395.419ZM-283.168 398.383C-283.021 399.104 -282.601 399.806 -281.829 400.337C-281.636 400.47 -281.249 400.735 -281.056 400.868L-295.014 442.994L-293.512 397.069L-283.168 398.383ZM-189.463 452.616C-189.816 452.787 -190.168 452.959 -190.328 453.263C-190.487 453.567 -190.84 453.738 -190.727 454.023L-275.985 400.214C-275.825 399.91 -275.779 399.321 -276.006 398.752L-210.87 397.78L-189.463 452.616ZM-187.008 398.864C-186.508 399.415 -186.122 399.68 -185.463 399.926L-187.826 452.499C-188.099 452.519 -188.292 452.386 -188.565 452.406L-209.779 397.702L-187.847 397.46C-187.814 397.897 -187.394 398.599 -187.008 398.864ZM-188.38 396.474L-210.312 396.716L-236.173 330.339L-235.9 330.32L-219.306 352.269L-187.763 393.795C-187.843 393.947 -187.843 393.947 -187.923 394.099C-188.435 394.574 -188.641 395.467 -188.38 396.474ZM-188.867 322.291L-187.869 342.421L-234.271 327.715C-234.384 327.431 -234.304 327.279 -234.418 326.994L-191.604 319.997C-191.297 320.415 -190.991 320.832 -190.605 321.097C-190.105 321.647 -189.526 322.045 -188.867 322.291ZM-187.802 343.295L-185.227 393.468C-185.693 393.355 -186.239 393.394 -186.785 393.432L-218.521 351.774L-235.001 330.109L-234.922 329.957C-234.489 329.634 -234.25 329.178 -234.283 328.741L-187.802 343.295ZM-114.696 368.691L-152.395 422.021L-181.403 399.198C-181.004 398.438 -181.185 397.279 -181.718 396.293L-115.275 368.293C-115.082 368.426 -114.889 368.558 -114.696 368.691ZM-115.808 367.306L-182.251 395.306C-182.444 395.173 -182.557 394.888 -182.75 394.756C-183.25 394.206 -183.829 393.808 -184.488 393.562L-186.87 343.521L-116.182 366.015C-116.148 366.452 -115.921 367.021 -115.808 367.306ZM-62.9441 369.695C-63.0239 369.847 -63.0239 369.847 -63.1037 369.999C-63.6159 370.475 -63.7419 371.216 -63.8679 371.957L-109.179 366.688C-109.326 365.967 -109.746 365.265 -110.518 364.734C-110.824 364.317 -111.404 363.919 -111.87 363.806L-104.898 316.467C-104.239 316.713 -103.42 316.654 -102.794 316.464L-62.9441 369.695ZM-44.2733 286.539L-49.3176 256.596L-17.571 262.682C-17.4242 263.404 -17.1975 263.973 -16.698 264.523L-41.364 287.503C-42.1365 286.972 -43.1818 286.461 -44.2733 286.539ZM-45.092 286.597C-45.4447 286.768 -45.7973 286.94 -45.9569 287.244C-46.0366 287.396 -46.1164 287.548 -46.276 287.852L-78.1339 252.936C-77.7015 252.612 -77.5755 251.871 -77.5293 251.282L-50.1363 256.654L-45.092 286.597ZM-44.1562 292.825L-53.8446 339.332L-101.132 314.296C-101.085 313.707 -101.232 312.986 -101.572 312.131L-64.287 298.648L-45.4282 291.744C-45.4282 291.744 -45.4282 291.744 -45.2351 291.877C-44.7355 292.427 -44.5424 292.559 -44.1562 292.825ZM-102.265 311.449C-102.458 311.316 -102.571 311.031 -102.765 310.899C-102.958 310.766 -103.151 310.633 -103.344 310.501L-90.008 274.567L-46.4273 290.644C-46.314 290.929 -46.1208 291.062 -46.0075 291.346L-102.265 311.449ZM-89.5293 273.654L-81.8746 253.055C-80.8292 253.566 -79.7377 253.489 -78.8393 253.279L-46.6748 288.612C-46.8344 288.916 -46.7211 289.201 -46.6875 289.638L-89.5293 273.654ZM-84.7921 249.603L-147.438 250.837C-147.551 250.552 -147.665 250.268 -148.051 250.002L-124.028 231.753L-85.1321 248.749C-85.0188 249.034 -84.9054 249.318 -84.7921 249.603ZM-84.5319 250.609C-84.3052 251.179 -83.9988 251.596 -83.4992 252.146C-83.3061 252.279 -83.113 252.411 -82.7268 252.677L-90.4613 273.428L-147.031 252.565C-146.951 252.413 -147.064 252.128 -147.064 252.128L-84.5319 250.609ZM-90.7804 274.036L-104.23 309.686C-105.082 309.307 -106.094 309.233 -106.912 309.291L-124.04 286.355L-147.988 254.39C-147.908 254.237 -147.908 254.237 -147.829 254.085C-147.476 253.914 -147.237 253.458 -147.27 253.021L-90.7804 274.036ZM-124.325 287.4L-107.504 309.918C-107.584 310.07 -107.584 310.07 -107.664 310.222C-108.256 310.85 -108.541 311.895 -108.281 312.901L-129.566 314.415L-149.126 255.056C-148.853 255.037 -148.853 255.037 -148.58 255.017L-124.325 287.4ZM-107.941 313.755C-107.635 314.173 -107.408 314.742 -106.829 315.14C-106.442 315.405 -106.136 315.823 -105.67 315.936L-112.642 363.275C-112.915 363.294 -113.108 363.162 -113.381 363.181L-129.419 315.136L-107.941 313.755ZM-62.2388 369.352L-102.009 315.969C-101.929 315.817 -101.929 315.817 -101.85 315.664C-101.77 315.512 -101.61 315.208 -101.531 315.056L-54.0504 340.225L-60.1355 369.349C-60.7946 369.103 -61.6133 369.161 -62.2388 369.352ZM16.641 378.236L-56.7855 372.478C-57.0122 371.908 -57.432 371.206 -58.1246 370.524C-58.5109 370.258 -58.8173 369.841 -59.0902 369.86L-53.005 340.736L16.6872 377.647C16.6074 377.799 16.7208 378.084 16.641 378.236ZM17.2121 376.146C17.1323 376.298 16.9727 376.602 16.893 376.754L-52.7992 339.843L-43.1109 293.336C-42.4518 293.582 -41.7129 293.676 -41.0873 293.485L17.5647 375.974C17.5647 375.974 17.485 376.126 17.2121 376.146ZM18.8158 375.592C18.5429 375.612 18.543 375.612 18.2701 375.631L-40.382 293.142C-40.3022 292.99 -40.1091 293.123 -40.0294 292.971C-39.9496 292.818 -39.8698 292.666 -39.79 292.514L1.99314 318.527L18.8158 375.592ZM10.3849 326.567C11.0775 327.25 11.7366 327.496 12.5888 327.875L19.0805 373.085L2.95867 319.191L8.91152 322.866C8.62596 323.911 9.11286 325.487 10.3849 326.567ZM-39.3911 291.754C-39.1056 290.709 -39.4792 289.418 -40.2851 288.451L-15.8122 265.338C-14.9264 266.154 -14.0742 266.532 -13.1422 266.759L1.81267 317.369L-39.3911 291.754ZM10.6077 321.135C10.2551 321.307 9.90239 321.478 9.54973 321.65C9.46995 321.802 9.39017 321.954 9.31039 322.106L2.77822 318.032L-11.3498 269.852L10.6077 321.135ZM90.6886 261.132L14.6421 322.459C13.7564 321.643 12.6312 321.284 11.6195 321.21L-11.8575 266.814C-11.5049 266.642 -11.1522 266.471 -10.7996 266.299C-10.1278 265.52 -9.92204 264.627 -10.3754 263.488L89.7692 259.88C89.8826 260.165 90.1093 260.734 90.6886 261.132ZM-10.6356 262.482C-10.8287 262.349 -10.7489 262.197 -10.942 262.064L35.2358 238.141L51.8571 229.493C52.0502 229.626 52.0503 229.626 52.2434 229.758C53.8218 231.256 56.2315 231.671 57.3357 230.567L90.0004 256.936C89.6813 257.544 89.5552 258.285 89.7021 259.007L-10.6356 262.482ZM-13.7589 259.923L-14.6409 202.017L50.2578 226.533C50.2116 227.122 50.6314 227.824 50.858 228.393L16.4776 246.355L6.36374 251.612L-11.748 261.097C-12.3273 260.699 -13.0998 260.168 -13.7589 259.923ZM8.53097 110.782L29.8148 65.2066L30.0079 65.3393L28.1154 114.513C27.1834 114.286 26.0919 114.364 25.4201 115.143C24.3957 116.095 24.5299 117.842 25.6423 119.226L8.53097 110.782ZM25.5164 119.967L-13.7564 158.771L8.3252 111.675L25.5164 119.967ZM93.1977 218.795L81.325 221.396L66.2397 175.04C66.5125 175.021 66.7854 175.001 66.8652 174.849L93.7479 215.243C93.6681 215.395 93.6681 215.395 93.3952 215.414C92.7235 216.194 92.5513 217.524 93.1977 218.795ZM137.458 246.096L119.246 307.848C119.053 307.715 118.78 307.735 118.394 307.469L97.6057 221.409C98.1515 221.371 98.777 221.18 99.2892 220.704C99.369 220.552 99.369 220.552 99.4488 220.4L137.458 246.096ZM95.7753 221.393L93.0483 256.134C92.8552 256.001 92.7754 256.153 92.5823 256.021L81.665 222.25L93.8106 219.63C94.0037 219.763 94.117 220.047 94.3101 220.18C94.8097 220.73 95.389 221.128 95.7753 221.393ZM182.005 190.23C182.403 189.47 182.416 188.444 181.963 187.305L204.096 180.169L226.562 224.975C226.289 224.995 226.13 225.299 225.857 225.318L182.005 190.23ZM215.236 218.022L178.604 191.204C179.729 191.563 180.627 191.353 181.413 190.858L215.236 218.022ZM175.645 184.827C175.565 184.979 175.485 185.131 175.405 185.283L135.146 158.869C135.272 158.128 135.205 157.254 134.865 156.4L153.997 149.477L176.27 184.636C175.997 184.655 175.724 184.675 175.645 184.827ZM175.006 186.043C174.801 186.936 175.061 187.942 175.787 189.062L143.71 165.579L175.006 186.043ZM225.185 226.098C225.026 226.402 225.059 226.839 224.9 227.143L149.773 217.114C149.626 216.393 149.013 215.558 148.514 215.008C147.821 214.326 146.776 213.814 146.037 213.72L132.904 160.638C133.45 160.6 134.075 160.409 134.588 159.933L134.667 159.781L225.185 226.098ZM218.9 296.663L224.725 257.018L248.415 268.947C248.403 269.973 248.663 270.979 249.469 271.946L219.786 297.478C219.479 297.061 219.286 296.928 218.9 296.663ZM225.124 256.257L228.816 231.695C229.282 231.808 230.021 231.902 230.374 231.731L250.078 266.779C249.805 266.799 249.645 267.103 249.373 267.122C249.213 267.426 249.133 267.578 248.974 267.883L225.124 256.257ZM226.532 230.54C226.919 230.805 227.225 231.223 227.691 231.336L224.079 255.746L150.067 218.557C150.147 218.405 150.033 218.121 150.033 218.121L225.16 228.149C225.5 229.003 225.84 229.857 226.532 230.54ZM109.757 196.246L130.654 159.92C131.04 160.185 131.699 160.431 132.165 160.545L145.411 213.911C144.866 213.95 144.24 214.141 143.728 214.617C143.648 214.769 143.488 215.073 143.409 215.225L109.757 196.246ZM142.896 215.7C142.93 216.137 142.77 216.441 142.997 217.011L99.7932 217.741C99.5666 217.171 99.067 216.621 98.7605 216.204L98.5674 216.071L109.551 197.138L142.896 215.7ZM128.156 157.17L67.4281 170.271C67.1216 169.854 67.0083 169.569 66.6221 169.304C65.7363 168.488 64.8841 168.11 63.9521 167.883L51.293 126.918L127.976 156.012C128.009 156.448 128.043 156.885 128.156 157.17ZM63.1334 167.942L62.8606 167.961L31.0748 120.89C31.1545 120.738 31.4274 120.718 31.5072 120.566C31.8598 120.395 32.0992 119.938 32.0656 119.502L50.2477 126.406L63.1334 167.942ZM67.9612 171.258L128.689 158.157C128.996 158.574 129.109 158.859 129.495 159.124L129.688 159.257L108.712 195.734L68.2885 173.138C68.3347 172.549 68.1878 171.827 67.9612 171.258ZM108.313 196.495L97.5221 215.56C96.4768 215.049 95.3517 214.69 94.3735 215.052L67.4907 174.658C67.4907 174.658 67.4907 174.658 67.5705 174.506C67.6503 174.354 67.8098 174.05 67.8896 173.898L108.313 196.495ZM100.133 218.595L143.337 217.865C143.564 218.434 144.063 218.984 144.37 219.402C144.563 219.534 144.949 219.8 145.142 219.932L137.664 245.203L99.961 219.924C100.121 219.62 100.087 219.184 100.133 218.595ZM146.108 220.596C147.153 221.107 147.972 221.049 148.95 220.686L214.966 296.65C214.886 296.802 214.886 296.802 214.807 296.954L138.822 245.999L146.108 220.596ZM149.462 220.211C149.622 219.907 149.702 219.754 149.861 219.45L223.873 256.639L218.048 296.285C217.195 295.906 216.377 295.964 215.671 296.307L149.462 220.211ZM220.978 298.711L303.639 256.823C303.833 256.955 303.833 256.955 304.026 257.088C304.026 257.088 304.026 257.088 304.219 257.221L269.702 311.495L221.624 299.983C221.318 299.565 221.284 299.128 220.978 298.711ZM221.776 297.191L250.434 272.609C252.093 273.955 254.229 274.389 255.334 273.286C256.005 272.506 256.178 271.176 255.724 270.038L301.183 256.997L221.776 297.191ZM250.817 266.873L230.999 231.54C231.272 231.52 231.432 231.216 231.512 231.064C231.944 230.741 232.103 230.437 232.15 229.848L252.355 236.901L251.715 266.663C251.363 266.834 251.09 266.854 250.817 266.873ZM232.276 229.107C232.209 228.233 231.755 227.095 230.676 226.147C230.483 226.014 230.29 225.881 230.097 225.749L253.922 166.818C253.922 166.818 253.922 166.818 254.115 166.951L252.481 236.16L232.276 229.107ZM252.65 165.737C252.843 165.87 253.036 166.003 253.229 166.135L229.518 225.351C228.859 225.105 228.2 224.859 227.461 224.765L204.722 179.978L251.957 165.055C252.07 165.339 252.263 165.472 252.65 165.737ZM203.483 179.334L181.157 186.338C181.043 186.053 180.85 185.92 180.464 185.655C180.158 185.238 179.578 184.84 179.112 184.727L183.305 141.684C183.771 141.797 184.044 141.778 184.51 141.891L203.483 179.334ZM181.374 140.358C181.68 140.775 182.26 141.173 182.726 141.286L178.533 184.329C177.874 184.083 177.328 184.122 176.782 184.16L154.622 149.286L180.874 139.808C181.068 139.94 181.181 140.225 181.374 140.358ZM153.384 148.642L134.252 155.565C134.059 155.433 133.946 155.148 133.753 155.015C133.253 154.465 132.867 154.2 132.208 153.954L133.184 119.045C133.65 119.158 134.196 119.12 134.469 119.1L153.384 148.642ZM130.787 117.605C131.286 118.155 131.673 118.421 132.332 118.667L131.381 151.524L125.984 112.238L129.507 114.037C129.141 115.234 129.708 116.657 130.787 117.605ZM130.617 153.482C129.878 153.388 129.252 153.579 128.82 153.902L33.9878 64.7635L33.8745 64.4788L33.9543 64.3267L124.666 111.746L130.617 153.482ZM128.308 154.378C128.148 154.682 128.068 154.834 127.909 155.138L50.7599 125.931L31.9516 65.6402C32.4974 65.6014 32.8501 65.4299 33.2027 65.2585L128.308 154.378ZM49.9076 125.552L31.9187 118.78C31.9314 117.755 31.3983 116.768 30.3992 115.668C29.8996 115.118 29.5134 114.852 28.8543 114.607L29.4513 100.95L30.9399 65.5657C30.9399 65.5657 31.133 65.6984 31.2128 65.5463L49.9076 125.552ZM30.0965 121.252L61.8823 168.323C61.8026 168.475 61.5297 168.495 61.4499 168.647C60.9377 169.122 60.7319 170.015 60.8788 170.737L40.463 168.09L29.5508 121.291C29.8237 121.271 30.0168 121.404 30.0965 121.252ZM61.139 171.743C61.3657 172.312 61.7855 173.015 62.4781 173.697C62.8643 173.963 63.1708 174.38 63.6368 174.493L54.2967 224.343C54.1035 224.21 54.0238 224.362 53.8307 224.229L40.9961 169.077L61.139 171.743ZM56.3075 225.517C55.9213 225.252 55.6148 224.834 55.1488 224.721L64.7619 174.852C64.955 174.985 65.2279 174.966 65.421 175.098L80.6197 221.739L57.2268 226.769C56.7273 226.219 56.4208 225.802 56.3075 225.517ZM80.7665 222.46L91.6503 255.794C91.1046 255.833 90.7519 256.004 90.3195 256.328L57.4618 229.827C57.8606 229.066 57.7935 228.193 57.4535 227.339L80.7665 222.46ZM117.495 307.68L95.1092 262.721C95.4619 262.55 95.7348 262.53 95.8943 262.226C96.9985 261.123 96.6376 258.806 95.0592 257.308C94.673 257.043 94.3665 256.626 93.9005 256.512L96.7073 221.62L117.495 307.68C117.688 307.812 117.495 307.68 117.495 307.68ZM214.462 299.614L122.096 310.427C121.79 310.009 121.484 309.592 121.177 309.174C120.984 309.042 120.598 308.776 120.405 308.644L138.423 246.759L214.408 297.714C214.168 298.171 214.315 298.892 214.462 299.614ZM246.458 342.279L220.461 302.7C220.541 302.548 220.814 302.529 220.894 302.377C221.326 302.053 221.372 301.464 221.612 301.008L269.03 312.275L249.607 342.787C248.641 342.123 247.436 341.916 246.458 342.279ZM364.173 335.226L251.605 344.987C251.378 344.417 250.879 343.867 250.572 343.45L270.235 312.482L364.059 334.941C363.979 335.093 363.979 335.093 364.173 335.226ZM364.87 332.395L364.79 332.547C364.357 332.87 364.231 333.611 364.185 334.2L270.827 311.854L305.105 258.036C306.263 258.832 307.468 259.039 308.446 258.677L364.87 332.395ZM302.72 255.571L254.998 268.918C254.885 268.633 254.498 268.368 254.385 268.083C253.886 267.533 253.306 267.135 252.84 267.022L253.48 237.261L302.426 254.128C302.38 254.716 302.493 255.001 302.72 255.571ZM303.703 251.695C303.43 251.714 303.27 252.018 302.997 252.038C302.565 252.361 302.405 252.665 302.359 253.254L253.413 236.387L255.047 167.177C255.513 167.29 255.786 167.271 256.059 167.252L303.703 251.695ZM187.105 139.95L251.05 162.777C251.084 163.214 251.117 163.651 251.424 164.068L204.462 178.972L185.761 141.509C186.114 141.338 186.387 141.319 186.546 141.015C186.706 140.71 186.865 140.406 187.105 139.95ZM179.741 136.96C179.695 137.549 179.922 138.119 180.148 138.688L153.896 148.167L135.254 118.605C135.334 118.453 135.606 118.434 135.686 118.282C135.846 117.978 136.198 117.806 136.165 117.369L179.741 136.96ZM131.635 111.982C131.09 112.021 130.464 112.212 129.952 112.688C129.872 112.84 129.712 113.144 129.633 113.296L125.917 111.364L118.515 57.8747L131.635 111.982ZM116.555 52.5978L124.599 110.873L34.0803 63.5858C34.0467 63.149 34.0929 62.5602 33.8663 61.9908L113.352 50.1907C113.658 50.6081 113.965 51.0254 114.271 51.4428C115.044 51.9734 115.896 52.352 116.555 52.5978ZM113.285 49.3172L33.7992 61.1173C33.4927 60.6999 33.3794 60.4152 32.9932 60.1499L60.9598 25.3711L113.104 48.1589C112.945 48.463 112.978 48.8998 113.285 49.3172ZM79.958 7.18595L113.709 46.5057C113.549 46.8098 113.197 46.9813 113.23 47.418L61.472 24.8955L76.2636 6.71673C77.502 7.36058 78.9 7.70033 79.958 7.18595ZM20.612 6.13598L74.3451 4.3646C74.5718 4.93402 74.8782 5.35138 75.4576 5.74935L60.5065 24.2322L20.7589 6.85748C20.6456 6.57276 20.7253 6.42069 20.612 6.13598ZM20.0744 8.66274C20.234 8.35863 20.5867 8.18717 20.5531 7.7504L59.9145 24.8599L32.5398 59.011L18.4707 9.21594C19.0165 9.17712 19.642 8.98626 20.0744 8.66274ZM15.8679 8.66911C16.4472 9.06707 16.9132 9.18031 17.3792 9.29356L31.3685 59.2407C29.937 58.4642 28.3795 58.4286 27.4348 59.2277C26.4901 60.0268 26.511 61.4891 27.3506 62.8933L-31.4053 89.7608L15.8679 8.66911ZM28.1566 63.8607C28.3497 63.9933 28.3497 63.9933 28.463 64.278C28.6561 64.4107 28.6561 64.4107 28.8492 64.5433L7.48564 110.271L-31.5775 91.0905L28.1566 63.8607ZM-31.8966 91.6988L7.16654 110.879L-14.915 157.975C-15.3012 157.709 -15.7672 157.596 -16.0401 157.615L-31.8966 91.6988ZM-13.0637 159.453L26.6415 120.326C27.2208 120.724 27.9932 121.255 28.7321 121.349L39.7241 167.996L-12.1108 161.142C-12.3375 160.573 -12.5642 160.003 -13.0637 159.453ZM-11.8506 162.148L39.9844 169.002L53.012 224.288C52.4662 224.326 51.9204 224.365 51.488 224.689L-12.1824 163.782C-11.9431 163.326 -11.817 162.585 -11.8506 162.148ZM-12.8877 164.125L50.7827 225.032C50.6231 225.336 50.5434 225.488 50.3838 225.792L-14.708 201.143L-15.1506 164.432C-14.2186 164.659 -13.3999 164.601 -12.8877 164.125ZM-59.1155 182.636L-18.0136 162.879C-17.8205 163.012 -17.8205 163.012 -17.7072 163.297C-17.2077 163.847 -16.6283 164.245 -15.9692 164.491L-15.4468 201.05L-58.402 184.781C-58.5489 184.06 -58.6958 183.338 -59.1155 182.636ZM-59.0864 186.586C-58.7337 186.415 -58.4944 185.959 -58.528 185.522L-15.3798 201.923L-14.5776 259.981C-14.8504 260 -15.3164 259.887 -15.5893 259.906L-23.565 246.567L-59.5986 187.062C-59.4391 186.758 -59.3593 186.606 -59.0864 186.586ZM-60.4173 187.12L-24.8833 246.075L-16.408 259.965C-16.4877 260.117 -16.7607 260.136 -16.8404 260.288C-17.2729 260.612 -17.3988 261.353 -17.4451 261.941L-49.3847 255.722L-60.963 187.159C-60.7699 187.292 -60.6902 187.14 -60.4173 187.12ZM-61.9748 187.085L-50.3965 255.648L-77.7895 250.276C-77.9364 249.555 -78.4695 248.568 -79.1622 247.885C-79.3553 247.753 -79.7415 247.487 -79.9346 247.355L-62.4408 186.971C-62.3611 186.819 -62.1679 186.952 -61.9748 187.085ZM-63.4064 186.308L-80.9002 246.691C-82.2184 246.2 -83.503 246.145 -84.4477 246.944C-84.6072 247.248 -84.9599 247.419 -84.9263 247.856L-123.435 231.125L-63.9857 185.91C-63.5995 186.175 -63.5995 186.175 -63.4064 186.308ZM-200.328 196.922L-65.8623 186.483L-124.367 230.899L-200.261 197.796C-200.294 197.359 -200.215 197.207 -200.328 196.922ZM-200.387 198.537L-125.073 231.242L-148.664 249.168C-150.049 247.802 -151.993 247.501 -153.131 248.168L-200.706 199.145C-200.626 198.993 -200.546 198.841 -200.387 198.537ZM-203.015 200.041C-202.469 200.002 -201.923 199.964 -201.298 199.773L-153.723 248.795C-154.634 250.031 -154.386 252.063 -152.808 253.561L-152.615 253.694L-187.699 316.06C-188.085 315.795 -188.358 315.814 -188.744 315.549L-203.015 200.041ZM-186.54 316.856L-186.734 316.723L-151.649 254.357C-151.07 254.755 -150.604 254.868 -149.865 254.962L-130.305 314.321L-185.235 318.373C-185.734 317.823 -186.041 317.406 -186.54 316.856ZM-185.168 319.247L-130.238 315.194L-114.393 363.107C-114.939 363.145 -115.291 363.317 -115.531 363.773C-115.61 363.925 -115.77 364.229 -115.85 364.381L-184.954 320.842C-184.987 320.405 -184.941 319.816 -185.168 319.247ZM-185.705 321.773C-185.626 321.621 -185.546 321.469 -185.466 321.317L-116.362 364.857L-116.442 365.009L-187.13 342.515L-188.128 322.385C-187.196 322.611 -186.297 322.401 -185.705 321.773ZM-244.61 313.373C-244.257 313.201 -243.984 313.182 -243.825 312.878C-243.313 312.402 -243.187 311.661 -243.141 311.073L-192.137 319.01C-192.137 319.01 -192.137 319.01 -192.024 319.295L-234.837 326.292C-235.144 325.874 -235.45 325.457 -235.837 325.192C-236.915 324.244 -238.234 323.752 -239.325 323.83L-244.61 313.373ZM-245.508 313.583L-240.064 323.736C-240.417 323.907 -240.69 323.927 -240.849 324.231C-241.441 324.858 -241.567 325.599 -241.5 326.473L-252.243 325.919L-247.372 313.13C-246.793 313.528 -246.054 313.622 -245.508 313.583ZM-288.247 323.941L-249.417 311.519C-249.304 311.804 -249.11 311.936 -248.724 312.202C-248.531 312.334 -248.338 312.467 -248.145 312.6L-252.982 325.825L-288.247 323.941C-288.327 324.093 -288.327 324.093 -288.247 323.941ZM-288.717 327.342C-288.125 326.714 -287.999 325.973 -288.067 325.1L-253.654 326.605L-279.116 395.167C-279.31 395.034 -279.582 395.054 -279.776 394.921L-290.594 327.914C-289.855 328.008 -289.23 327.817 -288.717 327.342ZM-322.144 391.054C-322.337 390.921 -322.337 390.921 -322.53 390.788L-292.458 327.461L-292.265 327.594L-294.591 396.121L-320.884 393.16C-321.031 392.438 -321.451 391.736 -322.144 391.054ZM-321.901 396.599C-321.628 396.58 -321.468 396.276 -321.115 396.104C-320.603 395.628 -320.477 394.888 -320.544 394.014L-294.524 396.995L-295.946 442.768C-296.412 442.654 -296.878 442.541 -297.151 442.561L-321.901 396.599ZM-293.742 444.075C-293.935 443.942 -293.935 443.942 -294.128 443.81L-280.091 401.531C-279.625 401.644 -278.966 401.89 -278.5 402.003L-258.561 449.624L-292.176 446.598C-292.63 445.46 -293.049 444.758 -293.742 444.075ZM-292.508 448.232C-292.349 447.928 -292.382 447.491 -292.223 447.187L-258.414 450.346L-244.642 483.181C-244.995 483.353 -245.348 483.524 -245.507 483.829C-245.587 483.981 -245.667 484.133 -245.667 484.133L-292.508 448.232ZM-295.795 449.491C-294.67 449.85 -293.499 449.62 -292.907 448.993L-246.259 484.76C-246.418 485.064 -246.305 485.349 -246.271 485.786L-296.049 479.518C-296.263 477.923 -297.842 476.425 -299.353 475.8L-295.795 449.491ZM-297.693 448.601L-297.999 448.184C-297.613 448.449 -297.307 448.866 -296.841 448.98L-300.205 475.422C-301.956 475.253 -303.333 476.376 -303.199 478.123C-303.279 478.275 -303.085 478.408 -303.085 478.408L-312.225 477.301L-329.958 475.049C-330.071 474.764 -330.071 474.764 -330.185 474.479C-330.298 474.195 -330.298 474.195 -330.411 473.91L-297.693 448.601ZM-356.397 524.943L-334.362 478.436C-333.976 478.701 -333.51 478.814 -333.237 478.795C-332.771 478.908 -332.305 479.022 -331.952 478.85L-321.731 496.421L-356.397 524.943ZM-355.512 525.758L-321.118 497.256L-302.581 529.021C-303.366 529.516 -304.038 530.296 -303.857 531.454L-354.979 526.745C-355.092 526.46 -355.205 526.176 -355.512 525.758ZM-354.697 529.214C-354.538 528.909 -354.572 528.473 -354.605 528.036C-354.525 527.884 -354.718 527.751 -354.639 527.599L-303.79 532.327C-303.757 532.764 -303.45 533.182 -303.144 533.599L-324.178 552.661L-354.697 529.214ZM-364.978 576.348L-358.61 530.663C-358.417 530.796 -358.144 530.776 -357.951 530.909C-356.746 531.116 -355.575 530.886 -355.176 530.126L-324.77 553.288L-366.247 590.784C-366.44 590.652 -366.633 590.519 -367.019 590.254L-364.978 576.348ZM-365.281 591.448L-323.804 553.952L-279.201 588.108C-279.36 588.412 -279.406 589.001 -279.373 589.438C-279.453 589.59 -279.339 589.875 -279.339 589.875L-364.475 592.415C-364.588 592.13 -364.895 591.713 -365.281 591.448ZM-363.774 595.586C-363.615 595.282 -363.648 594.845 -363.682 594.408C-363.715 593.971 -363.829 593.687 -363.942 593.402L-278.806 590.861C-278.579 591.431 -278.273 591.848 -277.694 592.246L-313.209 635.906L-363.774 595.586ZM-364.685 596.822C-364.606 596.669 -364.253 596.498 -364.173 596.346L-313.801 636.533L-325.667 651.137C-326.246 650.739 -326.712 650.626 -327.371 650.38C-328.03 650.134 -328.576 650.173 -328.928 650.344L-364.685 596.822ZM-323.568 654.648C-323.555 653.622 -324.281 652.502 -324.974 651.82L-313.029 637.064L-252.129 685.725C-252.208 685.877 -252.208 685.877 -252.288 686.029L-276.889 675.335L-323.454 654.932C-323.647 654.8 -323.647 654.8 -323.568 654.648ZM-324.491 656.909C-324.139 656.737 -323.899 656.281 -323.66 655.825L-276.822 676.209L-252.494 686.922C-252.494 686.922 -252.574 687.074 -252.381 687.207C-252.427 687.795 -252.2 688.365 -251.894 688.782L-287.999 704.524L-324.491 656.909ZM-288.785 705.019L-343.728 729.127C-344.035 728.71 -344.421 728.444 -345 728.046L-327.686 656.99C-327.493 657.122 -327.22 657.103 -327.027 657.236C-326.368 657.482 -325.742 657.291 -325.197 657.252L-288.785 705.019ZM-362.968 650.13L-330.763 653.842C-330.31 654.981 -329.504 655.948 -328.538 656.611L-345.852 727.668C-346.046 727.535 -346.125 727.687 -346.318 727.555L-362.968 650.13ZM-343.115 729.962L-288.172 705.854L-273.336 725.146C-273.849 725.622 -274.247 726.382 -274.18 727.256C-274.26 727.408 -274.147 727.693 -274.147 727.693L-343.115 729.962C-342.922 730.094 -343.115 729.962 -343.115 729.962ZM-342.515 731.822C-342.628 731.537 -342.549 731.385 -342.662 731.101L-273.966 728.851C-273.74 729.42 -273.24 729.97 -272.934 730.388L-300.691 770.275L-343.04 733.323C-342.528 732.848 -342.288 732.391 -342.515 731.822ZM-343.712 734.103C-343.439 734.084 -343.359 733.931 -343.2 733.627L-300.85 770.579L-311.637 786.131C-312.023 785.866 -312.682 785.62 -313.148 785.506C-313.614 785.393 -314.08 785.28 -314.433 785.451L-343.712 734.103ZM-376.01 760.114C-376.077 759.24 -376.417 758.386 -377.11 757.704L-348.258 733.255C-347.566 733.938 -346.907 734.184 -345.975 734.41C-345.509 734.523 -344.963 734.485 -344.69 734.465L-315.411 785.814C-316.036 786.005 -316.355 786.613 -316.595 787.069L-376.17 760.418C-375.897 760.399 -375.817 760.247 -376.01 760.114ZM-376.103 761.291L-316.528 787.943C-316.607 788.095 -316.607 788.095 -316.494 788.379C-316.381 788.664 -316.347 789.101 -316.234 789.385L-360.206 795.586L-377.367 762.699C-376.661 762.356 -376.149 761.88 -376.103 761.291ZM-426.136 804.08L-381.288 761.66C-380.708 762.058 -379.936 762.589 -379.197 762.683C-378.731 762.796 -378.458 762.776 -378.185 762.757L-361.025 795.645L-425.523 804.915C-425.829 804.498 -425.943 804.213 -426.136 804.08ZM-425.036 806.491C-425.149 806.206 -425.183 805.769 -425.103 805.617L-360.605 796.347L-333.249 848.856C-333.875 849.047 -334.387 849.523 -334.433 850.112L-424.809 807.06C-425.003 806.927 -424.923 806.775 -425.036 806.491ZM-425.368 808.124C-425.288 807.972 -425.208 807.82 -425.128 807.668L-334.752 850.72C-334.832 850.872 -334.639 851.005 -334.719 851.157C-334.798 851.309 -334.685 851.594 -334.685 851.594L-375.991 853.213L-425.368 808.124ZM-423.802 810.648L-376.97 853.576L-382.893 853.85C-383.54 852.579 -385.005 851.366 -386.403 851.026C-387.142 850.932 -387.881 850.838 -388.586 851.181L-423.802 810.648ZM-382.772 856.623C-382.612 856.319 -382.566 855.73 -382.6 855.293C-382.52 855.141 -382.633 854.857 -382.633 854.857L-376.164 854.543L-334.532 892.863L-382.772 856.623ZM-385.593 857.995C-384.388 858.202 -383.49 857.992 -383.091 857.231L-332.035 895.613C-332.194 895.917 -332.24 896.506 -332.207 896.943C-332.026 898.101 -331.493 899.088 -330.607 899.903L-383.652 968.963C-384.039 968.697 -384.425 968.432 -385.084 968.186L-385.593 857.995ZM-382.767 969.778L-329.642 900.567C-329.449 900.699 -329.256 900.832 -329.256 900.832L-338.021 954.593L-341.184 974.141C-341.184 974.141 -341.377 974.008 -341.456 974.16C-343.514 973.574 -344.97 974.849 -344.836 976.596L-381.507 971.884C-381.654 971.163 -382.074 970.461 -382.767 969.778ZM-381.44 972.758L-344.769 977.47C-344.429 978.324 -343.896 979.31 -342.93 979.974L-352.449 1000.12L-381.965 974.259C-381.533 973.935 -381.486 973.347 -381.44 972.758ZM-432.526 939.941L-388.531 969.749C-388.69 970.053 -388.657 970.49 -388.623 970.926C-388.569 972.826 -386.684 974.741 -384.627 975.327C-384.161 975.44 -383.695 975.553 -383.342 975.382L-360.536 1011.53L-432.526 939.941ZM-433.744 940.759C-433.471 940.74 -433.391 940.588 -433.118 940.568L-361.321 1012.02C-361.56 1012.48 -361.879 1013.09 -361.732 1013.81C-361.812 1013.96 -361.619 1014.09 -361.699 1014.24L-400.41 1013.92L-433.744 940.759ZM-480.538 1011.42L-436.892 940.251C-436.506 940.516 -436.04 940.63 -435.381 940.875C-435.108 940.856 -434.915 940.989 -434.449 941.102L-401.342 1013.7L-479.312 1013.09C-479.538 1012.52 -480.038 1011.97 -480.538 1011.42ZM-478.745 1014.52C-478.665 1014.36 -478.858 1014.23 -478.779 1014.08L-400.809 1014.68L-387.159 1044.75C-388.057 1044.96 -388.649 1045.58 -388.855 1046.48L-478.745 1014.52C-478.825 1014.67 -478.825 1014.67 -478.745 1014.52ZM-478.951 1015.41L-388.788 1047.35C-388.754 1047.79 -388.641 1048.07 -388.528 1048.36L-455.666 1060.16L-480.101 1017.1C-479.669 1016.78 -479.077 1016.15 -478.951 1015.41ZM-528.262 990.224L-486.235 1012.27C-486.314 1012.42 -486.201 1012.7 -486.281 1012.86C-486.134 1013.58 -485.907 1014.15 -485.681 1014.72L-520.007 1034.58L-530.617 991.709C-529.525 991.632 -528.66 990.984 -528.262 990.224ZM-588.772 1074.01L-533.253 990.726C-532.674 991.123 -532.208 991.237 -531.549 991.483L-520.712 1034.92L-588.579 1074.15C-588.659 1074.3 -588.579 1074.15 -588.772 1074.01ZM-587.252 1077.13C-587.399 1076.4 -587.626 1075.84 -588.046 1075.13L-520.531 1036.08L-501.64 1111.73C-502.732 1111.81 -503.517 1112.31 -503.802 1113.35L-587.139 1077.41C-587.059 1077.26 -587.059 1077.26 -587.252 1077.13Z" fill="url(#paint0_linear_1_42)" fill-opacity="0.3"/>
<defs>
<linearGradient id="paint0_linear_1_42" x1="54.5981" y1="298.311" x2="-424.24" y2="995.376" gradientUnits="userSpaceOnUse">
<stop stop-color="#32202B"/>
<stop offset="0.1801" stop-color="#425667"/>
<stop offset="0.486" stop-color="#2ADACC"/>
<stop offset="0.784108" stop-color="#425667"/>
<stop offset="0.810151" stop-color="#425667"/>
<stop offset="0.9994" stop-color="#425667"/>
</linearGradient>
</defs>
</svg>
