<svg width="335" height="1139" viewBox="0 0 335 1139" fill="none" xmlns="http://www.w3.org/2000/svg">
<path d="M1104.82 224.143C1103.38 223.326 1102.01 223.851 1101.39 224.935L1028.22 171.241C1028.22 171.241 1028.33 171.11 1028.17 170.938C1028.54 169.075 1027.14 166.786 1025.26 165.754C1023.98 165.11 1022.83 165.374 1022 165.984L950.226 95.6589C950.45 95.3983 950.403 95.0954 950.356 94.7926C950.729 92.9296 949.321 90.6407 947.447 89.6091C945.573 88.5775 943.868 89.4934 943.496 91.3565C943.431 91.7897 943.524 92.3955 943.617 93.0012L889.058 100.145C888.49 99.0217 887.697 98.159 886.681 97.5569C884.807 96.5254 883.102 97.4414 882.73 99.3044C882.665 99.7376 882.711 100.04 882.646 100.474L843.827 101.061C843.37 99.8074 842.42 98.7721 841.133 98.1279C840.276 97.6983 839.465 97.5716 838.859 97.9204L801.424 39.0182C801.759 38.6272 802.206 38.1059 802.225 37.3699C802.597 35.5068 801.189 33.2179 799.316 32.1863C797.759 31.4998 796.23 31.8523 795.765 33.1097L754.32 6.38977C754.693 4.52672 753.285 2.23781 751.411 1.20627C749.537 0.174724 747.832 1.09061 747.46 2.95367C747.218 3.95042 747.675 5.20399 748.197 6.0245L712.713 35.951C712.237 35.4334 711.808 35.2187 711.221 34.8314C709.348 33.7999 707.642 34.7158 707.27 36.5788C706.898 38.4419 708.305 40.7309 710.179 41.7624C710.179 41.7624 710.338 41.9349 710.449 41.8046L715.66 158.631L715.39 158.589L715.754 159.236L715.922 161.184L716.434 160.229L757.823 225.956C757.488 226.347 757.04 226.868 757.022 227.605C756.715 229.034 757.489 230.633 758.598 231.841L739.549 275.123C739.391 274.95 739.39 274.95 739.12 274.908C737.247 273.877 735.541 274.792 735.169 276.655C734.908 278.388 735.999 280.332 737.491 281.452L648.82 363.368C648.503 363.023 647.915 362.636 647.487 362.421C645.613 361.389 643.908 362.305 643.535 364.168C643.163 366.031 644.571 368.32 646.444 369.352C647.144 369.609 647.843 369.866 648.337 369.647L712.089 491.479C711.484 491.828 711.036 492.349 710.906 493.215C710.776 494.082 711.028 494.86 711.279 495.638L672.53 512.936C672.008 512.116 671.262 511.556 670.563 511.299C668.69 510.267 666.984 511.183 666.612 513.046C666.416 514.346 666.92 515.903 668.029 517.11L647.151 551.092C646.993 550.919 646.722 550.877 646.405 550.532C644.532 549.5 642.826 550.416 642.454 552.279C642.082 554.142 643.49 556.431 645.363 557.463C645.522 557.635 645.634 557.505 645.792 557.677L654.481 644.012C653.13 643.801 652.077 644.671 651.928 646.273C651.556 648.136 652.964 650.425 654.837 651.457C656.124 652.101 657.158 651.967 657.988 651.357L696.145 690.126C695.921 690.386 695.856 690.82 695.791 691.253C695.531 692.985 696.51 695.06 698.271 696.222L691.959 722.872C691.241 723.351 690.887 724.478 691.074 725.689L636.038 723.744C635.832 723.268 635.786 722.965 635.469 722.62C634.266 720.807 632.01 719.863 630.687 720.691C629.587 721.258 629.28 722.688 629.784 724.245L621.312 726.616L574.845 740.049C573.642 738.235 571.545 737.464 570.063 738.12C568.74 738.947 568.573 741.286 569.775 743.099C570.139 743.747 570.456 744.092 571.043 744.48L556.964 795.188C556.106 794.759 555.025 794.59 554.196 795.199L530.356 765.465L481.222 809.516C479.954 808.136 478.173 807.71 477.12 808.58C476.515 808.929 476.226 809.623 475.937 810.317L432.958 795.032C432.976 794.296 432.724 793.518 432.09 792.828C430.888 791.014 428.632 790.071 427.309 790.899C426.703 791.247 426.302 792.071 426.284 792.808L356.013 770.748C355.92 770.142 355.668 769.364 355.146 768.544C353.943 766.73 351.687 765.787 350.364 766.614C349.041 767.442 348.874 769.781 350.076 771.594C350.598 772.415 351.186 772.802 351.931 773.362L347.852 821.346C347.153 821.089 346.388 821.266 345.783 821.614C344.571 822.312 344.311 824.045 345.131 825.946L257.233 868.376L257.438 868.852C256.599 867.686 255.537 866.781 254.455 866.613L242.709 817.782C243.091 817.694 243.362 817.736 243.585 817.475C244.908 816.647 245.076 814.309 243.873 812.496C242.67 810.682 240.414 809.739 239.091 810.566C238.262 811.176 237.861 812 238.048 813.211L145.607 803.059C145.402 802.584 145.197 802.108 144.88 801.763C143.994 800.295 142.549 799.478 141.244 799.57L124.774 755.174C124.886 755.043 124.886 755.043 125.156 755.086C126.479 754.258 126.646 751.919 125.444 750.106C124.241 748.292 121.985 747.349 120.662 748.177C119.944 748.656 119.544 749.48 119.572 750.519L7.56678 734.946C7.36162 734.471 7.26827 733.865 6.79281 733.348C5.59005 731.534 3.33431 730.591 2.01104 731.418C0.68777 732.246 0.520584 734.585 1.72334 736.398C2.60913 737.867 4.32428 738.726 5.62909 738.634L44.4223 823.463L44.3105 823.593C42.9872 824.421 42.8201 826.76 44.0228 828.573C44.8619 829.739 46.195 830.686 47.2761 830.855L74.6821 923.955C74.4118 923.912 74.1882 924.173 73.9179 924.131C72.5946 924.959 72.4274 927.297 73.6302 929.111C74.8329 930.924 77.0887 931.868 78.4119 931.04C78.9059 930.821 79.1295 930.561 79.3064 929.997L136.514 966.568C136.272 967.565 136.57 968.646 137.409 969.812C138.612 971.625 140.868 972.569 142.191 971.741C142.415 971.48 142.797 971.392 142.862 970.959L180.784 999.641C180.542 1000.64 180.887 1002.02 181.456 1003.15C181.978 1003.97 182.882 1004.7 183.581 1004.95L184.323 1066.25C183.783 1066.17 183.13 1066.22 182.525 1066.56C181.201 1067.39 181.034 1069.73 182.237 1071.54C183.281 1073.19 184.996 1074.04 186.255 1073.65L210.34 1119.53C209.017 1120.36 208.961 1122.57 210.211 1124.68C211.414 1126.5 213.669 1127.44 214.993 1126.61C215.71 1126.13 216.111 1125.31 216.083 1124.27L268.847 1134.58C268.94 1135.19 269.304 1135.83 269.509 1136.31C270.712 1138.12 272.968 1139.07 274.291 1138.24C275.614 1137.41 275.781 1135.07 274.579 1133.26L274.42 1133.09L339.551 1063.6L339.868 1063.95L339.775 1063.34L340.781 1062.17L339.747 1062.3L339.059 994.509C339.6 994.593 340.252 994.547 340.858 994.199C341.957 993.631 342.265 992.201 341.761 990.645L386.356 980.467C386.514 980.639 386.514 980.639 386.561 980.942C387.764 982.756 390.02 983.699 391.343 982.871C392.666 982.044 392.768 980.138 391.836 978.367L527.068 998.306C527.273 998.782 527.367 999.387 527.842 999.905C529.045 1001.72 531.301 1002.66 532.624 1001.83C533.947 1001.01 534.114 998.668 532.911 996.854C532.389 996.034 531.802 995.647 531.215 995.259L543.023 879.318C543.722 879.575 544.645 879.571 545.25 879.222C545.856 878.874 546.145 878.18 546.322 877.616L594.251 896.777C594.233 897.514 594.643 898.464 595.165 899.285C596.368 901.098 598.624 902.042 599.947 901.214C600.888 900.474 601.242 899.347 600.897 897.963L641.523 894.555C641.57 894.857 641.728 895.03 642.045 895.375C643.248 897.189 645.504 898.132 646.827 897.304C648.15 896.476 648.317 894.138 647.115 892.324C646.956 892.152 646.956 892.152 646.798 891.979L690.291 836.998C691.512 838.075 693.022 838.459 693.963 837.719C695.286 836.891 695.454 834.553 694.251 832.739C693.412 831.574 692.237 830.799 691.156 830.63L677.331 780.293C677.713 780.205 677.983 780.247 678.319 779.856C679.642 779.028 679.744 777.123 678.812 775.351L716.638 758.057L716.797 758.23C718 760.043 720.255 760.986 721.579 760.159C722.408 759.549 722.762 758.422 722.575 757.211C722.435 756.302 722.025 755.351 721.503 754.531L753.396 714.142C753.713 714.487 754.142 714.702 754.412 714.744C756.286 715.775 757.991 714.86 758.363 712.996C758.559 711.697 757.896 709.968 756.787 708.76L760.205 700.131L778.396 652.134C780.223 652.863 781.975 652.249 782.077 650.344C782.449 648.481 781.041 646.192 779.168 645.161C778.581 644.773 778.04 644.689 777.658 644.777L755.069 584.647C755.945 584.34 756.504 583.689 756.588 582.519L788.112 593.65L789.36 513.597C790.87 513.981 792.193 513.153 792.342 511.55C792.472 510.684 792.332 509.775 791.81 508.955L825.405 491.591C825.927 492.411 826.514 492.799 827.372 493.228C829.245 494.26 830.951 493.344 831.323 491.481C831.453 490.614 831.313 489.706 830.791 488.885L884.002 457.589C884.478 458.107 885.112 458.797 885.811 459.054C887.684 460.086 889.39 459.17 889.762 457.307C890.134 455.444 888.726 453.155 886.853 452.123C886.154 451.866 885.455 451.609 884.69 451.785L858.153 401.975C858.758 401.626 859.047 400.932 859.336 400.238C859.596 398.505 858.664 396.734 857.172 395.614L881.201 287.937L880.773 287.722C881.9 288.194 883.093 288.232 883.764 287.45L919.964 326.356C919.741 326.617 919.676 327.05 919.611 327.483C919.238 329.346 920.646 331.635 922.52 332.667C924.393 333.698 926.099 332.782 926.471 330.919C926.555 329.75 926.256 328.669 925.417 327.503L983.896 267.916C984.213 268.261 984.642 268.476 985.071 268.691C986.357 269.335 987.774 269.113 988.556 268.201L1024.74 299.271C1024.62 299.401 1024.78 299.574 1024.67 299.704C1024.3 301.567 1025.71 303.856 1027.58 304.888C1029.45 305.919 1031.16 305.003 1031.53 303.14C1031.77 302.144 1031.47 301.062 1030.79 300.069L1103.56 231.334C1103.88 231.679 1104.46 232.067 1104.89 232.281C1106.77 233.313 1108.47 232.397 1108.84 230.534C1107.95 227.29 1106.81 225.044 1104.82 224.143ZM949.22 96.8318C949.602 96.7438 949.825 96.4832 949.937 96.3528L1021.71 166.678C1021.49 166.938 1021.53 167.241 1021.58 167.544C1021.52 167.977 1021.61 168.583 1021.7 169.189L980.192 175.415L949.22 96.8318ZM840.902 105.185C841.331 105.4 842.03 105.657 842.412 105.569L856.886 143.003L834.964 101.746L838.161 101.949C838.506 103.333 839.616 104.541 840.902 105.185ZM902.764 157.41C902.652 157.54 902.699 157.843 902.746 158.146L862.862 149.257C862.722 148.348 862.041 147.355 861.407 146.665L871.348 129.005L902.829 156.977C902.829 156.977 902.876 157.28 902.764 157.41ZM909.513 160.976L945.436 174.124L907.836 162.931C908.6 162.755 909.271 161.973 909.513 160.976ZM904.657 161.991L871.745 152.122L902.774 159.185C903.184 160.136 903.753 161.259 904.657 161.991ZM860.615 145.802C860.457 145.63 860.186 145.587 860.028 145.415C859.44 145.027 858.9 144.943 858.518 145.031L843.176 105.393C843.558 105.305 843.782 105.044 844.117 104.653L870.555 128.143L860.615 145.802ZM857.26 145.426C856.766 145.644 856.318 146.166 856.3 146.902L749.906 95.85L749.589 95.5049L749.542 95.202L833.93 101.88L857.26 145.426ZM856.17 147.768C856.216 148.071 856.263 148.374 856.31 148.677L789.821 155.435L749.105 97.4983C749.328 97.2377 749.664 96.8466 749.729 96.4135L856.17 147.768ZM823.506 199.416C823.254 198.638 822.89 197.99 822.415 197.472L858.081 151.613C858.398 151.958 858.669 152.001 859.097 152.215C859.097 152.215 859.256 152.388 859.368 152.258L861.925 203.939L823.506 199.416ZM894.472 208.875C894.678 209.35 894.883 209.826 895.088 210.301L865.8 233.363C865.325 232.845 864.737 232.458 864.309 232.243C864.309 232.243 864.15 232.07 864.038 232.201L862.652 205.235L894.472 208.875ZM761.244 225.899L770.455 161.573C771.154 161.83 771.806 161.784 772.3 161.566L801.41 208.379L762.782 227.322C762.306 226.804 761.831 226.287 761.244 225.899ZM772.906 161.217C773.018 161.087 773.13 160.956 773.241 160.826L816.832 197.192C816.72 197.322 816.767 197.625 816.655 197.755C816.525 198.621 816.665 199.53 817.187 200.35L801.857 207.858L772.906 161.217ZM773.8 160.174C773.912 160.044 773.866 159.741 773.977 159.611C774.043 159.178 773.949 158.572 774.014 158.139L789.737 156.604L817.773 196.452C817.661 196.582 817.661 196.582 817.549 196.712L773.8 160.174ZM790.39 156.558L856.608 149.758C856.813 150.233 857.13 150.578 857.336 151.054L821.669 196.913C821.352 196.567 821.082 196.525 820.653 196.31C819.795 195.881 818.873 195.885 818.108 196.061L790.39 156.558ZM788.786 155.569L773.334 157.146C772.765 156.022 771.972 155.16 770.956 154.558C770.528 154.343 769.987 154.259 769.446 154.174L763.487 138.612L748.164 98.2381L748.276 98.1077L788.786 155.569ZM768.682 154.35C767.806 154.657 767.247 155.308 767.163 156.478C767.015 158.08 767.835 159.982 769.327 161.101L753.659 160.428L747.129 98.372C747.129 98.372 747.129 98.372 747.4 98.4142L768.682 154.35ZM769.467 162.01L760.386 225.47L753.641 161.164L769.467 162.01ZM763.192 228.273L801.978 209.503L836.468 264.693C836.132 265.084 835.909 265.345 835.732 265.908L763.789 230.435C763.649 229.526 763.556 228.921 763.192 228.273ZM802.696 209.023L818.026 201.516C818.501 202.034 819.135 202.724 819.834 202.981C820.263 203.196 820.534 203.238 820.962 203.453L837.567 264.126C837.456 264.256 837.297 264.084 837.185 264.214L802.696 209.023ZM821.838 203.146C821.95 203.016 822.22 203.058 822.332 202.928L854.218 247.219L840.317 264.851C840 264.506 839.73 264.464 839.301 264.249C838.872 264.034 838.602 263.992 838.173 263.777L821.838 203.146ZM855.346 247.691L862.521 238.614C862.679 238.787 862.95 238.829 863.108 239.001C863.537 239.216 864.077 239.3 864.618 239.385L878.748 279.721C878.636 279.851 878.478 279.679 878.366 279.809L855.346 247.691ZM861.887 237.924L854.824 246.87L822.938 202.579C823.05 202.449 823.162 202.318 823.385 202.057L860.534 233.427C860.422 233.557 860.422 233.557 860.469 233.86C860.162 235.29 860.777 236.716 861.887 237.924ZM823.674 201.364C823.739 200.931 823.692 200.628 823.804 200.497L861.953 204.978L863.181 231.771C862.099 231.602 861.382 232.081 860.823 232.733L823.674 201.364ZM866.322 234.183L895.61 211.121C896.085 211.639 896.673 212.026 897.102 212.241C897.372 212.283 897.53 212.456 897.959 212.671L904.64 244.897L866.984 235.912C866.891 235.306 866.798 234.701 866.322 234.183ZM862.624 204.196L860.113 152.818C860.654 152.902 861.036 152.814 861.418 152.726L895.04 205.712C894.705 206.103 894.258 206.624 894.239 207.36C894.286 207.663 894.174 207.794 894.221 208.096L862.624 204.196ZM862.136 152.247C862.471 151.856 862.918 151.334 862.937 150.598L863.049 150.468L956.128 178.454C956.221 179.06 956.268 179.363 956.473 179.838L900.269 207.12C899.747 206.299 899.16 205.912 898.302 205.483C897.445 205.053 896.634 204.926 896.028 205.275L862.136 152.247ZM900.68 208.071L956.883 180.789C957.405 181.61 958.151 182.169 958.85 182.426C959.279 182.641 959.708 182.856 960.09 182.768L968.961 212.085L900.885 208.546C900.838 208.243 900.68 208.071 900.68 208.071ZM996.231 211.024C996.073 210.852 995.644 210.637 995.486 210.464C994.898 210.077 994.358 209.992 993.976 210.08L980.602 176.366L1022.11 170.139C1022.32 170.615 1022.64 170.96 1022.95 171.305L996.231 211.024ZM1022.29 173.862L986.327 259.724L994.714 217.437C996.541 218.166 998.134 217.381 998.395 215.648C998.59 214.348 997.975 212.922 997.136 211.756L1022.29 173.862ZM993.211 210.257C992.829 210.345 992.606 210.605 992.494 210.736L962.783 181.415C962.895 181.285 962.96 180.852 963.072 180.721C963.137 180.288 963.044 179.682 962.95 179.077L980.108 176.584L993.211 210.257ZM991.935 211.387C991.711 211.648 991.758 211.951 991.693 212.384C991.628 212.817 991.674 213.12 991.721 213.423L969.771 212.212L960.901 182.894C961.283 182.806 961.777 182.588 962.112 182.197L991.935 211.387ZM970.023 212.99L991.814 214.029C992.113 215.11 992.905 215.973 993.81 216.705L985.115 260.422C984.845 260.38 984.416 260.165 984.146 260.123L970.023 212.99ZM986.653 261.844L1024.06 172.513C1024.22 172.685 1024.22 172.685 1024.49 172.727C1024.49 172.727 1024.49 172.727 1024.65 172.9L1026.05 251.297L987.651 263.183C987.287 262.535 986.97 262.19 986.653 261.844ZM948.185 96.9659C948.297 96.8356 948.297 96.8356 948.185 96.9659L979.428 175.591L962.27 178.084C961.701 176.96 960.908 176.097 959.78 175.626C959.622 175.453 959.352 175.411 959.081 175.369L948.185 96.9659ZM947.374 96.8392L958.429 175.415C957.777 175.461 957.283 175.679 956.789 175.897L920.477 137.122L945.976 96.3253C946.135 96.4979 946.563 96.7126 946.722 96.8851C946.946 96.6244 947.216 96.6667 947.374 96.8392ZM890.019 102.955C890.084 102.522 889.991 101.916 889.898 101.311L944.298 93.9941C944.503 94.4696 944.82 94.8146 945.296 95.3323L919.796 136.129L889.619 103.779C889.73 103.649 889.795 103.216 890.019 102.955ZM956.342 176.419C956.118 176.679 956.165 176.982 955.941 177.243L909.531 160.24C909.503 159.201 909.046 157.948 908.095 156.913L920.03 137.643L956.342 176.419ZM888.342 104.91C888.724 104.822 888.948 104.561 889.218 104.604L919.554 137.125L907.508 156.525C907.349 156.353 906.921 156.138 906.762 155.965C906.333 155.751 905.793 155.666 905.522 155.624L888.342 104.91ZM887.419 104.914L904.441 155.455C903.947 155.674 903.565 155.762 903.23 156.153L871.748 128.181L885.322 104.143C885.48 104.315 885.751 104.358 885.909 104.53C886.608 104.787 887.037 105.002 887.419 104.914ZM844.583 103.396C844.648 102.963 844.601 102.66 844.508 102.054L883.327 101.467C883.69 102.115 884.054 102.763 884.53 103.28L870.956 127.318L844.518 103.829C844.518 103.829 844.63 103.699 844.583 103.396ZM838.682 98.4839C838.347 98.8749 837.899 99.3962 837.881 100.132C837.928 100.435 837.862 100.868 837.909 101.171L834.442 100.925L804.538 44.6771L838.682 98.4839ZM833.473 100.626L749.514 94.1632C749.309 93.6878 748.945 93.0398 748.74 92.5644L797.91 38.4694C798.227 38.8145 798.656 39.0292 799.084 39.2439C799.783 39.5009 800.482 39.7579 801.247 39.5817L833.473 100.626ZM746.932 91.0996L750.171 37.6636L796.39 36.3107C796.595 36.7862 796.8 37.2616 797.117 37.6067L747.948 91.7017C747.519 91.4869 747.36 91.3144 746.932 91.0996ZM754.731 7.34064L796.175 34.0604C796.11 34.4936 796.157 34.7965 796.25 35.4022L750.302 36.7972L751.926 8.82373C753.119 8.86222 754.106 8.42537 754.731 7.34064ZM713.505 36.8137L749.688 7.14421C750.005 7.48929 750.593 7.87665 751.021 8.09138L749.332 36.4981L713.869 37.4617C713.71 37.2892 713.664 36.9863 713.505 36.8137ZM714.242 39.8847C714.307 39.4515 714.261 39.1486 714.167 38.5429L749.248 37.6673L746.093 89.9341L713.394 41.2301C713.888 41.0117 714.065 40.4482 714.242 39.8847ZM711.53 41.9735C712.071 42.0579 712.453 41.9697 712.835 41.8817L745.533 90.5857C744.182 90.3746 743.129 91.2446 742.822 92.6745C742.515 94.1044 743.289 95.7032 744.398 96.9109L716.35 157.113L711.53 41.9735ZM745.414 97.5129C745.573 97.6855 745.684 97.5552 745.843 97.7278C746.001 97.9003 746.113 97.7699 746.272 97.9425L752.69 160.128L716.965 158.539L745.414 97.5129ZM716.993 159.578L752.83 161.037L759.529 225.04C759.146 225.128 758.876 225.086 758.494 225.174L716.993 159.578ZM762.271 232.562C762.876 232.214 763.324 231.692 763.612 230.998L835.555 266.472C835.601 266.775 835.536 267.208 835.583 267.511L779.486 273.232L762.271 232.562ZM837.355 270.448L821.92 308.087L817.3 319.188L809.15 339.049C808.451 338.792 807.752 338.535 807.258 338.753L779.896 274.183L835.835 268.289C836.245 269.24 836.767 270.06 837.355 270.448ZM740.407 275.552L759.456 232.27C759.614 232.443 759.614 232.443 759.885 232.485C760.472 232.872 761.012 232.957 761.665 232.911L778.88 273.581L741.768 277.538C741.404 276.89 740.882 276.07 740.407 275.552ZM742.141 279.961C742.206 279.528 742.113 278.922 742.178 278.489L779.29 274.532L806.652 339.102C806.428 339.363 806.158 339.321 805.934 339.581L794.263 328.891L741.964 280.525C742.076 280.395 742.029 280.092 742.141 279.961ZM741.564 281.349L793.387 329.198L805.692 340.578C805.581 340.708 805.627 341.011 805.515 341.141C805.497 341.877 805.59 342.483 805.842 343.261L780.913 352.669L741.228 281.74C741.34 281.61 741.452 281.479 741.564 281.349ZM711.76 402.903C711.872 402.773 711.983 402.643 712.095 402.512L743.893 426.543L765.836 443.124C765.725 443.254 765.725 443.254 765.771 443.557C765.529 444.553 765.986 445.807 766.667 446.8L752.783 459.41L711.76 402.903ZM752.065 459.889L716.079 492.545C715.762 492.2 715.174 491.813 714.746 491.598C714.746 491.598 714.587 491.426 714.475 491.556L709.626 403.605C710.166 403.689 710.66 403.471 711.042 403.382L752.065 459.889ZM743.864 425.504L712.542 401.991C712.654 401.861 712.654 401.861 712.608 401.558C712.673 401.125 712.579 400.519 712.486 399.913L760.819 394.309L768.054 441.253C767.131 441.257 766.526 441.606 765.967 442.257L743.864 425.504ZM754.288 364.767C754.763 365.284 755.192 365.499 755.779 365.886C756.05 365.928 756.208 366.101 756.479 366.143L760.679 393.401L712.076 398.963C711.917 398.79 711.871 398.487 711.712 398.315L754.288 364.767ZM710.444 396.934L718.433 364.043L753.085 362.953C753.132 363.256 753.449 363.601 753.495 363.904L711.078 397.624C711.031 397.322 710.603 397.107 710.444 396.934ZM757.289 366.27C758.212 366.266 759.041 365.657 759.442 364.833L797.94 387.841C797.987 388.144 798.192 388.619 798.509 388.964L761.714 393.267L757.289 366.27ZM761.742 394.306L799.19 389.957C799.348 390.13 799.507 390.302 799.665 390.475L770.422 442.066C770.263 441.894 769.993 441.852 769.834 441.679C769.564 441.637 769.406 441.464 769.135 441.422L761.742 394.306ZM771.056 442.757L790.582 408.564L800.569 391.207C800.569 391.207 800.569 391.207 800.728 391.38C801.157 391.595 801.427 391.637 801.697 391.679L816.708 448.852L772.622 445.218C772.053 444.095 771.69 443.447 771.056 442.757ZM759.572 363.966C759.591 363.23 759.497 362.625 759.246 361.846L780.559 353.796L798.014 384.897C797.791 385.157 797.725 385.591 797.66 386.024C797.707 386.327 797.595 386.457 797.642 386.76L759.572 363.966ZM781.435 353.489L806.094 344.04C806.458 344.688 806.933 345.205 807.52 345.593L801.183 384.062C800.213 383.762 799.291 383.766 798.573 384.245L781.435 353.489ZM802.199 384.664L808.425 346.325C809.282 346.754 810.205 346.751 810.811 346.402L844.478 395.405L804.399 387.815C803.942 386.562 803.215 385.266 802.199 384.664ZM739.97 282.135C740.082 282.004 740.24 282.177 740.352 282.046L780.037 352.975L758.723 361.026C758.201 360.205 757.567 359.515 756.71 359.086C756.439 359.043 756.281 358.871 756.011 358.829L739.97 282.135ZM738.73 281.793C738.889 281.966 739.001 281.835 739.159 282.008L755.041 358.529C753.848 358.491 753.066 359.403 752.87 360.703C752.805 361.136 752.74 361.569 752.945 362.044L718.787 362.916L738.73 281.793ZM649.724 364.1L737.389 283.357L717.64 363.181L650.134 365.051C650.088 364.748 649.882 364.273 649.724 364.1ZM650.545 366.002L717.51 364.047L709.428 396.332C707.871 395.646 706.231 396.128 705.924 397.558L650.573 367.041C650.638 366.608 650.591 366.305 650.545 366.002ZM649.436 369.08C649.93 368.862 650.266 368.471 650.442 367.907L705.794 398.425C705.692 400.33 706.941 402.446 708.656 403.305C708.656 403.305 708.815 403.478 708.927 403.348L713.776 491.299C713.506 491.257 713.236 491.215 712.853 491.303L649.436 369.08ZM713.815 498.399C714.402 498.786 715.055 498.74 715.595 498.825L725.732 520.95L687.018 528.204C686.859 528.032 686.654 527.556 686.495 527.384L712.641 497.624C712.958 497.969 713.386 498.184 713.815 498.399ZM673.472 516.483C673.603 515.616 673.351 514.838 673.099 514.06L711.848 496.762L712.007 496.934L685.862 526.694C685.545 526.349 685.116 526.134 684.687 525.919C683.401 525.275 682.366 525.409 681.537 526.018L673.23 517.479C673.295 517.046 673.519 516.785 673.472 516.483ZM671.143 518.483C671.795 518.437 672.289 518.219 672.783 518.001L681.09 526.539C680.866 526.8 680.913 527.103 680.847 527.536C680.717 528.402 681.016 529.484 681.426 530.434L673.868 535.313L671.143 518.483ZM683.598 532.547C683.757 532.72 683.757 532.72 683.598 532.547L687.516 623.013L673.897 536.352L681.948 531.255C682.424 531.773 682.899 532.29 683.598 532.547ZM687.314 594.311L684.726 533.019C685.267 533.103 685.919 533.057 686.413 532.839L734.865 593.905L690.472 628.5C689.997 627.982 689.41 627.595 688.981 627.38C688.981 627.38 688.822 627.207 688.71 627.338L687.314 594.311ZM648.055 551.824L668.934 517.843C669.092 518.015 669.362 518.057 669.679 518.403C669.95 518.445 670.108 518.617 670.379 518.659L673.198 536.095L648.372 552.169C648.055 551.824 648.055 551.824 648.055 551.824ZM648.402 557.494C649.007 557.145 649.296 556.451 649.426 555.585C649.557 554.719 649.258 553.637 648.848 552.687L673.179 536.831L687.424 626.693C687.154 626.651 687.042 626.782 686.772 626.739L648.402 557.494ZM686.054 627.218C685.448 627.567 685.16 628.261 685.029 629.127C684.899 629.994 685.039 630.902 685.561 631.723L678.134 635.735L648.57 559.441L686.054 627.218ZM699.807 689.072C699.649 688.9 699.537 689.03 699.379 688.857L689.402 634.392C689.784 634.304 690.166 634.215 690.66 633.997L726.321 677.104L701.663 690.84C701.299 690.192 700.665 689.502 699.807 689.072ZM687.892 634.008C688.162 634.05 688.321 634.223 688.591 634.265L698.409 688.558L678.227 636.341L685.925 632.371C686.559 633.061 687.193 633.751 687.892 634.008ZM646.873 557.846L647.144 557.888L677.37 635.911L657.958 646.033C657.595 645.385 656.849 644.825 655.991 644.395C655.833 644.223 655.721 644.353 655.563 644.181L646.873 557.846ZM658.5 650.403C658.724 650.142 658.677 649.84 658.742 649.406C658.872 648.54 658.732 647.631 658.21 646.811L677.51 636.82L697.645 688.734C697.263 688.823 696.881 688.911 696.657 689.171L658.5 650.403ZM698.765 696.003C699.194 696.218 699.623 696.433 700.005 696.345L711.114 731.627L703.146 735.555L697.413 728.305C698.307 727.262 698.139 725.315 696.983 723.804C695.938 722.163 694.382 721.477 693.077 721.568L699.147 695.915L698.765 696.003ZM702.429 736.034L689.075 742.668C688.916 742.495 688.758 742.323 688.599 742.15L693.657 728.753C694.673 729.355 695.866 729.393 696.583 728.914L702.429 736.034ZM692.072 727.027C692.389 727.372 692.594 727.848 693.023 728.063L689.008 738.815L692.072 727.027C691.913 726.855 692.072 727.027 692.072 727.027ZM690.054 744.742C690.007 744.439 689.802 743.964 689.755 743.661L703.109 737.027L716.003 753.081C715.78 753.342 715.826 753.644 715.761 754.078L698.601 747.998L690.054 744.742ZM716.562 752.429L703.985 736.721L711.571 732.881L717.55 751.992C717.01 751.908 716.786 752.169 716.562 752.429ZM636.336 724.825L691.233 725.862L687.648 741.115L687.49 740.942C685.774 740.083 684.293 740.739 683.715 742.126L636.336 724.825C636.224 724.955 636.336 724.825 636.336 724.825ZM575.367 740.869L588.265 737.268L630.082 725.326C630.241 725.498 630.288 725.801 630.446 725.974C631.285 727.139 632.189 727.872 633.429 728.213L639.449 762.996L575.619 741.647C575.46 741.475 575.414 741.172 575.367 740.869ZM575.806 742.859L639.589 763.905L648.4 815.085C648.018 815.173 647.636 815.261 647.142 815.48C647.03 815.61 646.919 815.74 646.807 815.871L575.61 744.158C575.629 743.422 575.852 743.162 575.806 742.859ZM628.731 839.797L594.386 876.256C593.91 875.739 593.211 875.482 592.624 875.094L582.289 804.612L646.146 818.428C646.239 819.033 646.603 819.681 646.966 820.329L647.125 820.502L628.731 839.797ZM645.588 823.365L606.774 882.181L595.887 879.151C595.794 878.545 595.542 877.767 595.178 877.119L595.02 876.946L645.588 823.365ZM651.59 822.086C652.195 821.737 652.484 821.043 652.614 820.177L662.243 823.602L645.044 888.306L649.474 822.051C650.331 822.481 650.984 822.435 651.59 822.086ZM652.745 819.311C652.763 818.575 652.511 817.796 651.877 817.106C651.719 816.934 651.402 816.589 651.243 816.416L674.283 778.487L662.532 822.908L652.745 819.311ZM573.569 745.465C573.952 745.377 574.334 745.289 574.557 745.029C574.781 744.768 575.163 744.68 575.116 744.377L646.154 815.917C645.931 816.177 645.754 816.741 645.847 817.347L582.149 803.703L573.569 745.465ZM559.136 797.301C558.772 796.653 558.455 796.308 557.868 795.92L571.948 745.212C572.218 745.254 572.376 745.427 572.647 745.469L581.068 803.534L559.64 798.857C559.705 798.424 559.453 797.646 559.136 797.301ZM559.938 799.938L581.366 804.615L591.701 875.098L591.431 875.056L580.175 849.948L558.736 802.411C558.848 802.281 558.848 802.281 558.96 802.15C559.566 801.802 559.966 800.977 559.938 799.938ZM543.795 872.345L547.331 852.503L589.26 877.229C589.307 877.532 589.195 877.662 589.242 877.965L545.948 875.193C545.743 874.718 545.538 874.243 545.221 873.898C544.857 873.25 544.382 872.732 543.795 872.345ZM547.462 851.636L556.192 802.161C556.621 802.376 557.161 802.46 557.702 802.545L579.299 850.254L590.508 875.059L590.397 875.19C589.903 875.408 589.567 875.799 589.502 876.232L547.462 851.636ZM481.902 810.509L530.59 766.98L553.748 795.72C553.189 796.372 553.106 797.541 553.404 798.622L482.378 811.027C482.219 810.854 482.061 810.682 481.902 810.509ZM482.676 812.108L553.703 799.704C553.861 799.876 553.908 800.179 554.066 800.351C554.43 800.999 554.906 801.517 555.493 801.904L546.604 851.207L482.751 813.45C482.816 813.017 482.723 812.411 482.676 812.108ZM431.691 797.938C431.803 797.807 431.803 797.807 431.915 797.677C432.52 797.328 432.809 796.635 433.098 795.941L476.077 811.225C476.059 811.961 476.311 812.74 476.945 813.43C477.15 813.905 477.625 814.423 478.054 814.637L460.655 859.212C460.068 858.824 459.257 858.698 458.604 858.743L431.691 797.938ZM394.867 874.799L393.076 905.111L363.499 892.068C363.518 891.332 363.424 890.726 363.061 890.078L392.248 873.208C392.882 873.898 393.786 874.63 394.867 874.799ZM395.678 874.926C396.06 874.837 396.442 874.749 396.666 874.489C396.778 874.358 396.889 874.228 397.113 873.967L420.34 915.133C419.846 915.351 419.557 916.045 419.38 916.609L393.887 905.238L395.678 874.926ZM396.161 868.646L416.021 825.491L456.498 860.484C456.321 861.047 456.303 861.783 456.443 862.692L417.085 867.481L397.159 869.984C397.159 869.984 397.159 869.984 397 869.812C396.636 869.164 396.478 868.991 396.161 868.646ZM456.965 863.512C457.124 863.685 457.17 863.988 457.329 864.16C457.487 864.333 457.646 864.505 457.804 864.678L436.758 896.712L397.886 871.28C397.839 870.977 397.681 870.805 397.634 870.502L456.965 863.512ZM436.087 897.493L424.012 915.854C423.108 915.122 422.027 914.953 421.104 914.957L397.672 873.316C397.896 873.055 397.849 872.752 397.914 872.319L436.087 897.493ZM426.082 919.872L487.413 932.703C487.459 933.005 487.506 933.308 487.823 933.653L460.322 946.058L426.222 920.781C426.176 920.478 426.129 920.175 426.082 919.872ZM426.054 918.833C425.961 918.228 425.756 917.752 425.392 917.104C425.234 916.932 425.075 916.759 424.758 916.414L436.944 897.923L487.403 930.928C487.291 931.058 487.338 931.361 487.338 931.361L426.054 918.833ZM437.392 897.402L458.485 865.671C459.231 866.231 460.2 866.53 461.011 866.656L472.565 892.846L488.745 929.364C488.633 929.494 488.633 929.494 488.521 929.624C488.139 929.712 487.804 930.103 487.738 930.537L437.392 897.402ZM473.077 891.891L461.728 866.177C461.84 866.047 461.84 866.047 461.952 865.917C462.669 865.438 463.182 864.483 463.154 863.444L484.237 866.737L490.003 928.969C489.733 928.927 489.733 928.927 489.462 928.885L473.077 891.891ZM463.014 862.536C462.808 862.06 462.715 861.455 462.24 860.937C461.923 860.592 461.718 860.116 461.289 859.902L478.688 815.328C478.958 815.37 479.117 815.542 479.387 815.585L484.255 866.001L463.014 862.536ZM430.927 798.114L457.728 859.05C457.616 859.18 457.616 859.18 457.505 859.311C457.393 859.441 457.169 859.702 457.057 859.832L416.422 824.667L428.876 797.646C429.463 798.033 430.274 798.16 430.927 798.114ZM356.041 771.787L426.312 793.846C426.405 794.452 426.657 795.23 427.179 796.051C427.496 796.396 427.702 796.871 427.972 796.914L415.517 823.934L355.864 772.351C355.976 772.22 355.93 771.917 356.041 771.787ZM355.017 773.696C355.128 773.566 355.352 773.305 355.464 773.175L415.117 824.759L395.257 867.914C394.669 867.527 393.97 867.27 393.318 867.315L354.634 773.784C354.634 773.784 354.746 773.654 355.017 773.696ZM353.33 773.876C353.6 773.918 353.6 773.918 353.87 773.96L392.554 867.492C392.442 867.622 392.283 867.449 392.172 867.58C392.06 867.71 391.948 867.84 391.836 867.971L356.942 833.259L353.33 773.876ZM350.565 823.544C350.042 822.723 349.455 822.336 348.709 821.776L352.51 776.26L356.15 832.396L351.171 827.481C351.684 826.526 351.562 824.882 350.565 823.544ZM391.277 868.622C390.765 869.577 390.84 870.919 391.409 872.042L362.38 889.085C361.7 888.092 360.954 887.532 360.096 887.103L356.858 834.428L391.277 868.622ZM349.131 828.788C349.513 828.7 349.895 828.611 350.277 828.523C350.389 828.393 350.5 828.263 350.612 828.132L356.066 833.566L359.042 883.687L349.131 828.788ZM257.644 869.327L345.495 826.594C346.176 827.587 347.192 828.189 348.161 828.488L358.857 886.761C358.474 886.849 358.092 886.937 357.71 887.025C356.881 887.635 356.48 888.459 356.667 889.67L258.259 870.753C258.212 870.451 258.119 869.845 257.644 869.327ZM356.695 890.709C356.854 890.882 356.742 891.012 356.9 891.185L306.537 904.156L288.401 908.861C288.242 908.688 288.242 908.688 288.084 908.516C286.881 906.702 284.625 905.759 283.302 906.587L257.374 873.571C257.822 873.05 258.11 872.356 258.129 871.62L356.695 890.709ZM359.166 893.903L347.054 950.535L289.296 912.104C289.473 911.541 289.222 910.763 289.128 910.157L326.658 900.353L337.693 897.495L357.469 892.308C357.945 892.826 358.579 893.516 359.166 893.903ZM304.034 1034.26L273.082 1073.91L272.924 1073.74L285.783 1026.24C286.641 1026.67 287.722 1026.84 288.551 1026.23C289.763 1025.53 290.023 1023.8 289.249 1022.2L304.034 1034.26ZM289.538 1021.5L336.505 992.484L304.435 1033.44L289.538 1021.5ZM245.715 910.027L257.868 910.151L262.186 958.709C261.916 958.666 261.646 958.624 261.534 958.754L244.383 913.365C244.494 913.235 244.494 913.235 244.765 913.277C245.594 912.668 246.06 911.411 245.715 910.027ZM208.695 873.505L240.277 817.402C240.435 817.574 240.705 817.617 241.022 817.962L242.004 906.491C241.464 906.407 240.811 906.453 240.205 906.802C240.094 906.932 240.094 906.932 239.982 907.062L208.695 873.505ZM243.784 906.917L254.224 873.67C254.383 873.843 254.494 873.712 254.653 873.885L257.728 909.243L245.304 909.076C245.146 908.903 245.099 908.6 244.941 908.428C244.577 907.78 244.101 907.262 243.784 906.917ZM152.766 917.973C152.207 918.624 151.965 919.621 152.151 920.832L128.982 922.829L117.123 874.129C117.394 874.171 117.617 873.911 117.888 873.953L152.766 917.973ZM126.604 883.443L156.298 917.785C155.282 917.183 154.359 917.187 153.483 917.494L126.604 883.443ZM157.754 924.663C157.865 924.533 157.977 924.403 158.089 924.272L191.408 959.033C191.119 959.727 190.989 960.594 191.129 961.502L170.933 963.964L157.101 924.709C157.372 924.751 157.642 924.793 157.754 924.663ZM158.648 923.621C159.049 922.796 159.02 921.757 158.563 920.504L184.565 950.575L158.648 923.621ZM118.717 873.344C118.941 873.083 119.006 872.65 119.229 872.389L190.2 898.991C190.182 899.727 190.592 900.678 190.956 901.326C191.478 902.147 192.382 902.879 193.081 903.136L193.99 957.811C193.449 957.727 192.797 957.772 192.191 958.121L192.079 958.252L118.717 873.344ZM140.65 805.979L126.091 843.312L105.676 826.38C105.918 825.383 105.89 824.344 105.321 823.221L139.969 804.986C140.174 805.462 140.333 805.634 140.65 805.979ZM125.532 843.964L116.432 867.075C116.003 866.86 115.304 866.603 114.922 866.692L103.57 828.12C103.84 828.162 104.064 827.901 104.334 827.943C104.558 827.683 104.669 827.553 104.893 827.292L125.532 843.964ZM118.399 868.712C118.082 868.367 117.877 867.892 117.448 867.677L126.436 844.696L190.237 897.519C190.125 897.65 190.172 897.952 190.172 897.952L119.201 871.35C119.061 870.442 118.921 869.533 118.399 868.712ZM224.525 928.294L196.022 959.015C195.705 958.67 195.118 958.283 194.689 958.068L193.734 903.09C194.274 903.175 194.927 903.129 195.532 902.78C195.644 902.65 195.868 902.389 195.98 902.259L224.525 928.294ZM196.585 901.91C196.651 901.477 196.874 901.216 196.781 900.61L239.05 909.577C239.144 910.183 239.507 910.831 239.713 911.306L239.871 911.478L224.925 927.47L196.585 901.91ZM197.84 962.255L259.96 963.09C260.165 963.565 260.211 963.868 260.528 964.213C261.209 965.206 261.955 965.766 262.812 966.196L265.973 1008.96L197.756 963.424C197.822 962.991 197.887 962.558 197.84 962.255ZM263.623 966.322L263.894 966.365L284.327 1019.36C284.216 1019.49 283.945 1019.45 283.833 1019.58C283.451 1019.67 283.116 1020.06 283.051 1020.49L266.878 1009.69L263.623 966.322ZM259.661 962.009L197.541 961.174C197.336 960.698 197.29 960.395 196.973 960.05L196.814 959.878L225.429 929.026L259.763 960.104C259.586 960.667 259.568 961.403 259.661 962.009ZM225.988 928.375L240.775 912.211C241.68 912.943 242.696 913.545 243.73 913.411L260.881 958.8C260.881 958.8 260.881 958.8 260.769 958.931C260.658 959.061 260.434 959.322 260.322 959.452L225.988 928.375ZM238.91 908.668L196.641 899.702C196.547 899.096 196.184 898.448 195.979 897.973C195.82 897.8 195.503 897.455 195.345 897.282L208.294 874.329L239.376 907.411C239.152 907.672 239.087 908.105 238.91 908.668ZM194.552 896.42C193.648 895.687 192.837 895.561 191.803 895.695L144.48 806.873C144.592 806.743 144.592 806.743 144.704 806.613L207.343 873.294L194.552 896.42ZM191.197 896.044C190.973 896.304 190.861 896.434 190.638 896.695L126.837 843.872L141.395 806.539C142.141 807.099 142.952 807.226 143.716 807.05L191.197 896.044ZM139.083 803.518L49.139 825.825C48.9805 825.653 48.9805 825.653 48.822 825.48C48.822 825.48 48.822 825.48 48.6635 825.308L94.4613 780.144L138.738 802.134C138.943 802.609 138.878 803.043 139.083 803.518ZM137.965 804.821L104.528 822.358C103.214 820.675 101.228 819.774 99.905 820.601C99.0757 821.211 98.61 822.468 98.7967 823.68L51.5716 826.205L137.965 804.821ZM102.871 827.863L114.27 866.737C113.999 866.695 113.776 866.956 113.664 867.086C113.17 867.305 112.946 867.565 112.769 868.129L94.6574 856.728L101.948 827.866C102.33 827.778 102.6 827.82 102.871 827.863ZM112.481 868.823C112.35 869.689 112.537 870.9 113.376 872.066C113.535 872.239 113.693 872.411 113.852 872.584L77.4317 924.68C77.4317 924.68 77.4317 924.68 77.2732 924.507L94.3686 857.422L112.481 868.823ZM78.4293 926.018C78.2708 925.845 78.1124 925.673 77.9539 925.5L114.327 873.101C114.914 873.489 115.502 873.876 116.201 874.133L128.329 922.875L78.9515 926.838C78.9048 926.535 78.7463 926.363 78.4293 926.018ZM129.392 923.78L152.72 921.956C152.767 922.259 152.925 922.431 153.242 922.776C153.447 923.252 153.923 923.769 154.352 923.984L140.624 964.993C140.195 964.779 139.925 964.737 139.496 964.522L129.392 923.78ZM142.209 966.719C142.003 966.243 141.528 965.726 141.099 965.511L154.827 924.502C155.414 924.889 155.955 924.973 156.495 925.058L170.28 964.01L142.572 967.367C142.414 967.194 142.367 966.891 142.209 966.719ZM171.343 964.915L191.54 962.453C191.698 962.626 191.745 962.928 191.903 963.101C192.267 963.749 192.584 964.094 193.171 964.481L184.4 998.285C183.971 998.07 183.43 997.985 183.16 997.943L171.343 964.915ZM186.413 1000.22C186.05 999.577 185.733 999.232 185.146 998.844L193.433 967.035L189.891 1006.53L186.862 1003.99C187.486 1002.9 187.253 1001.39 186.413 1000.22ZM194.616 965.298C195.315 965.555 195.967 965.509 196.461 965.291L268.916 1073.41L268.962 1073.71L268.851 1073.84L191.066 1007.31L194.616 965.298ZM197.067 964.942C197.291 964.681 197.403 964.551 197.626 964.29L266.272 1010.04L271.097 1073.01C270.556 1072.92 270.174 1073.01 269.792 1073.1L197.067 964.942ZM267.018 1010.6L283.032 1021.23C282.79 1022.22 283.089 1023.3 283.816 1024.6C284.18 1025.25 284.497 1025.59 285.084 1025.98L281.443 1039.16L272.066 1073.31C272.066 1073.31 271.908 1073.14 271.796 1073.27L267.018 1010.6ZM285.362 1019.23L264.928 966.231C265.04 966.1 265.31 966.142 265.422 966.012C266.028 965.663 266.428 964.839 266.447 964.103L285.751 971.256L285.903 1019.31C285.632 1019.27 285.474 1019.1 285.362 1019.23ZM266.419 963.064C266.325 962.459 266.073 961.68 265.551 960.86C265.234 960.515 265.029 960.039 264.6 959.825L284.87 913.334C285.028 913.507 285.14 913.376 285.298 913.549L285.452 970.175L266.419 963.064ZM283.173 911.739C283.49 912.084 283.695 912.56 284.124 912.774L263.584 959.223C263.426 959.05 263.156 959.008 262.997 958.835L258.632 909.975L282.558 910.313C282.921 910.961 283.126 911.436 283.173 911.739ZM258.651 909.239L255.511 874.314C256.051 874.399 256.433 874.311 256.927 874.092L283.013 907.281C282.454 907.932 282.324 908.799 282.464 909.707L258.651 909.239ZM241.945 817.958L253.691 866.789C253.309 866.877 253.039 866.835 252.815 867.095C251.492 867.923 251.325 870.262 252.528 872.075C252.844 872.42 253.05 872.896 253.478 873.11L242.927 906.488L241.945 817.958C241.786 817.786 241.945 817.958 241.945 817.958ZM145.635 804.098L238.076 814.25C238.281 814.726 238.486 815.201 238.692 815.677C238.85 815.849 239.167 816.194 239.326 816.367L207.902 872.642L145.263 805.961C145.598 805.57 145.617 804.834 145.635 804.098ZM124.01 755.35L140.48 799.746C140.368 799.876 140.098 799.834 139.986 799.964C139.492 800.183 139.315 800.746 138.98 801.137L95.2907 779.535L121.055 754.15C121.847 755.012 122.975 755.484 124.01 755.35ZM7.70681 735.855L119.6 751.558C119.694 752.163 120.057 752.811 120.262 753.287L94.1628 779.063L7.75348 736.158C7.8653 736.027 7.8653 736.027 7.70681 735.855ZM6.39329 738.458L6.50512 738.327C6.99903 738.109 7.28779 737.415 7.46474 736.852L93.4453 779.542L47.9829 824.315C47.0319 823.279 45.9041 822.808 44.8696 822.942L6.39329 738.458ZM49.7544 827.252L99.2537 824.933C99.3004 825.236 99.6174 825.581 99.664 825.884C100.028 826.532 100.503 827.05 100.932 827.264L93.6413 856.126L49.7175 828.724C49.8945 828.16 49.8478 827.857 49.7544 827.252ZM47.9286 830.809C48.1989 830.851 48.4225 830.59 48.6928 830.633C49.1867 830.414 49.4103 830.153 49.5873 829.59L93.511 856.993L76.4157 924.078C75.9869 923.863 75.7166 923.821 75.4463 923.778L47.9286 830.809ZM136.532 965.832L79.3249 929.261C79.39 928.828 79.4551 928.395 79.25 927.919L128.357 923.914L138.191 964.614C137.809 964.702 137.539 964.659 137.315 964.92C137.091 965.181 136.868 965.441 136.532 965.832ZM143.039 970.395C143.216 969.832 143.123 969.226 143.029 968.621L170.737 965.263L182.284 998.25C182.172 998.38 181.902 998.338 181.79 998.468C181.567 998.729 181.184 998.817 181.119 999.25L143.039 970.395ZM184.327 1005.51C184.868 1005.6 185.52 1005.55 186.126 1005.2C186.238 1005.07 186.461 1004.81 186.573 1004.68L189.761 1007.4L184.993 1061.19L184.327 1005.51ZM185.722 1066.77L190.936 1008.17L268.562 1074.53C268.497 1074.97 268.32 1075.53 268.413 1076.14L188.304 1069.83C188.099 1069.36 187.894 1068.88 187.689 1068.41C187.055 1067.72 186.309 1067.16 185.722 1066.77ZM188.174 1070.7L268.283 1077C268.488 1077.48 268.535 1077.78 268.852 1078.13L233.805 1105.76L188.09 1071.87C188.314 1071.61 188.379 1071.17 188.174 1070.7ZM211.216 1119.22L187.131 1073.34C187.354 1073.08 187.736 1072.99 187.801 1072.56L233.199 1106.11L214.712 1120.51C213.649 1119.6 212.362 1118.96 211.216 1119.22ZM268.819 1133.54L216.054 1123.23C215.961 1122.63 215.756 1122.15 215.28 1121.63L233.992 1106.97L268.837 1132.81C268.884 1133.11 268.772 1133.24 268.819 1133.54ZM269.909 1131.2C269.685 1131.46 269.303 1131.55 269.238 1131.98L234.709 1106.49L269.038 1079.34L271.596 1131.02C271.055 1130.93 270.403 1130.98 269.909 1131.2ZM274.01 1132.14C273.534 1131.62 273.106 1131.4 272.677 1131.19L270.231 1079.38C271.453 1080.45 272.963 1080.84 274.062 1080.27C275.162 1079.7 275.469 1078.27 274.965 1076.72L338.247 1063.69L274.01 1132.14ZM274.397 1075.59C274.238 1075.42 274.238 1075.42 274.191 1075.12C274.033 1074.95 274.033 1074.95 273.875 1074.77L304.938 1034.99L338.712 1062.44L274.397 1075.59ZM339.16 1061.92L305.386 1034.47L337.456 993.519C337.773 993.864 338.201 994.079 338.472 994.121L339.16 1061.92ZM335.983 991.664L288.522 1020.9C288.046 1020.38 287.412 1019.69 286.713 1019.44L286.45 971.513L335.432 989.804C335.526 990.41 335.619 991.016 335.983 991.664ZM335.404 988.765L286.422 970.474L286.109 913.676C286.65 913.76 287.191 913.844 287.684 913.626L336.093 987.247C335.758 987.638 335.469 988.332 335.404 988.765ZM336.858 987.071L288.449 913.45C288.672 913.189 288.784 913.059 289.008 912.798L346.924 951.401L339.132 987.279C338.274 986.849 337.463 986.722 336.858 987.071ZM386.057 979.386L341.574 989.433C341.416 989.261 341.416 989.261 341.369 988.958C341.005 988.31 340.53 987.793 339.943 987.405L347.623 951.658L385.842 977.135C385.824 977.871 385.805 978.607 386.057 979.386ZM386.914 975.529C386.532 975.617 386.196 976.008 386.131 976.442L347.753 950.792L359.977 894.03C360.247 894.072 360.676 894.287 360.946 894.329L365.731 909.116L387.52 975.181C387.296 975.441 387.184 975.572 386.914 975.529ZM388.33 975.307L366.906 909.891L361.757 894.456C361.869 894.325 362.139 894.368 362.251 894.237C362.745 894.019 363.034 893.325 363.211 892.761L392.945 905.977L388.871 975.392C388.713 975.219 388.601 975.349 388.33 975.307ZM389.84 975.691L393.915 906.276L419.409 917.648C419.39 918.384 419.689 919.465 420.211 920.285C420.369 920.458 420.686 920.803 420.845 920.975L390.269 975.906C390.157 976.036 389.999 975.863 389.84 975.691ZM391.062 976.768L421.637 921.838C422.812 922.613 424.051 922.954 425.151 922.387C425.375 922.126 425.757 922.038 425.822 921.605L459.605 946.537L391.537 977.286C391.22 976.941 391.22 976.941 391.062 976.768ZM526.881 997.095L393.494 977.148L460.462 946.967L527.012 996.228C526.946 996.662 526.835 996.792 526.881 997.095ZM527.3 995.535L461.226 946.79L488.233 934.604C489.278 936.245 491.105 936.974 492.363 936.579L527.748 995.013C527.636 995.144 527.524 995.274 527.3 995.535ZM530.199 994.657C529.658 994.573 529.118 994.488 528.465 994.534L493.08 936.1C494.245 935.1 494.459 933.064 493.256 931.251L493.098 931.078L541.261 878.156C541.578 878.501 541.848 878.543 542.165 878.888L530.199 994.657ZM540.31 877.121L540.469 877.293L492.305 930.215C491.83 929.698 491.401 929.483 490.702 929.226L484.936 866.994L539.378 875.349C539.741 875.997 539.946 876.473 540.31 877.121ZM539.508 874.483L485.066 866.128L480.356 815.884C480.897 815.968 481.279 815.88 481.615 815.489C481.726 815.359 481.95 815.098 482.062 814.968L539.657 872.881C539.591 873.314 539.414 873.877 539.508 874.483ZM540.598 872.141C540.486 872.271 540.374 872.402 540.262 872.532L482.668 814.619L482.779 814.489L546.632 852.246L543.096 872.088C542.238 871.658 541.315 871.662 540.598 872.141ZM596.124 893.523C595.742 893.611 595.471 893.569 595.248 893.83C594.642 894.178 594.353 894.872 594.176 895.436L546.247 876.275C546.247 876.275 546.247 876.275 546.2 875.972L589.493 878.743C589.699 879.219 589.904 879.694 590.221 880.039C591.06 881.205 592.234 881.979 593.316 882.148L596.124 893.523ZM597.046 893.519L594.015 882.405C594.397 882.317 594.667 882.359 594.891 882.099C595.608 881.62 595.897 880.926 596.027 880.059L606.373 883.005L598.762 894.378C598.286 893.861 597.587 893.604 597.046 893.519ZM641.019 892.998L600.393 896.407C600.346 896.104 600.188 895.931 599.871 895.586C599.713 895.414 599.554 895.241 599.396 895.069L607.073 883.262L641.019 892.998C641.131 892.868 641.131 892.868 641.019 892.998ZM642.239 889.79C641.522 890.269 641.233 890.962 641.103 891.829L607.902 882.653L648.076 821.537C648.234 821.71 648.504 821.752 648.663 821.924L644.197 889.652C643.498 889.395 642.845 889.441 642.239 889.79ZM689.088 835.184C689.247 835.357 689.247 835.357 689.405 835.529L645.912 890.511L645.753 890.338L663.371 824.074L688.333 832.849C688.314 833.586 688.566 834.364 689.088 835.184ZM690.093 829.725C689.823 829.683 689.599 829.944 689.217 830.032C688.612 830.381 688.323 831.074 688.193 831.941L663.501 823.207L675.14 778.916C675.569 779.131 675.998 779.346 676.268 779.388L690.093 829.725ZM673.285 777.148C673.444 777.321 673.444 777.321 673.602 777.493L650.451 815.553C650.022 815.339 649.435 814.951 649.006 814.736L640.242 763.859L672.325 774.338C672.511 775.55 672.763 776.328 673.285 777.148ZM673.014 772.82C672.79 773.081 672.725 773.514 672.502 773.775L640.26 763.123L634.193 728.037C634.575 727.949 634.958 727.861 635.181 727.6C635.293 727.47 635.405 727.339 635.405 727.339L673.014 772.82ZM676.5 772.33C675.484 771.728 674.29 771.69 673.573 772.169L636.122 726.86C636.346 726.6 636.299 726.297 636.364 725.864L683.473 743.123C683.324 744.726 684.527 746.539 685.86 747.486L676.5 772.33ZM678.15 773.622L678.355 774.098C678.038 773.753 677.833 773.277 677.404 773.062L686.606 748.046C688.274 748.602 689.868 747.817 690.129 746.084C690.24 745.953 690.082 745.781 690.082 745.781L698.741 748.907L715.519 755.074C715.566 755.377 715.566 755.377 715.613 755.68C715.659 755.983 715.659 755.983 715.706 756.286L678.15 773.622ZM752.463 712.371L720.57 752.76C720.253 752.415 719.824 752.2 719.554 752.158C719.125 751.943 718.697 751.728 718.314 751.816L712.289 732.402L752.463 712.371ZM751.783 711.378L711.878 731.451L700.928 696.341C701.804 696.034 702.633 695.425 702.717 694.256L751.484 710.296C751.531 710.599 751.578 710.902 751.783 711.378ZM751.763 707.828C751.54 708.088 751.474 708.521 751.409 708.955C751.298 709.085 751.456 709.258 751.344 709.388L702.847 693.389C702.912 692.956 702.707 692.481 702.502 692.005L727.272 678.14L751.763 707.828ZM772.341 664.193L755.901 707.292C755.743 707.119 755.472 707.077 755.314 706.904C754.186 706.433 752.993 706.394 752.434 707.046L727.989 677.661L776.811 650.408C776.97 650.581 777.128 650.754 777.445 651.099L772.341 664.193ZM776.019 649.546L727.197 676.798L691.378 633.518C691.601 633.257 691.778 632.694 691.843 632.261C691.955 632.13 691.908 631.827 691.908 631.827L775.45 648.422C775.497 648.725 775.702 649.201 776.019 649.546ZM775.477 645.175C775.253 645.436 775.188 645.869 775.123 646.302C775.058 646.736 775.105 647.038 775.151 647.341L691.61 630.746C691.517 630.141 691.311 629.665 690.836 629.148L735.229 594.553L775.477 645.175ZM776.642 644.175C776.53 644.305 776.148 644.393 776.036 644.524L735.947 594.074L750.782 582.499C751.257 583.017 751.686 583.232 752.273 583.619C752.86 584.006 753.401 584.091 753.783 584.003L776.642 644.175ZM749.522 578.608C749.28 579.605 749.737 580.858 750.259 581.679L735.313 593.384L686.86 532.318C686.972 532.187 686.972 532.187 687.084 532.057L708.664 547.989L749.476 578.305C749.634 578.478 749.634 578.478 749.522 578.608ZM750.929 576.611C750.547 576.699 750.212 577.09 749.876 577.481L708.794 547.123L687.484 531.233C687.484 531.233 687.596 531.103 687.438 530.93C687.615 530.366 687.521 529.761 687.316 529.285L726.031 522.031L750.929 576.611ZM726.907 521.725L785.854 510.537C786.06 511.013 786.377 511.358 786.852 511.875L754.061 577.248C753.902 577.075 753.632 577.033 753.474 576.861C752.886 576.473 752.234 576.519 751.693 576.435L726.907 521.725ZM786.909 591.837L756.355 581.005C756.168 579.794 755.599 578.67 754.807 577.808L787.598 512.435C787.756 512.608 787.868 512.477 788.027 512.65L786.909 591.837ZM785.444 509.586L726.496 520.774L716.36 498.648C716.965 498.3 717.525 497.648 717.655 496.782C717.767 496.651 717.72 496.349 717.72 496.349L785.444 509.586C785.286 509.414 785.444 509.586 785.444 509.586ZM785.276 507.639C785.323 507.942 785.211 508.072 785.257 508.375L717.803 495.179C717.71 494.574 717.346 493.926 717.141 493.45L753.128 460.794L786.124 506.293C785.518 506.642 785.182 507.033 785.276 507.639ZM786.953 505.684C786.683 505.642 786.571 505.772 786.347 506.033L753.352 460.534L767.348 447.793C767.665 448.138 768.252 448.526 768.681 448.74C769.109 448.955 769.538 449.17 769.92 449.082L786.953 505.684ZM824.257 487.569C824.127 488.436 824.267 489.344 824.789 490.165L791.194 507.529C790.672 506.708 790.085 506.321 789.227 505.891C788.798 505.677 788.258 505.592 787.988 505.55L770.955 448.948C771.607 448.902 772.054 448.381 772.39 447.99L824.481 487.309C824.211 487.266 824.099 487.397 824.257 487.569ZM824.611 486.442L772.52 447.123C772.632 446.993 772.632 446.993 772.585 446.69C772.539 446.387 772.604 445.954 772.557 445.651L816.801 449.458L826.158 485.354C825.394 485.53 824.788 485.879 824.611 486.442ZM882.958 455.948L829.747 487.244C829.272 486.727 828.638 486.037 827.938 485.78C827.51 485.565 827.239 485.523 826.969 485.48L817.612 449.585L882.547 454.998C882.753 455.473 882.799 455.776 882.958 455.948ZM882.426 453.353C882.473 453.656 882.408 454.089 882.296 454.219L817.36 448.806L802.462 391.503C803.114 391.457 803.72 391.108 803.897 390.545L882.333 452.747C882.491 452.92 882.379 453.05 882.426 453.353ZM883.115 451.835C883.003 451.965 882.892 452.096 882.78 452.226L804.344 390.024C804.456 389.893 804.297 389.721 804.409 389.59C804.521 389.46 804.474 389.157 804.474 389.157L845.094 396.831L883.115 451.835ZM882.155 449.025L846.128 396.697L851.963 397.757C852.308 399.141 853.464 400.651 854.751 401.295C855.45 401.552 856.149 401.809 856.913 401.633L882.155 449.025ZM852.466 395.027C852.242 395.288 852.065 395.851 852 396.284C851.888 396.415 851.935 396.718 851.935 396.718L845.559 395.574L813.57 348.902L852.466 395.027ZM855.522 394.322C854.395 393.851 853.472 393.854 852.913 394.506L811.752 345.662C811.975 345.402 812.152 344.838 812.217 344.405C812.301 343.236 812.003 342.155 811.322 341.162L878.489 285.739C878.806 286.085 879.123 286.43 879.71 286.817L855.522 394.322ZM877.808 284.746L810.53 340.299C810.371 340.126 810.213 339.954 810.213 339.954L830.798 289.523L838.259 271.18C838.259 271.18 838.417 271.353 838.529 271.222C840.403 272.254 842.108 271.338 842.369 269.605L877.052 282.412C877.034 283.148 877.286 283.926 877.808 284.746ZM877.183 281.545L842.499 268.739C842.359 267.83 842.06 266.749 841.268 265.886L855.058 248.385L878.031 280.2C877.537 280.418 877.36 280.982 877.183 281.545ZM919.619 324.972L883.419 286.066C883.643 285.806 883.708 285.372 883.773 284.939C884.145 283.076 882.737 280.787 880.864 279.756C880.435 279.541 880.006 279.326 879.624 279.414L865.494 239.078L919.619 324.972ZM920.989 324.447C920.719 324.405 920.607 324.535 920.337 324.493L866.37 238.772C866.705 238.381 867.153 237.86 867.171 237.123C867.283 236.993 867.124 236.821 867.236 236.69L904.892 245.675L920.989 324.447ZM982.423 266.061L923.944 325.648C923.627 325.303 923.198 325.088 922.611 324.701C922.341 324.658 922.182 324.486 921.753 324.271L905.75 246.105L981.602 264.159C981.696 264.765 982.059 265.413 982.423 266.061ZM981.369 262.645C981.257 262.775 981.416 262.948 981.304 263.078L905.451 245.024L898.882 212.667C899.804 212.663 900.522 212.184 900.923 211.36L981.369 262.645C981.481 262.514 981.481 262.514 981.369 262.645ZM981.77 261.821L901.053 210.494C901.118 210.06 901.071 209.758 901.025 209.455L969.101 212.994L983.27 260.429C982.776 260.648 982.058 261.127 981.77 261.821ZM1024.19 297.412L988.165 266.514C988.276 266.384 988.23 266.081 988.341 265.95C988.36 265.214 988.267 264.609 988.173 264.003L1026.08 252.336L1026.81 296.492C1025.73 296.323 1024.74 296.76 1024.19 297.412ZM1101.93 229.306L1029.16 298.041C1028.69 297.524 1028.26 297.309 1027.67 296.921L1026.84 252.16L1101.77 229.133C1101.88 229.003 1101.77 229.133 1101.93 229.306ZM1101.14 225.932C1101.13 226.668 1101.22 227.274 1101.47 228.052L1026.92 250.991L1025.46 173.027C1026.54 173.195 1027.42 172.889 1027.93 171.935L1101.1 225.629C1100.99 225.76 1100.99 225.76 1101.14 225.932Z" fill="url(#paint0_linear_1_110)" fill-opacity="0.3"/>
<defs>
<linearGradient id="paint0_linear_1_110" x1="301.145" y1="841.178" x2="923.961" y2="269.089" gradientUnits="userSpaceOnUse">
<stop stop-color="#32202B"/>
<stop offset="0.0001" stop-color="#2A59D5"/>
<stop offset="0.486" stop-color="#2ADACC"/>
<stop offset="0.784108" stop-color="#425667"/>
<stop offset="0.810151" stop-color="#110EAC"/>
<stop offset="0.9994" stop-color="#040B4D"/>
</linearGradient>
</defs>
</svg>
