<svg width="21" height="22" viewBox="0 0 21 22" fill="none" xmlns="http://www.w3.org/2000/svg">
<g clip-path="url(#clip0_1_276)">
<path d="M17.8032 4.27385C16.4754 3.66458 15.0515 3.21569 13.5627 2.9586C13.5356 2.95364 13.5085 2.96604 13.4945 2.99084C13.3114 3.31654 13.1086 3.74146 12.9665 4.07543C11.3652 3.8357 9.77214 3.8357 8.20368 4.07543C8.06161 3.73403 7.85139 3.31654 7.66744 2.99084C7.65348 2.96686 7.62639 2.95446 7.59928 2.9586C6.11131 3.21487 4.6874 3.66376 3.35873 4.27385C3.34723 4.27881 3.33737 4.28708 3.33083 4.29782C0.62996 8.33286 -0.10992 12.2687 0.25304 16.1558C0.254683 16.1748 0.265358 16.193 0.280139 16.2045C2.06209 17.5132 3.78822 18.3076 5.48229 18.8342C5.5094 18.8425 5.53813 18.8326 5.55538 18.8102C5.95612 18.263 6.31334 17.686 6.61962 17.0792C6.63769 17.0436 6.62044 17.0015 6.58349 16.9874C6.01689 16.7725 5.47736 16.5104 4.95838 16.2128C4.91733 16.1888 4.91404 16.1301 4.95181 16.102C5.06102 16.0202 5.17026 15.935 5.27455 15.8491C5.29341 15.8334 5.3197 15.83 5.34189 15.84C8.75139 17.3966 12.4426 17.3966 15.8119 15.84C15.8341 15.8292 15.8603 15.8325 15.88 15.8482C15.9843 15.9342 16.0936 16.0202 16.2036 16.102C16.2414 16.1301 16.2389 16.1888 16.1978 16.2128C15.6789 16.5162 15.1393 16.7725 14.5719 16.9866C14.535 17.0006 14.5185 17.0436 14.5366 17.0792C14.8495 17.6851 15.2067 18.2621 15.6 18.8094C15.6164 18.8326 15.646 18.8425 15.6731 18.8342C17.3754 18.3076 19.1015 17.5132 20.8835 16.2045C20.8991 16.193 20.9089 16.1756 20.9106 16.1566C21.345 11.6627 20.183 7.75915 17.8303 4.29864C17.8246 4.28708 17.8147 4.27881 17.8032 4.27385ZM7.12877 13.789C6.10227 13.789 5.25647 12.8466 5.25647 11.6892C5.25647 10.5318 6.08587 9.58943 7.12877 9.58943C8.17986 9.58943 9.01747 10.5401 9.00104 11.6892C9.00104 12.8466 8.17164 13.789 7.12877 13.789ZM14.0513 13.789C13.0248 13.789 12.179 12.8466 12.179 11.6892C12.179 10.5318 13.0084 9.58943 14.0513 9.58943C15.1024 9.58943 15.94 10.5401 15.9236 11.6892C15.9236 12.8466 15.1024 13.789 14.0513 13.789Z" fill="#202932"/>
</g>
<defs>
<clipPath id="clip0_1_276">
<rect width="20.8333" height="20.8333" fill="white" transform="translate(0.166946 0.666504)"/>
</clipPath>
</defs>
</svg>
