<svg width="306" height="87" viewBox="0 0 306 87" fill="none" xmlns="http://www.w3.org/2000/svg">
<circle cx="2.5" cy="2.5" r="2.5" fill="#1BB4E4"/>
<circle cx="2.5" cy="43.5" r="2.5" fill="#1BB4E4"/>
<circle cx="2.5" cy="84.5" r="2.5" fill="#1BB4E4"/>
<circle cx="45.5" cy="2.5" r="2.5" fill="#1BB4E4"/>
<circle cx="45.5" cy="43.5" r="2.5" fill="#1BB4E4"/>
<circle cx="45.5" cy="84.5" r="2.5" fill="#1BB4E4"/>
<circle cx="88.5" cy="2.5" r="2.5" fill="#1BB4E4"/>
<circle cx="88.5" cy="43.5" r="2.5" fill="#1BB4E4"/>
<circle cx="88.5" cy="84.5" r="2.5" fill="#1BB4E4"/>
<circle cx="131.5" cy="2.5" r="2.5" fill="#1BB4E4"/>
<circle cx="131.5" cy="43.5" r="2.5" fill="#1BB4E4"/>
<circle cx="131.5" cy="84.5" r="2.5" fill="#1BB4E4"/>
<circle cx="174.5" cy="2.5" r="2.5" fill="#1BB4E4"/>
<circle cx="174.5" cy="43.5" r="2.5" fill="#1BB4E4"/>
<circle cx="174.5" cy="84.5" r="2.5" fill="#1BB4E4"/>
<circle cx="217.5" cy="2.5" r="2.5" fill="#1BB4E4"/>
<circle cx="217.5" cy="43.5" r="2.5" fill="#1BB4E4"/>
<circle cx="217.5" cy="84.5" r="2.5" fill="#1BB4E4"/>
<circle cx="260.5" cy="2.5" r="2.5" fill="#1BB4E4"/>
<circle cx="260.5" cy="43.5" r="2.5" fill="#1BB4E4"/>
<circle cx="260.5" cy="84.5" r="2.5" fill="#1BB4E4"/>
<circle cx="303.5" cy="2.5" r="2.5" fill="#1BB4E4"/>
<circle cx="303.5" cy="43.5" r="2.5" fill="#1BB4E4"/>
<circle cx="303.5" cy="84.5" r="2.5" fill="#1BB4E4"/>
</svg>
