<svg width="17" height="19" viewBox="0 0 17 19" fill="none" xmlns="http://www.w3.org/2000/svg">
<path d="M6.33329 15.3556C2.16662 16.6056 2.16662 13.2722 0.499954 12.8556L6.33329 15.3556ZM12.1666 17.8556V14.6306C12.1979 14.2332 12.1442 13.8338 12.0091 13.4587C11.8741 13.0837 11.6607 12.7418 11.3833 12.4556C14 12.1639 16.75 11.1722 16.75 6.62225C16.7497 5.45877 16.3022 4.33991 15.5 3.49725C15.8798 2.47934 15.853 1.3542 15.425 0.35558C15.425 0.35558 14.4416 0.0639129 12.1666 1.58891C10.2566 1.07126 8.24328 1.07126 6.33329 1.58891C4.05829 0.0639129 3.07495 0.35558 3.07495 0.35558C2.64693 1.3542 2.62007 2.47934 2.99995 3.49725C2.19173 4.34616 1.74372 5.47513 1.74995 6.64725C1.74995 11.1639 4.49995 12.1556 7.11662 12.4806C6.84245 12.7639 6.63101 13.1018 6.49604 13.4722C6.36108 13.8426 6.30563 14.2373 6.33329 14.6306V17.8556" fill="#202932"/>
<path d="M12.1666 17.8556V14.6306C12.1979 14.2332 12.1442 13.8338 12.0091 13.4587C11.8741 13.0837 11.6607 12.7418 11.3833 12.4556C14 12.1639 16.75 11.1722 16.75 6.62225C16.7497 5.45877 16.3022 4.33991 15.5 3.49725C15.8798 2.47933 15.853 1.3542 15.425 0.35558C15.425 0.35558 14.4416 0.0639129 12.1666 1.58891C10.2566 1.07126 8.24328 1.07126 6.33329 1.58891C4.05829 0.0639129 3.07495 0.35558 3.07495 0.35558C2.64693 1.3542 2.62007 2.47933 2.99995 3.49725C2.19173 4.34616 1.74372 5.47513 1.74995 6.64725C1.74995 11.1639 4.49995 12.1556 7.11662 12.4806C6.84245 12.7639 6.63101 13.1018 6.49604 13.4722C6.36108 13.8426 6.30563 14.2373 6.33329 14.6306V17.8556M6.33329 15.3556C2.16662 16.6056 2.16662 13.2722 0.499954 12.8556L6.33329 15.3556Z" stroke="#202932" stroke-width="0.416667" stroke-linecap="round" stroke-linejoin="round"/>
</svg>
