<svg width="39" height="39" viewBox="0 0 39 39" fill="none" xmlns="http://www.w3.org/2000/svg">
<path d="M11.375 35.7499H27.625" stroke="white" stroke-linecap="round" stroke-linejoin="round"/>
<path d="M3.25 27.6249V6.49988C3.25 5.63792 3.59241 4.81127 4.2019 4.20178C4.8114 3.59229 5.63805 3.24988 6.5 3.24988H32.5C33.362 3.24988 34.1886 3.59229 34.7981 4.20178C35.4076 4.81127 35.75 5.63792 35.75 6.49988V27.6249C35.75 28.4868 35.4076 29.3135 34.7981 29.923C34.1886 30.5325 33.362 30.8749 32.5 30.8749H6.5C5.63805 30.8749 4.8114 30.5325 4.2019 29.923C3.59241 29.3135 3.25 28.4868 3.25 27.6249Z" stroke="white"/>
<path d="M14.625 17.0624L17.875 20.3124L24.375 13.8124" stroke="white" stroke-linecap="round" stroke-linejoin="round"/>
</svg>
