<svg width="21" height="22" viewBox="0 0 21 22" fill="none" xmlns="http://www.w3.org/2000/svg">
<g clip-path="url(#clip0_1_294)">
<path d="M10.3609 2.54232C13.0849 2.54232 13.4075 2.55452 14.4788 2.60335C15.4744 2.64811 16.012 2.81901 16.3704 2.96143C16.8443 3.1486 17.1868 3.37646 17.5413 3.73861C17.8997 4.10482 18.1187 4.45068 18.3019 4.9349C18.4413 5.30111 18.6085 5.85449 18.6524 6.86768C18.7001 7.96631 18.7121 8.2959 18.7121 11.075C18.7121 13.8582 18.7001 14.1878 18.6524 15.2824C18.6085 16.2996 18.4413 16.849 18.3019 17.2152C18.1187 17.6994 17.8957 18.0493 17.5413 18.4115C17.1828 18.7777 16.8443 19.0015 16.3704 19.1886C16.012 19.3311 15.4704 19.502 14.4788 19.5467C13.4035 19.5955 13.0809 19.6077 10.3609 19.6077C7.63694 19.6077 7.31436 19.5955 6.24308 19.5467C5.24747 19.502 4.70985 19.3311 4.35143 19.1886C3.87752 19.0015 3.53503 18.7736 3.18059 18.4115C2.82217 18.0452 2.60314 17.6994 2.41994 17.2152C2.28056 16.849 2.1133 16.2956 2.06949 15.2824C2.0217 14.1838 2.00975 13.8542 2.00975 11.075C2.00975 8.29183 2.0217 7.96224 2.06949 6.86768C2.1133 5.85042 2.28056 5.30111 2.41994 4.9349C2.60314 4.45068 2.82615 4.10075 3.18059 3.73861C3.53901 3.3724 3.87752 3.1486 4.35143 2.96143C4.70985 2.81901 5.25146 2.64811 6.24308 2.60335C7.31436 2.55452 7.63694 2.54232 10.3609 2.54232ZM10.3609 0.666504C7.59313 0.666504 7.24666 0.678711 6.15945 0.727539C5.07623 0.776367 4.33151 0.955404 3.68636 1.21175C3.01333 1.48031 2.44384 1.83431 1.87833 2.41618C1.30885 2.99398 0.962373 3.57585 0.699532 4.25944C0.448639 4.92269 0.273412 5.67952 0.225622 6.7863C0.177833 7.9012 0.165886 8.25521 0.165886 11.0832C0.165886 13.9111 0.177833 14.2651 0.225622 15.376C0.273412 16.4827 0.448639 17.2437 0.699532 17.9028C0.962373 18.5905 1.30885 19.1724 1.87833 19.7502C2.44384 20.328 3.01333 20.686 3.68238 20.9505C4.33151 21.2069 5.07225 21.3859 6.15547 21.4347C7.24267 21.4836 7.58915 21.4958 10.3569 21.4958C13.1247 21.4958 13.4712 21.4836 14.5584 21.4347C15.6416 21.3859 16.3863 21.2069 17.0315 20.9505C17.7006 20.686 18.27 20.328 18.8355 19.7502C19.4011 19.1724 19.7515 18.5905 20.0104 17.9069C20.2613 17.2437 20.4365 16.4868 20.4843 15.38C20.5321 14.2692 20.544 13.9152 20.544 11.0872C20.544 8.25928 20.5321 7.90527 20.4843 6.79443C20.4365 5.68766 20.2613 4.92676 20.0104 4.26758C19.7595 3.57585 19.413 2.99398 18.8435 2.41618C18.278 1.83838 17.7085 1.48031 17.0395 1.21582C16.3903 0.959473 15.6496 0.780436 14.5664 0.731608C13.4752 0.678711 13.1287 0.666504 10.3609 0.666504Z" fill="#202932"/>
<path d="M10.3609 5.73242C7.46967 5.73242 5.12402 8.12907 5.12402 11.0832C5.12402 14.0373 7.46967 16.4339 10.3609 16.4339C13.2522 16.4339 15.5978 14.0373 15.5978 11.0832C15.5978 8.12907 13.2522 5.73242 10.3609 5.73242ZM10.3609 14.554C8.48519 14.554 6.9639 12.9997 6.9639 11.0832C6.9639 9.16667 8.48519 7.6123 10.3609 7.6123C12.2366 7.6123 13.7579 9.16667 13.7579 11.0832C13.7579 12.9997 12.2366 14.554 10.3609 14.554Z" fill="#202932"/>
<path d="M17.0275 5.52079C17.0275 6.21253 16.4779 6.76998 15.8049 6.76998C15.1279 6.76998 14.5823 6.20846 14.5823 5.52079C14.5823 4.82906 15.1319 4.27161 15.8049 4.27161C16.4779 4.27161 17.0275 4.83313 17.0275 5.52079Z" fill="#202932"/>
</g>
<defs>
<clipPath id="clip0_1_294">
<rect width="20.3901" height="20.8333" fill="white" transform="translate(0.165886 0.666504)"/>
</clipPath>
</defs>
</svg>
