<svg width="13" height="24" viewBox="0 0 13 24" fill="none" xmlns="http://www.w3.org/2000/svg">
<path d="M10.65 23.9912C11.041 23.992 11.4199 23.8558 11.721 23.6063C11.8904 23.4659 12.0305 23.2933 12.1331 23.0987C12.2358 22.904 12.299 22.6909 12.3192 22.4718C12.3394 22.2526 12.3162 22.0316 12.2509 21.8214C12.1855 21.6113 12.0794 21.416 11.9385 21.247L4.44206 12.278L11.6708 3.29235C11.8098 3.12119 11.9136 2.92425 11.9762 2.71284C12.0388 2.50144 12.0591 2.27974 12.0357 2.06049C12.0124 1.84124 11.946 1.62876 11.8403 1.43526C11.7346 1.24176 11.5917 1.07107 11.4198 0.932981C11.2466 0.780649 11.0439 0.665747 10.8242 0.595487C10.6046 0.525226 10.3728 0.501124 10.1434 0.524692C9.914 0.548261 9.69195 0.618991 9.49119 0.732445C9.29042 0.845898 9.11527 0.999625 8.97673 1.18398L0.894645 11.2238C0.648531 11.5232 0.513988 11.8988 0.513988 12.2864C0.513988 12.674 0.648531 13.0495 0.894645 13.3489L9.26119 23.3888C9.42905 23.5913 9.64229 23.7514 9.8836 23.856C10.1249 23.9607 10.3875 24.007 10.65 23.9912Z" fill="#2ADACC" fill-opacity="0.5"/>
</svg>
