<svg width="36" height="36" viewBox="0 0 36 36" fill="none" xmlns="http://www.w3.org/2000/svg">
<path d="M34.9812 14.3814L29.0444 11.143V6.94722C29.0444 6.63461 28.7912 6.38067 28.4778 6.38067H24.512V4.11447C24.512 3.90708 24.3987 3.71612 24.2168 3.61697L17.9848 0.217676C17.8166 0.125358 17.611 0.125358 17.4425 0.217676L11.2105 3.61697C11.0281 3.71611 10.9148 3.90708 10.9148 4.11447V6.38067H6.94895C6.63558 6.38067 6.3824 6.63461 6.3824 6.94722V11.143L0.445553 14.3814C0.263701 14.4806 0.150391 14.6715 0.150391 14.8789V20.5444C0.150391 20.7518 0.263701 20.9428 0.445553 21.0419L6.67759 24.4412C6.76207 24.487 6.8554 24.5103 6.94898 24.5103C7.04256 24.5103 7.13589 24.487 7.22037 24.4412L13.4524 21.0419C13.6343 20.9428 13.7476 20.7518 13.7476 20.5444V14.8789C13.7476 14.6715 13.6343 14.4806 13.4524 14.3814L7.51555 11.143V7.51377H10.9148V9.77996C10.9148 9.98736 11.0282 10.1783 11.21 10.2775L17.4421 13.6768C17.5265 13.7225 17.6199 13.7458 17.7134 13.7458C17.807 13.7458 17.9003 13.7225 17.9848 13.6768L24.2169 10.2775C24.3987 10.1783 24.512 9.98736 24.512 9.77996V7.51377H27.9113V11.143L21.9745 14.3814C21.7926 14.4806 21.6793 14.6715 21.6793 14.8789V20.5444C21.6793 20.7518 21.7926 20.9428 21.9745 21.0419L28.2065 24.4412C28.291 24.487 28.3843 24.5103 28.4779 24.5103C28.5715 24.5103 28.6648 24.487 28.7493 24.4412L34.9813 21.0419C35.1632 20.9428 35.2765 20.7518 35.2765 20.5444V14.8789C35.2765 14.6715 35.1632 14.4806 34.9813 14.3814H34.9812ZM1.28353 15.833L6.38247 18.6141V22.9889L1.28353 20.2078V15.833ZM7.51557 22.989V18.6142L12.6145 15.833V20.2078L7.51557 22.989ZM11.9981 14.8786L6.94902 17.6327L1.89993 14.8786L6.38247 12.4338V13.7455H7.51557V12.4338L11.9981 14.8786ZM17.7135 1.35975L22.7625 4.11382L17.7135 6.8679L12.6644 4.11382L17.7135 1.35975ZM12.048 7.51312H13.1811V6.38002H12.048V5.06783L17.1469 7.84897V12.2238L12.048 9.44262V7.51312ZM23.3789 9.44269L18.28 12.2238V7.84903L23.3789 5.06789V6.38009H22.2458V7.51318H23.3789V9.44269ZM27.9113 12.4335V13.7452H29.0444V12.4335L33.527 14.8783L28.4779 17.6323L23.4288 14.8783L27.9113 12.4335ZM22.8124 15.8323L27.9113 18.6134V22.9882L22.8124 20.2071V15.8323ZM29.0444 22.9883V18.6135L34.1434 15.8323V20.2071L29.0444 22.9883Z" fill="#2ADACC"/>
<path d="M27.9117 27.9093H24.5124V25.6431C24.5124 25.4357 24.3991 25.2447 24.2172 25.1456L17.9852 21.7463C17.817 21.654 17.6114 21.654 17.4429 21.7463L11.2109 25.1456C11.0285 25.2447 10.9152 25.4357 10.9152 25.6431V27.9093H7.51591V25.6431H6.38281V28.4758C6.38281 28.7885 6.63599 29.0424 6.94936 29.0424H10.9152V31.3086C10.9152 31.516 11.0285 31.7069 11.2104 31.8061L17.4424 35.2054C17.5269 35.2512 17.6202 35.2744 17.7138 35.2744C17.8074 35.2744 17.9007 35.2512 17.9852 35.2054L24.2172 31.8061C24.3991 31.7069 24.5124 31.516 24.5124 31.3086V29.0424H28.4782C28.7916 29.0424 29.0448 28.7885 29.0448 28.4758V25.6431H27.9117V27.9093ZM17.7138 22.889L22.7629 25.6431L17.7138 28.3972L12.6647 25.6431L17.7138 22.889ZM12.0483 29.0424H13.1814V27.9093H12.0483V26.5971L17.1472 29.3782V33.753L12.0483 30.9719V29.0424ZM23.3793 30.972L18.2803 33.7531V29.3783L23.3793 26.5972V27.9094H22.2462V29.0425H23.3793V30.972Z" fill="#2ADACC"/>
</svg>
