<svg width="22" height="22" viewBox="0 0 22 22" fill="none" xmlns="http://www.w3.org/2000/svg">
<path fill-rule="evenodd" clip-rule="evenodd" d="M21.6663 10.6895C21.6663 16.4425 17.0026 21.1062 11.2497 21.1062C5.49671 21.1062 0.833008 16.4425 0.833008 10.6895C0.833008 4.93653 5.49671 0.272827 11.2497 0.272827C17.0026 0.272827 21.6663 4.93653 21.6663 10.6895ZM11.6229 7.96289C10.6098 8.3843 8.58485 9.25653 5.54818 10.5796C5.05507 10.7756 4.79676 10.9675 4.77325 11.1551C4.73351 11.4721 5.13049 11.5969 5.67108 11.7669C5.74462 11.79 5.82081 11.814 5.89891 11.8393C6.43077 12.0122 7.14621 12.2145 7.51814 12.2225C7.85552 12.2298 8.23207 12.0907 8.64779 11.8053C11.485 9.89004 12.9496 8.92199 13.0416 8.90112C13.1065 8.8864 13.1964 8.86788 13.2573 8.92202C13.3182 8.97616 13.3122 9.07868 13.3057 9.10618C13.2664 9.27384 11.7081 10.7226 10.9017 11.4723C10.6503 11.706 10.4719 11.8718 10.4355 11.9097C10.3538 11.9945 10.2706 12.0747 10.1906 12.1518C9.69651 12.6282 9.32597 12.9854 10.2111 13.5687C10.6365 13.849 10.9769 14.0808 11.3165 14.312C11.6873 14.5646 12.0572 14.8165 12.5358 15.1302C12.6577 15.2101 12.7742 15.2931 12.8876 15.374C13.3192 15.6817 13.7069 15.9581 14.1859 15.914C14.4643 15.8884 14.7518 15.6267 14.8978 14.8461C15.2429 13.0013 15.9212 9.00415 16.078 7.35703C16.0917 7.21272 16.0744 7.02803 16.0606 6.94696C16.0467 6.86588 16.0177 6.75037 15.9123 6.66486C15.7875 6.56359 15.5948 6.54224 15.5087 6.54375C15.1169 6.55066 14.5158 6.75967 11.6229 7.96289Z" fill="#202932"/>
</svg>
