<svg width="21" height="22" viewBox="0 0 21 22" fill="none" xmlns="http://www.w3.org/2000/svg">
<g clip-path="url(#clip0_1_281)">
<path d="M6.55313 19.5467C14.4128 19.5467 18.713 13.0335 18.713 7.38689C18.713 7.20379 18.7089 7.01661 18.7008 6.83351C19.5373 6.22856 20.2592 5.47925 20.8325 4.62078C20.0534 4.9674 19.2263 5.19377 18.3793 5.29217C19.2711 4.7576 19.9389 3.91781 20.2588 2.92848C19.4198 3.42569 18.5023 3.77644 17.5456 3.96567C16.9009 3.28073 16.0486 2.82722 15.1204 2.67525C14.1922 2.52329 13.2398 2.68133 12.4104 3.12495C11.581 3.56856 10.9209 4.27304 10.532 5.12947C10.1432 5.9859 10.0473 6.94658 10.2592 7.86297C8.56037 7.77772 6.89843 7.33641 5.3811 6.56766C3.86378 5.7989 2.52495 4.71986 1.45141 3.40048C0.905773 4.34122 0.738808 5.45442 0.984446 6.51383C1.23008 7.57325 1.86989 8.49938 2.77383 9.10402C2.09521 9.08247 1.43145 8.89976 0.837392 8.57098L0.837392 8.62387C0.836784 9.6111 1.17808 10.5681 1.80326 11.3321C2.42845 12.0962 3.29894 12.6201 4.26675 12.815C3.63811 12.987 2.97833 13.012 2.33845 12.8882C2.61155 13.7372 3.1429 14.4798 3.85835 15.0123C4.5738 15.5448 5.43765 15.8407 6.32934 15.8586C4.81552 17.0477 2.94551 17.6927 1.0205 17.6896C0.679113 17.6891 0.338064 17.6682 -0.000823975 17.627C1.95478 18.8816 4.22967 19.5479 6.55313 19.5467Z" fill="#202932"/>
</g>
<defs>
<clipPath id="clip0_1_281">
<rect width="20.8333" height="20.8333" fill="white" transform="translate(-0.000823975 0.666504)"/>
</clipPath>
</defs>
</svg>
